<svg width="22" height="22" viewBox="0 0 22 22" fill="none" xmlns="http://www.w3.org/2000/svg">
<rect x="2" y="3" width="18" height="11" fill="white"/>
<rect x="11" y="14" width="2" height="4" fill="#BFD1E1"/>
<rect x="2" y="1" width="18" height="2" fill="#263746"/>
<rect x="2" y="14" width="9" height="2" fill="#263746"/>
<rect x="13" y="14" width="7" height="2" fill="#263746"/>
<rect y="3" width="2" height="11" fill="#263746"/>
<rect x="20" y="3" width="2" height="11" fill="#263746"/>
<rect x="9" y="14" width="2" height="4" fill="#263746"/>
<rect x="11" y="18" width="4" height="2" fill="#263746"/>
<rect x="13" y="14" width="2" height="6" fill="#263746"/>
<rect x="2" y="12" width="18" height="2" fill="#BFD1E1"/>
<path fill-rule="evenodd" clip-rule="evenodd" d="M17 14L2 3L5 3L20 14L17 14Z" fill="#263746"/>
<path fill-rule="evenodd" clip-rule="evenodd" d="M2 14L17 3H20L5 14H2Z" fill="#263746"/>
</svg>
