<svg width="500" height="350" xmlns="http://www.w3.org/2000/svg">
 <defs>
  <clipPath id="clip0">
   <rect id="svg_1" fill="white" height="350" width="500"/>
  </clipPath>
 </defs>
 <g>
  <title>background</title>
  <rect fill="none" id="canvas_background" height="602" width="802" y="-1" x="-1"/>
 </g>
 <g>
  <title>Layer 1</title>
  <g id="svg_2" clip-path="url(#clip0)">
   <rect stroke="null" id="svg_3" fill="#D3F0F1" height="350" width="500"/>
   <path stroke="null" id="svg_4" fill="#D1FCF7" d="m450,123.99985l21,0l0,2l2,0l0,2l5,0l0,2l7,0l0,2l4,0l0,2l2,0l0,2l3,0l0,-2l3,0l0,-2l2,0l0,-4l1,0l0,4l0,2l0,2l0,2l0,10l0,2l0,2l1,0l0,2l-1,0l0,33l0,1l0,86l0,75l-500,0l0,-75l0,-67l0,-2l0,-2l0,-2l0,-2l0,-2l0,-2l0,-2l0,-2l0,-2l0,-2l7,0l0,2l17,0l0,2l5,0l0,2l8,0l0,2l7,0l0,2l3,0l0,2l7,0l0,2l3,0l0,2l2,0l0,2l8,0l0,-2l2,0l0,-2l6,0l0,-3l3,0l0,-2l2,0l0,-2l1,0l0,-3l2,0l0,-2l2,0l0,-2l2,0l0,-2l2,0l0,-2l2,0l0,-2l2,0l0,-2l34,0l0,2l18,0l0,2l8,0l0,2l3,0l0,2l3,0l0,2l2,0l0,2l3,0l0,3l2,0l0,2l2,0l0,2l2,0l0,5l2,0l0,2l3,0l0,2l2,0l0,4l2,0l0,4l2,0l0,7l2,0l0,30l-3,0l0,2l6,0l0,-2l7,0l0,-2l28,0l0,2l5,0l0,2l2,0l0,2l4,0l0,2l3,0l0,2l2,0l0,2l2,0l0,2l2,0l0,4l2,0l0,2l3,0l0,2l2,0l0,2l2,0l0,-2l2,0l0,-2l2,0l0,-2l2,0l0,-4l2,0l0,-2l2,0l0,-2l1,0l0,-2l1,0l0,-2l2,0l0,-4l2,0l0,-2l2,0l0,-2l2,0l0,-2l2,0l0,-2l2,0l0,-2l2,0l0,-2l2,0l0,-5l4,0l0,-2l2,0l0,-2l7,0l0,-2l2,0l0,-2l5,0l0,-3l6,0l0,-2l3,0l0,-2l-1,0l0,-4l-3,0l0,-4l-3,0l0,-33l2,0l0,-3l2,0l0,-2l2,0l0,-2l1,0l0,-3l2,0l0,-2l1,0l0,-2l2,0l0,-2l2,0l0,-1l4,0l0,-2l2,0l0,-2l4,0l0,-2l4,0l0,-2l8,0l0,-2l17,0l0,2l10,0l0,2l5,0l0,2l2,0l0,2l2,0l0,2l1,0l0,1l2,0l0,2l2,0l0,2l2,0l0,2l2,0l0,2l2,0l0,3l1,0l0,2l3,0l0,9l2,0l0,-2l4,0l0,-2l4,0l0,-2l6,0l0,-2l2,0l0,-2l4,0l0,-2l-2,0l0,-11l2,0l0,-2l2,0l0,-2l2,0l0,-2l2,0l0,-2l2,0l0,-2l2,0l0,-2l2,0l0,-2l7,0l0,-10l3,0l0,-2l3,0l0,-2l5,0l0,-2l3,0l0,-2l3,0l0,-2l3,0l0,-2l2,0l0,-2z" clip-rule="evenodd" fill-rule="evenodd"/>
   <path stroke="null" id="svg_5" fill="#AFEBE4" d="m495,184.99985l5,0l0,2l0,2l0,2l0,3l0,2l0,153l-14,0l-55,0l-21,0l-28,0l-20,0l-89,0l0,-5l-3,0l0,-3l-2,0l0,-3l-2,0l0,-3l-3,0l0,-3l2,0l0,-3l3,0l0,-3l2,0l0,-3l2,0l0,-5l2,0l0,-2l2,0l0,-2l2,0l0,-2l2,0l0,-2l1,0l0,-3l2,0l0,-9l2,0l0,-2l2,0l0,-2l2,0l0,-2l2,0l0,-2l2,0l0,-2l4,0l0,-2l2,0l0,-1l21,0l0,1l4,0l0,2l5,0l0,2l6,0l0,-2l-2,0l0,-2l2,0l0,-4l3,0l0,-4l2,0l0,-4l2,0l0,-4l2,0l0,-2l2,0l0,-2l2,0l0,-3l2,0l0,-2l2,0l0,-1l-2,0l0,-2l-2,0l0,-2l-2,0l0,-2l-2,0l0,-2l-2,0l0,-2l-1,0l0,-6l-2,0l0,-3l-3,0l0,-17l2,0l0,-5l2,0l0,-2l2,0l0,-4l2,0l0,-2l2,0l0,-2l4,0l0,-2l2,0l0,-2l2,0l0,-2l5,0l0,-1l4,0l0,-2l14,0l0,2l6,0l0,1l1,0l0,2l2,0l0,2l2,0l0,2l2,0l0,2l2,0l0,-3l4,0l0,-2l14,0l0,2l1,0l5,0l0,-2l2,0l0,-2l2,0l0,-2l2,0l0,-2l2,0l0,-1l1,0l0,-2l1,0l0,-1l1,0l0,-1l1,0l0,-2l5,0l0,-2l6,0l0,-2l2,0l0,-2l35,0l0,2l4,0l0,2l2,0l0,2l2,0l0,2l2,0l0,1l2,0l0,-2l2,0l0,-3l0,-2l3,0l0,-2l2,0l0,-2z" clip-rule="evenodd" fill-rule="evenodd"/>
   <path id="svg_6" fill="#AFEBE4" d="m48,244.99985l-22,0l0,2l-4,0l0,2l-4,0l0,2l-2,0l0,4l-3,0l0,2l-2,0l0,2l-2,0l0,4l-2,0l0,5l-1,0l0,2l-2,0l0,2l-2,0l0,2l-2,0l0,75l82,0l1,0l38,0l2,0l38,0l0,-5l-3,0l0,-4l-2,0l0,-7l-9,0l0,-2l2,0l0,-2l3,0l0,-2l2,0l0,-2l2,0l0,-9l-1,0l0,-9l-4,0l0,-2l-3,0l0,-2l-3,0l0,-2l-21,0l0,2l-3,0l0,2l0,2l-1,0l0,3l-16,0l0,-2l-3,0l0,-2l-2,0l0,-2l-5,0l0,-1l2,0l0,-2l2,0l0,-2l4,0l0,-6l0,-4l-4,0l0,-4l-4,0l0,-4l-4,0l0,-4l-7,0l0,-3l-3,0l0,-2l-2,0l0,-2l-2,0l0,-2l-3,0l0,-5l-4,0l0,-4l-4,0l0,-2l-4,0l0,-2l-4,0l0,-4l-2,0l0,-2l-4,0l0,-2l-3,0l0,-2z" clip-rule="evenodd" fill-rule="evenodd"/>
   <path id="svg_9" fill="white" d="m149,12l-44,0l0,5l-4,0l0,2l-4,0l0,2l-3,0l0,2l-2,0l0,2l-2,0l0,2l-2,0l0,3l-2,0l0,4l-2,0l0,5l-1,0l0,4l-2,0l0,6l-2,0l0,5l-2,0l0,13l-2,0l0,-2l-14,0l0,2l-4,0l0,2l-2,0l0,2l-2,0l0,2l-2,0l0,2l-1,0l0,-2l-6,0l0,-2l-4,0l0,2l-2,0l0,1l-1,0l0,2l-3,0l0,8l4,0l2,0l4,0l6,0l1,0l2,0l2,0l2,0l4,0l14,0l2,0l2,0l2,0l2,0l1,0l2,0l2,0l2,0l2,0l2,0l3,0l4,0l59,0l2,0l2,0l2,0l2,0l1,0l2,0l2,0l8,0l3,0l11,0l2,0l2,0l2,0l1,0l2,0l0,-10l-2,0l0,-7l-1,0l0,-3l-2,0l0,-2l-2,0l0,-2l-2,0l0,-2l-11,0l0,2l-3,0l0,1l-3,0l0,3l-3,0l0,-28l-2,0l0,-5l-2,0l0,-4l-2,0l0,-1l-1,0l0,-2l-2,0l0,-2l-2,0l0,-2l-2,0l0,-2l-2,0l0,-2l-2,0l0,-3l-9,0l0,-1z"/>
   <path id="svg_10" fill="white" d="m279,-10l-19,0l0,4l-3,0l0,2l-2,0l0,3l-3,0l0,4l-2,0l0,11l-5,0l0,2l-2,0l0,2l-2,0l0,1l-2,0l0,10l-5,0l0,2l-2,0l0,7l2,0l0,2l86,0l0,-2l2,0l0,-7l-2,0l0,-2l-7,0l0,-2l-2,0l0,-2l-7,0l0,-6l-2,0l0,-1l-2,0l0,-2l-2,0l0,-2l-2,0l0,-2l-7,0l0,-9l-2,0l0,-4l-3,0l0,-3l-3,0l0,-2l-2,0l0,-4z" clip-rule="evenodd" fill-rule="evenodd"/>
   <path id="svg_11" fill="white" d="m508,25l-7,0l0,2l-2,0l0,2l-2,0l0,3l-8,0l0,2l-2,0l0,2l-3,0l0,4l32,0l0,-4l-1,0l0,-2l-2,0l0,-2l-3,0l0,-3l0,-2l-2,0l0,-2z" clip-rule="evenodd" fill-rule="evenodd"/>
   <path id="svg_13" fill="white" d="m412,96l-6,0l0,2l-2,0l0,3l-2,0l0,3l-8,0l0,2l-2,0l0,2l-3,0l0,4l32,0l0,-4l-1,0l0,-2l-2,0l0,-2l-3,0l0,-3l0,-3l-3,0l0,-2z" clip-rule="evenodd" fill-rule="evenodd"/>
   <path id="svg_14" fill="white" d="m239.344,107.5l9.562,0l0,3.188l3.188,0l0,4.781l3.187,0l0,4.781l12.75,0l0,3.188l3.188,0l0,3.187l4.781,0l0,6.375l-51,0l0,-6.375l1.594,0l0,-3.187l3.187,0l0,-3.188l4.781,0l0,-4.781l0,-4.781l4.782,0l0,-3.188z" clip-rule="evenodd" fill-rule="evenodd"/>
   <path id="svg_26" fill="#AFEBE4" d="m195,313.99985l7,0l0,2l4,0l0,2l5,0l0,2l2,0l0,2l2,0l0,3l2,0l0,6l2,0l0,9l3,0l0,-2l4,0l0,2l2,0l0,5l1,0l0,1l2,0l0,3l-2,0l-1,0l-1,0l-2,0l-6,0l-2,0l-2,0l-2,0l-7,0l-2,0l-2,0l-29,0l-4,0l0,-3l1,0l0,-2l1,0l0,-2l2,0l0,-2l2,0l0,-2l0,-2l-1,0l0,-2l-1,0l0,-2l3,0l0,-4l2,0l0,-2l2,0l0,-2l1,0l0,-2l2,0l0,-2l2,0l0,-2l4,0l0,-2l6,0l0,-2z" clip-rule="evenodd" fill-rule="evenodd"/>
   <path id="svg_28" fill="#F7B334" d="m167.346,76l8.308,0l0,1.0385l-8.308,0l0,-1.0385zm-2.077,1.0385l12.462,0l0,1.0385l-12.462,0l0,-1.0385zm-2.077,1.0386l16.616,0l0,1.0382l2.077,0l0,2.0771l1.038,0l0,16.6153l-1.038,0l0,2.0768l-20.77,0l0,-20.7692l2.077,0l0,-1.0382zm16.616,21.8076l-16.616,0l0,1.0383l2.077,0l0,1.038l12.462,0l0,-1.038l2.077,0l0,-1.0383zm-4.154,2.0763l-8.308,0l0,1.039l8.308,0l0,-1.039zm-15.577,-20.7686l1.038,0l0,16.6153l-1.038,0l0,-2.0771l-1.039,0l0,-2.0767l-1.038,0l0,-8.3077l1.038,0l0,-2.0771l1.039,0l0,-2.0767zm23.885,2.0767l-1.039,0l0,12.4615l1.039,0l0,-12.4615zm1.038,2.0771l-1.038,0l0,8.3077l1.038,0l0,-8.3077z" clip-rule="evenodd" fill-rule="evenodd"/>
   <path id="svg_29" fill="#F7B334" d="m334.154,86l3.692,0l0,0.4615l0.923,0l0,0.4616l0.923,0l0,0.4615l0.923,0l0,0.9231l0.462,0l0,0.9231l0.461,0l0,0.923l0.462,0l0,3.6924l-0.462,0l0,0.923l-0.461,0l0,0.9231l-0.462,0l0,0.9231l-0.923,0l0,0.4615l-0.923,0l0,0.4616l-0.923,0l0,0.4615l-3.692,0l0,-0.4615l-0.923,0l0,-0.4616l-0.923,0l0,-0.4615l-0.923,0l0,-0.9231l-0.462,0l0,-0.9231l-0.461,0l0,-0.923l-0.462,0l0,-3.6924l0.462,0l0,-0.923l0.461,0l0,-0.9231l0.462,0l0,-0.9231l0.923,0l0,-0.4615l0.923,0l0,-0.4616l0.923,0l0,-0.4615z" clip-rule="evenodd" fill-rule="evenodd"/>
   <path id="svg_30" fill="#F7B334" d="m400,-14l8,0l0,1l2,0l0,1l2,0l0,1l2,0l0,2l1,0l0,2l1,0l0,2l1,0l0,8l-1,0l0,2l-1,0l0,2l-1,0l0,2l-2,0l0,1l-2,0l0,1l-2,0l0,1l-8,0l0,-1l-2,0l0,-1l-2,0l0,-1l-2,0l0,-2l-1,0l0,-2l-1,0l0,-2l-1,0l0,-8l1,0l0,-2l1,0l0,-2l1,0l0,-2l2,0l0,-1l2,0l0,-1l2,0l0,-1z" clip-rule="evenodd" fill-rule="evenodd"/>
   <path id="svg_31" fill="#E9530E" d="m242,62l7,0l0,1l1,0l0,1l1,0l0,1l1,0l0,1l1,0l0,7l-1,0l0,1l-1,0l0,1l-1,0l0,1l-1,0l0,1l-7,0l0,-1l-1,0l0,-1l-1,0l0,-1l-1,0l0,-1l-1,0l0,-7l1,0l0,-1l1,0l0,-1l1,0l0,-1l1,0l0,-1z" clip-rule="evenodd" fill-rule="evenodd"/>
   <path id="svg_32" fill="#E9530E" d="m284,101l7,0l0,1l1,0l0,1l1,0l0,1l1,0l0,1l1,0l0,7l-1,0l0,1l-1,0l0,1l-1,0l0,1l-1,0l0,1l-7,0l0,-1l-1,0l0,-1l-1,0l0,-1l-1,0l0,-1l-1,0l0,-7l1,0l0,-1l1,0l0,-1l1,0l0,-1l1,0l0,-1z" clip-rule="evenodd" fill-rule="evenodd"/>
   <path id="svg_33" fill="#E9530E" d="m499,78l7,0l0,1l1,0l0,1l1,0l0,1l1,0l0,1l1,0l0,7l-1,0l0,1l-1,0l0,1l-1,0l0,1l-1,0l0,1l-7,0l0,-1l-1,0l0,-1l-1,0l0,-1l-1,0l0,-1l-1,0l0,-7l1,0l0,-1l1,0l0,-1l1,0l0,-1l1,0l0,-1z" clip-rule="evenodd" fill-rule="evenodd"/>
   <path id="svg_34" fill="#F7B334" d="m-4.65385,60l8.30769,0l0,1.0385l-8.30769,0l0,-1.0385zm-2.07691,1.0387l12.46153,0l0,1.0382l2.07692,0l0,1.0384l-16.61538,0l0,-1.0384l2.07693,0l0,-1.0382zm-4.15384,2.0769l20.76922,0l-0.00001,2.0769l1.03849,0l0,16.6153l-1.03849,0l0.00001,2.077l-2.07693,0l0,1.0381l-16.61538,0l0,-1.0381l-2.07691,0l0,-20.7692zm16.61537,21.8075l-12.46153,0l0,1.0385l2.07691,0l0,1.0382l8.30769,0l0,-1.0382l2.07693,0l0,-1.0385zm-17.65387,-19.7306l1.0385,0l0,16.6153l-1.0385,0l0,-2.0769l-1.0384,0l0,-2.077l-1.0385,0l0,-8.3077l1.0385,0l0,-2.0769l1.0384,0l0,-2.0768zm23.8846,2.0768l-1.0384,0l0,12.4616l1.0384,0l0,-2.077l1.0385,0l0,-8.3077l-1.0385,0l0,-2.0769z" clip-rule="evenodd" fill-rule="evenodd"/>
   <path id="svg_35" fill="#D3F0F1" d="m-2.57697,62.0769l4.15384,0l0,1.0385l-4.15384,0l0,-1.0385zm-2.07692,1.0387l8.30769,0l0,1.0382l2.07692,0l0,1.0384l-12.46154,0l0,-1.0384l2.07693,0l0,-1.0382zm-4.15385,2.0769l16.61539,0l-0.00001,2.0768l1.03846,0l0,12.4616l-1.03846,0l0.00001,2.0769l-2.07693,0l0,1.0382l-12.46154,0l0,-1.0382l-2.07692,0l0,-16.6153zm12.46154,17.6537l-8.30769,0l0,1.0385l2.07692,0l0,1.0382l4.15384,0l0,-1.0382l2.07693,0l0,-1.0385zm-13.50001,-15.5769l1.03846,0l0,12.4616l-1.03846,0l0,-2.077l-1.03849,0l0,-2.0769l-1.0384,0l0,-4.1539l1.0384,0l0,-2.0769l1.03849,0l0,-2.0769zm19.73078,2.0769l-1.03846,0l0,8.3077l1.03846,0l0,-2.0769l1.03843,0l0,-4.1539l-1.03843,0l0,-2.0769z" clip-rule="evenodd" fill-rule="evenodd"/>
   <rect id="svg_36" fill="#AFEBE4" height="1" width="10" y="283" x="54"/>
   <rect id="svg_37" fill="#AFEBE4" height="1" width="5" y="290" x="39"/>
   <rect id="svg_38" fill="#AFEBE4" height="1" width="8" y="306" x="26"/>
   <rect id="svg_39" fill="#AFEBE4" height="1" width="3" y="323" x="74"/>
   <rect id="svg_40" fill="#AFEBE4" height="1" width="1" y="323" x="78"/>
   <rect id="svg_41" fill="#AFEBE4" height="1" width="1" y="329" x="61"/>
   <rect id="svg_42" fill="#AFEBE4" height="1" width="1" y="327" x="58"/>
   <rect id="svg_43" fill="#AFEBE4" height="1" width="1" y="319" x="71"/>
   <rect id="svg_44" fill="#AFEBE4" height="1" width="1" y="318" x="35"/>
   <rect id="svg_45" fill="#AFEBE4" height="1" width="1" y="308" x="48"/>
   <rect id="svg_46" fill="#AFEBE4" height="1" width="1" y="310" x="51"/>
   <rect id="svg_47" fill="#AFEBE4" height="1" width="1" y="303" x="64"/>
   <rect id="svg_48" fill="#AFEBE4" height="1" width="3" y="303" x="91"/>
   <rect id="svg_49" fill="#AFEBE4" height="1" width="1" y="303" x="95"/>
   <rect id="svg_50" fill="#AFEBE4" height="1" width="1" y="307" x="101"/>
   <rect id="svg_51" fill="#AFEBE4" height="1" width="1" y="283" x="66"/>
  </g>
 </g>
</svg>