<?xml version="1.0" encoding="UTF-8" standalone="no"?>
<svg
   xmlns:dc="http://purl.org/dc/elements/1.1/"
   xmlns:cc="http://creativecommons.org/ns#"
   xmlns:rdf="http://www.w3.org/1999/02/22-rdf-syntax-ns#"
   xmlns:svg="http://www.w3.org/2000/svg"
   xmlns="http://www.w3.org/2000/svg"
   id="svg429"
   version="1.1"
   fill="none"
   viewBox="0 0 500 350"
   height="350"
   width="500">
  <metadata
     id="metadata433">
    <rdf:RDF>
      <cc:Work
         rdf:about="">
        <dc:format>image/svg+xml</dc:format>
        <dc:type
           rdf:resource="http://purl.org/dc/dcmitype/StillImage" />
        <dc:title></dc:title>
      </cc:Work>
    </rdf:RDF>
  </metadata>
  <g
     transform="translate(363.36516,-17.541766)"
     id="g422"
     clip-path="url(#clip0)">
    <rect
       style="fill:#148997"
       x="0"
       id="rect314"
       height="6"
       width="500"
       y="344" />
    <rect
       style="fill:#148997"
       x="0"
       id="rect316"
       height="2"
       width="500"
       y="335" />
    <path
       style="clip-rule:evenodd;fill:#148997;fill-rule:evenodd"
       id="path324"
       d="m 221,331 h -2 v 4 h 2 2 v -2 h -2 z" />
    <path
       style="clip-rule:evenodd;fill:#148997;fill-rule:evenodd"
       id="path330"
       d="m 246,331 h -2 v 2 h -2 v 2 h 2 2 z" />
    <rect
       style="fill:#148997"
       id="rect332"
       height="2"
       width="2"
       y="333"
       x="249" />
    <rect
       style="fill:#148997"
       id="rect334"
       height="2"
       width="2"
       y="333"
       x="254" />
    <rect
       style="fill:#148997"
       id="rect336"
       height="2"
       width="2"
       y="333"
       x="272" />
    <rect
       style="fill:#148997"
       id="rect338"
       height="2"
       width="2"
       y="333"
       x="284" />
    <path
       style="clip-rule:evenodd;fill:#148997;fill-rule:evenodd"
       id="path340"
       d="m 295,331 h -2 v 4 h 2 2 v -2 h -2 z" />
    <path
       style="clip-rule:evenodd;fill:#148997;fill-rule:evenodd"
       id="path342"
       d="m 415,331 h -2 v 4 h 2 2 v -2 h -2 z" />
    <rect
       style="fill:#148997"
       id="rect344"
       height="5"
       width="2"
       y="330"
       x="313" />
    <path
       style="clip-rule:evenodd;fill:#148997;fill-rule:evenodd"
       id="path346"
       d="m 320,330 h -2 v 5 h 2 2 v -2 h -2 z" />
    <path
       style="clip-rule:evenodd;fill:#148997;fill-rule:evenodd"
       id="path348"
       d="m 147,330 h -2 v 5 h 2 2 v -2 h -2 z" />
    <path
       style="clip-rule:evenodd;fill:#148997;fill-rule:evenodd"
       id="path350"
       d="m 474,301 h 11 v 2 h 2 v 2 h 5 v 2 h -1 v 3 h 4 v 7 h 6 v 6 h -2 v 2 1 h 5 v 1 h 2 v 5 h -3 v 2 h -2 v 2 h -44 v -2 h -2 v -2 h -1 v -5 h 1 v -4 h 8 v -6 h 2 v -7 h 2 v -3 h 1 v -2 h 4 v -2 h 2 z" />
    <path
       style="clip-rule:evenodd;fill:#148997;fill-rule:evenodd"
       id="path354"
       d="M 74.4615,281 H 51.3846 v 5.769 h -7.6923 v 1.923 h -5.7692 v 7.693 h -3.8462 v 7.692 h -9.6154 v 5.769 h -3.8461 v 3.846 h 1.9231 v 3.846 H 11 v 9.616 h 1.9231 V 331 H 15 v 4 h 88 v -4 h 4.154 v -3.846 H 111 v -9.616 h -3.846 v -3.846 -3.846 h -3.846 V 306 h -3.8465 v -3.846 H 89.8462 V 306 H 86 v -1.923 -7.692 h -3.8462 v -7.693 h -3.8461 v -1.923 h -3.8462 z" />
    <rect
       style="fill:#afebe4"
       id="rect372"
       height="1"
       width="10"
       y="283"
       x="54" />
    <rect
       style="fill:#afebe4"
       id="rect374"
       height="1"
       width="5"
       y="290"
       x="39" />
    <rect
       style="fill:#afebe4"
       id="rect376"
       height="1"
       width="8"
       y="306"
       x="26" />
    <rect
       style="fill:#afebe4"
       id="rect378"
       height="1"
       width="3"
       y="323"
       x="74" />
    <rect
       style="fill:#afebe4"
       id="rect380"
       height="1"
       width="1"
       y="323"
       x="78" />
    <rect
       style="fill:#afebe4"
       id="rect382"
       height="1"
       width="1"
       y="329"
       x="61" />
    <rect
       style="fill:#afebe4"
       id="rect384"
       height="1"
       width="1"
       y="327"
       x="58" />
    <rect
       style="fill:#afebe4"
       id="rect386"
       height="1"
       width="1"
       y="319"
       x="71" />
    <rect
       style="fill:#afebe4"
       id="rect388"
       height="1"
       width="1"
       y="318"
       x="35" />
    <rect
       style="fill:#afebe4"
       id="rect390"
       height="1"
       width="1"
       y="308"
       x="48" />
    <rect
       style="fill:#afebe4"
       id="rect392"
       height="1"
       width="1"
       y="310"
       x="51" />
    <rect
       style="fill:#afebe4"
       id="rect394"
       height="1"
       width="1"
       y="303"
       x="64" />
    <rect
       style="fill:#afebe4"
       id="rect396"
       height="1"
       width="3"
       y="303"
       x="91" />
    <rect
       style="fill:#afebe4"
       id="rect398"
       height="1"
       width="1"
       y="303"
       x="95" />
    <rect
       style="fill:#afebe4"
       id="rect400"
       height="1"
       width="1"
       y="307"
       x="101" />
    <rect
       style="fill:#afebe4"
       id="rect402"
       height="1"
       width="1"
       y="283"
       x="66" />
  </g>
  <defs
     id="defs427">
    <clipPath
       id="clip0">
      <rect
         id="rect424"
         fill="white"
         height="350"
         width="500" />
    </clipPath>
  </defs>
</svg>
