<?xml version="1.0" encoding="UTF-8" standalone="no"?>
<svg
   xmlns:dc="http://purl.org/dc/elements/1.1/"
   xmlns:cc="http://creativecommons.org/ns#"
   xmlns:rdf="http://www.w3.org/1999/02/22-rdf-syntax-ns#"
   xmlns:svg="http://www.w3.org/2000/svg"
   xmlns="http://www.w3.org/2000/svg"
   id="svg992"
   version="1.1"
   fill="none"
   viewBox="0 0 500 350"
   height="350"
   width="500">
  <metadata
     id="metadata996">
    <rdf:RDF>
      <cc:Work
         rdf:about="">
        <dc:format>image/svg+xml</dc:format>
        <dc:type
           rdf:resource="http://purl.org/dc/dcmitype/StillImage" />
        <dc:title></dc:title>
      </cc:Work>
    </rdf:RDF>
  </metadata>
  <g
     id="g985"
     clip-path="url(#clip0)">
    <rect
       id="rect877"
       fill="#148997"
       height="6"
       width="500"
       y="344" />
    <rect
       id="rect879"
       fill="#148997"
       height="2"
       width="500"
       y="335" />
    <path
       id="path887"
       fill="#148997"
       d="M221 331H219V335H221H223V333H221V331Z"
       clip-rule="evenodd"
       fill-rule="evenodd" />
    <path
       id="path893"
       fill="#148997"
       d="M246 331H244V333H242V335H244H246V331Z"
       clip-rule="evenodd"
       fill-rule="evenodd" />
    <rect
       id="rect895"
       fill="#148997"
       height="2"
       width="2"
       y="333"
       x="249" />
    <rect
       id="rect897"
       fill="#148997"
       height="2"
       width="2"
       y="333"
       x="254" />
    <rect
       id="rect899"
       fill="#148997"
       height="2"
       width="2"
       y="333"
       x="272" />
    <rect
       id="rect901"
       fill="#148997"
       height="2"
       width="2"
       y="333"
       x="284" />
    <path
       id="path903"
       fill="#148997"
       d="M295 331H293V335H295H297V333H295V331Z"
       clip-rule="evenodd"
       fill-rule="evenodd" />
    <path
       id="path905"
       fill="#148997"
       d="M415 331H413V335H415H417V333H415V331Z"
       clip-rule="evenodd"
       fill-rule="evenodd" />
    <rect
       id="rect907"
       fill="#148997"
       height="5"
       width="2"
       y="330"
       x="313" />
    <path
       id="path909"
       fill="#148997"
       d="M320 330H318V335H320H322V333H320V330Z"
       clip-rule="evenodd"
       fill-rule="evenodd" />
    <path
       id="path911"
       fill="#148997"
       d="M147 330H145V335H147H149V333H147V330Z"
       clip-rule="evenodd"
       fill-rule="evenodd" />
    <path
       id="path913"
       fill="#148997"
       d="M474 301H485V303H487V305H492V307H491V310H495V317H501V323H499V325V326H504V327H506V332H503V334H501V336H457V334H455V332H454V327H455V323H463V317H465V310H467V307H468V305H472V303H474V301Z"
       clip-rule="evenodd"
       fill-rule="evenodd" />
    <path
       id="path917"
       fill="#148997"
       d="M74.4615 281H51.3846V286.769H43.6923V288.692H37.9231V296.385L34.0769 296.385V304.077H24.4615V309.846H20.6154V313.692H22.5385V317.538H11V327.154H12.9231V331H15V335H103V331H107.154V327.154H111V317.538H107.154V313.692V309.846H103.308V306L99.4615 306V302.154H89.8462V306L86 306V304.077V296.385L82.1538 296.385V288.692H78.3077V286.769H74.4615V281Z"
       clip-rule="evenodd"
       fill-rule="evenodd" />
    <rect
       id="rect935"
       fill="#AFEBE4"
       height="1"
       width="10"
       y="283"
       x="54" />
    <rect
       id="rect937"
       fill="#AFEBE4"
       height="1"
       width="5"
       y="290"
       x="39" />
    <rect
       id="rect939"
       fill="#AFEBE4"
       height="1"
       width="8"
       y="306"
       x="26" />
    <rect
       id="rect941"
       fill="#AFEBE4"
       height="1"
       width="3"
       y="323"
       x="74" />
    <rect
       id="rect943"
       fill="#AFEBE4"
       height="1"
       width="1"
       y="323"
       x="78" />
    <rect
       id="rect945"
       fill="#AFEBE4"
       height="1"
       width="1"
       y="329"
       x="61" />
    <rect
       id="rect947"
       fill="#AFEBE4"
       height="1"
       width="1"
       y="327"
       x="58" />
    <rect
       id="rect949"
       fill="#AFEBE4"
       height="1"
       width="1"
       y="319"
       x="71" />
    <rect
       id="rect951"
       fill="#AFEBE4"
       height="1"
       width="1"
       y="318"
       x="35" />
    <rect
       id="rect953"
       fill="#AFEBE4"
       height="1"
       width="1"
       y="308"
       x="48" />
    <rect
       id="rect955"
       fill="#AFEBE4"
       height="1"
       width="1"
       y="310"
       x="51" />
    <rect
       id="rect957"
       fill="#AFEBE4"
       height="1"
       width="1"
       y="303"
       x="64" />
    <rect
       id="rect959"
       fill="#AFEBE4"
       height="1"
       width="3"
       y="303"
       x="91" />
    <rect
       id="rect961"
       fill="#AFEBE4"
       height="1"
       width="1"
       y="303"
       x="95" />
    <rect
       id="rect963"
       fill="#AFEBE4"
       height="1"
       width="1"
       y="307"
       x="101" />
    <rect
       id="rect965"
       fill="#AFEBE4"
       height="1"
       width="1"
       y="283"
       x="66" />
  </g>
  <defs
     id="defs990">
    <clipPath
       id="clip0">
      <rect
         id="rect987"
         fill="white"
         height="350"
         width="500" />
    </clipPath>
  </defs>
</svg>
