<?xml version="1.0" encoding="UTF-8" standalone="no"?>
<svg
   xmlns:dc="http://purl.org/dc/elements/1.1/"
   xmlns:cc="http://creativecommons.org/ns#"
   xmlns:rdf="http://www.w3.org/1999/02/22-rdf-syntax-ns#"
   xmlns:svg="http://www.w3.org/2000/svg"
   xmlns="http://www.w3.org/2000/svg"
   xmlns:sodipodi="http://sodipodi.sourceforge.net/DTD/sodipodi-0.dtd"
   xmlns:inkscape="http://www.inkscape.org/namespaces/inkscape"
   width="500"
   height="350"
   viewBox="0 0 500 350"
   fill="none"
   version="1.1"
   id="svg992"
   sodipodi:docname="bg.svg"
   inkscape:version="0.92.5 (2060ec1f9f, 2020-04-08)">
  <metadata
     id="metadata996">
    <rdf:RDF>
      <cc:Work
         rdf:about="">
        <dc:format>image/svg+xml</dc:format>
        <dc:type
           rdf:resource="http://purl.org/dc/dcmitype/StillImage" />
        <dc:title></dc:title>
      </cc:Work>
    </rdf:RDF>
  </metadata>
  <sodipodi:namedview
     pagecolor="#ffffff"
     bordercolor="#666666"
     borderopacity="1"
     objecttolerance="10"
     gridtolerance="10"
     guidetolerance="10"
     inkscape:pageopacity="0"
     inkscape:pageshadow="2"
     inkscape:window-width="1872"
     inkscape:window-height="1016"
     id="namedview994"
     showgrid="false"
     inkscape:zoom="4.46"
     inkscape:cx="424.00563"
     inkscape:cy="-5.1461959"
     inkscape:window-x="48"
     inkscape:window-y="27"
     inkscape:window-maximized="1"
     inkscape:current-layer="svg992" />
  <g
     clip-path="url(#clip0)"
     id="g985">
    <rect
       y="344"
       width="500"
       height="6"
       fill="#148997"
       id="rect877" />
    <rect
       y="335"
       width="500"
       height="2"
       fill="#148997"
       id="rect879" />
    <path
       fill-rule="evenodd"
       clip-rule="evenodd"
       d="M221 331H219V335H221H223V333H221V331Z"
       fill="#148997"
       id="path887" />
    <path
       fill-rule="evenodd"
       clip-rule="evenodd"
       d="M246 331H244V333H242V335H244H246V331Z"
       fill="#148997"
       id="path893" />
    <rect
       x="249"
       y="333"
       width="2"
       height="2"
       fill="#148997"
       id="rect895" />
    <rect
       x="254"
       y="333"
       width="2"
       height="2"
       fill="#148997"
       id="rect897" />
    <rect
       x="272"
       y="333"
       width="2"
       height="2"
       fill="#148997"
       id="rect899" />
    <rect
       x="284"
       y="333"
       width="2"
       height="2"
       fill="#148997"
       id="rect901" />
    <path
       fill-rule="evenodd"
       clip-rule="evenodd"
       d="M295 331H293V335H295H297V333H295V331Z"
       fill="#148997"
       id="path903" />
    <path
       fill-rule="evenodd"
       clip-rule="evenodd"
       d="M415 331H413V335H415H417V333H415V331Z"
       fill="#148997"
       id="path905" />
    <rect
       x="313"
       y="330"
       width="2"
       height="5"
       fill="#148997"
       id="rect907" />
    <path
       fill-rule="evenodd"
       clip-rule="evenodd"
       d="M320 330H318V335H320H322V333H320V330Z"
       fill="#148997"
       id="path909" />
    <path
       fill-rule="evenodd"
       clip-rule="evenodd"
       d="M147 330H145V335H147H149V333H147V330Z"
       fill="#148997"
       id="path911" />
    <path
       fill-rule="evenodd"
       clip-rule="evenodd"
       d="M474 301H485V303H487V305H492V307H491V310H495V317H501V323H499V325V326H504V327H506V332H503V334H501V336H457V334H455V332H454V327H455V323H463V317H465V310H467V307H468V305H472V303H474V301Z"
       fill="#148997"
       id="path913" />
    <path
       fill-rule="evenodd"
       clip-rule="evenodd"
       d="M74.4615 281H51.3846V286.769H43.6923V288.692H37.9231V296.385L34.0769 296.385V304.077H24.4615V309.846H20.6154V313.692H22.5385V317.538H11V327.154H12.9231V331H15V335H103V331H107.154V327.154H111V317.538H107.154V313.692V309.846H103.308V306L99.4615 306V302.154H89.8462V306L86 306V304.077V296.385L82.1538 296.385V288.692H78.3077V286.769H74.4615V281Z"
       fill="#148997"
       id="path917" />
    <rect
       x="54"
       y="283"
       width="10"
       height="1"
       fill="#AFEBE4"
       id="rect935" />
    <rect
       x="39"
       y="290"
       width="5"
       height="1"
       fill="#AFEBE4"
       id="rect937" />
    <rect
       x="26"
       y="306"
       width="8"
       height="1"
       fill="#AFEBE4"
       id="rect939" />
    <rect
       x="74"
       y="323"
       width="3"
       height="1"
       fill="#AFEBE4"
       id="rect941" />
    <rect
       x="78"
       y="323"
       width="1"
       height="1"
       fill="#AFEBE4"
       id="rect943" />
    <rect
       x="61"
       y="329"
       width="1"
       height="1"
       fill="#AFEBE4"
       id="rect945" />
    <rect
       x="58"
       y="327"
       width="1"
       height="1"
       fill="#AFEBE4"
       id="rect947" />
    <rect
       x="71"
       y="319"
       width="1"
       height="1"
       fill="#AFEBE4"
       id="rect949" />
    <rect
       x="35"
       y="318"
       width="1"
       height="1"
       fill="#AFEBE4"
       id="rect951" />
    <rect
       x="48"
       y="308"
       width="1"
       height="1"
       fill="#AFEBE4"
       id="rect953" />
    <rect
       x="51"
       y="310"
       width="1"
       height="1"
       fill="#AFEBE4"
       id="rect955" />
    <rect
       x="64"
       y="303"
       width="1"
       height="1"
       fill="#AFEBE4"
       id="rect957" />
    <rect
       x="91"
       y="303"
       width="3"
       height="1"
       fill="#AFEBE4"
       id="rect959" />
    <rect
       x="95"
       y="303"
       width="1"
       height="1"
       fill="#AFEBE4"
       id="rect961" />
    <rect
       x="101"
       y="307"
       width="1"
       height="1"
       fill="#AFEBE4"
       id="rect963" />
    <rect
       x="66"
       y="283"
       width="1"
       height="1"
       fill="#AFEBE4"
       id="rect965" />
  </g>
  <defs
     id="defs990">
    <clipPath
       id="clip0">
      <rect
         width="500"
         height="350"
         fill="white"
         id="rect987" />
    </clipPath>
  </defs>
  <rect
     id="rect1219"
     width="500"
     height="7"
     x="0"
     y="337" />
  <rect
     style="fill:#d1fcf7;fill-opacity:1"
     id="rect5735"
     width="543.76843"
     height="6.8567252"
     x="0"
     y="337"
     ry="0" />
</svg>
