<svg width="126" height="68" viewBox="0 0 126 68" fill="none" xmlns="http://www.w3.org/2000/svg">
<path fill-rule="evenodd" clip-rule="evenodd" d="M79.4532 0H50.5611V7.22302L40.9304 7.22301V9.6307H33.7074V19.2614H89.0839V9.6307H84.2684V7.22301L79.4532 7.22302V0ZM28.892 28.892H16.8537V36.1151L12.0383 36.115V40.9304H120.384V36.115L115.568 36.1151V31.2997L110.753 31.2998V26.4844H98.7146V31.2998L93.8992 31.2997L93.8992 28.892L93.8992 19.2614H28.892V28.892ZM2.4077 62.5995V57.7841H120.384V62.5995L115.183 62.5995V67.6074H5.00796V62.5995L2.4077 62.5995ZM120.384 45.7458V40.9304H14.446V45.7458L0 45.7458V57.7841H125.199V45.7458L120.384 45.7458Z" fill="#148997"/>
<rect x="59.4695" y="1.74341" width="12.5199" height="1.25199" fill="#AFEBE4"/>
<rect x="40.6897" y="10.5073" width="6.25995" height="1.25199" fill="#AFEBE4"/>
<rect x="24.4138" y="30.5393" width="10.0159" height="1.25199" fill="#AFEBE4"/>
<rect x="84.5093" y="51.823" width="3.75597" height="1.25199" fill="#AFEBE4"/>
<rect x="89.5172" y="51.823" width="1.25199" height="1.25199" fill="#AFEBE4"/>
<rect x="68.2334" y="59.335" width="1.25199" height="1.25199" fill="#AFEBE4"/>
<rect x="64.4774" y="56.8311" width="1.25199" height="1.25199" fill="#AFEBE4"/>
<rect x="80.7533" y="46.8149" width="1.25199" height="1.25199" fill="#AFEBE4"/>
<rect x="35.6816" y="45.563" width="1.25199" height="1.25199" fill="#AFEBE4"/>
<rect x="51.9575" y="33.0432" width="1.25199" height="1.25199" fill="#AFEBE4"/>
<rect x="55.7135" y="35.5471" width="1.25199" height="1.25199" fill="#AFEBE4"/>
<rect x="71.9894" y="26.7832" width="1.25199" height="1.25199" fill="#AFEBE4"/>
<rect x="105.793" y="26.7832" width="3.75597" height="1.25199" fill="#AFEBE4"/>
<rect x="110.801" y="26.7832" width="1.25199" height="1.25199" fill="#AFEBE4"/>
<rect x="118.313" y="31.7913" width="1.25199" height="1.25199" fill="#AFEBE4"/>
<rect x="74.4934" y="1.74341" width="1.25199" height="1.25199" fill="#AFEBE4"/>
</svg>
