<?xml version="1.0" encoding="UTF-8" standalone="no"?>
<svg
   xmlns:dc="http://purl.org/dc/elements/1.1/"
   xmlns:cc="http://creativecommons.org/ns#"
   xmlns:rdf="http://www.w3.org/1999/02/22-rdf-syntax-ns#"
   xmlns:svg="http://www.w3.org/2000/svg"
   xmlns="http://www.w3.org/2000/svg"
   xmlns:sodipodi="http://sodipodi.sourceforge.net/DTD/sodipodi-0.dtd"
   xmlns:inkscape="http://www.inkscape.org/namespaces/inkscape"
   width="501"
   height="294"
   viewBox="0 0 501 294"
   fill="none"
   version="1.1"
   id="svg865"
   sodipodi:docname="Bushes_background-1.svg"
   inkscape:version="0.92.5 (2060ec1f9f, 2020-04-08)">
  <metadata
     id="metadata871">
    <rdf:RDF>
      <cc:Work
         rdf:about="">
        <dc:format>image/svg+xml</dc:format>
        <dc:type
           rdf:resource="http://purl.org/dc/dcmitype/StillImage" />
        <dc:title></dc:title>
      </cc:Work>
    </rdf:RDF>
  </metadata>
  <defs
     id="defs869" />
  <sodipodi:namedview
     pagecolor="#ffffff"
     bordercolor="#666666"
     borderopacity="1"
     objecttolerance="10"
     gridtolerance="10"
     guidetolerance="10"
     inkscape:pageopacity="0"
     inkscape:pageshadow="2"
     inkscape:window-width="1872"
     inkscape:window-height="1016"
     id="namedview867"
     showgrid="false"
     inkscape:zoom="1.45"
     inkscape:cx="75.988953"
     inkscape:cy="24.426948"
     inkscape:window-x="48"
     inkscape:window-y="27"
     inkscape:window-maximized="1"
     inkscape:current-layer="svg865" />
  <path
     d="m 581.89068,61.458333 h 15.39489 v 1.581916 h 1.46618 v 1.581917 h 3.66546 v 1.581916 h 5.13162 v 1.581916 h 2.93236 v 1.581916 h 1.46619 v 1.581916 h 2.19926 v -1.581916 h 2.19927 v -1.581916 h 1.4662 v -3.163832 h 0.73308 v 3.163832 1.581916 1.581916 1.581916 7.909581 1.581916 1.581916 h 0.73309 v 1.581916 h -0.73309 v 26.101615 0.79096 68.02239 V 294 H 252 v -113.89796 -52.99419 -1.58191 -1.58192 -1.58192 -1.58191 -1.58192 -1.58192 -1.58191 -1.58192 -1.58191 -1.58192 h 5.13164 v 1.58192 h 12.46253 v 1.58191 h 3.66545 v 1.58192 h 5.86472 v 1.58191 h 5.13163 v 1.58192 h 2.19928 v 1.58192 h 5.13163 v 1.58191 h 2.19927 v 1.58192 h 1.46618 v 1.58192 h 5.86473 v -1.58192 h 1.46617 v -1.58192 h 4.39855 v -2.37287 h 2.19927 v -1.58192 h 1.46618 v -1.58191 h 0.73309 v -2.37288 h 1.46618 v -1.58191 h 1.46618 v -1.58192 h 1.46619 v -1.58192 h 1.46617 v -1.58191 h 1.46619 v -1.58192 h 1.46618 v -1.58191 h 24.92507 v 1.58191 h 13.19562 v 1.58192 h 5.86473 v 1.58191 h 2.19927 v 1.58192 h 2.19928 v 1.58192 h 1.46617 v 1.58191 h 2.19927 v 2.37288 h 1.46618 v 1.58191 h 1.46619 v 1.58192 h 1.46617 v 3.95479 h 1.46618 v 1.58192 h 2.19928 v 1.58191 h 1.46618 v 3.16383 h 1.46618 v 3.16384 h 1.46618 v 5.5367 h 1.46617 v 23.72874 h -2.19926 v 1.58192 h 4.39854 v -1.58192 h 5.13164 v -1.58191 h 20.52652 v 1.58191 h 3.66546 v 1.58192 h 1.46618 v 1.58192 h 2.93235 v 1.58191 h 2.19928 v 1.58192 h 1.46618 v 1.58191 h 1.46618 v 1.58192 h 1.46618 v 3.16383 h 1.46619 v 1.58192 h 2.19926 v 1.58191 h 1.46619 v 1.58192 h 1.46617 v -1.58192 h 1.46619 v -1.58191 h 1.46618 v -1.58192 h 1.46618 v -3.16383 h 1.46617 v -1.58192 h 1.46619 v -1.58191 h 0.73309 v -1.58192 h 0.73309 v -1.58191 h 1.46618 v -3.16384 h 1.46618 v -1.58191 h 1.46619 v -1.58192 h 1.46617 v -1.58191 h 1.46619 v -1.58192 h 1.46618 v -1.58192 h 1.46618 v -1.58191 h 1.46617 v -3.95479 h 2.93237 v -1.58192 h 1.46617 v -1.58192 h 5.13164 v -1.58191 h 1.46618 v -1.58192 h 3.66546 v -2.37287 h 4.39853 v -1.58192 h 2.19927 v -1.58191 h -0.73308 v -3.16384 h -2.19927 v -3.16383 h -2.19928 v -26.10161 h 1.46619 v -2.37288 h 1.46617 v -1.58191 h 1.46619 v -1.58192 h 0.73308 v -2.372874 h 1.46619 v -1.581917 h 0.73309 v -1.581916 h 1.46618 v -1.581916 h 1.46618 v -0.790958 h 2.93237 v -1.581916 h 1.46617 v -1.581916 h 2.93236 v -1.581916 h 2.93236 v -1.581916 h 5.86473 v -1.581916 h 12.46253 v 1.581916 h 7.33091 v 1.581916 h 3.66544 v 1.581916 h 1.46619 v 1.581916 h 1.46618 v 1.581916 h 0.73309 v 0.790958 h 1.46618 v 1.581916 h 1.46619 v 1.581916 h 1.46617 v 1.581917 h 1.46618 v 1.581916 h 1.46619 v 2.372878 h 0.73309 v 1.58191 h 2.19927 v 7.11862 h 1.46617 v -1.58191 h 2.93237 v -1.58192 h 2.93236 v -1.58191 h 4.39855 v -1.58192 h 1.46617 v -1.58192 h 2.93236 v -1.58191 h -1.46617 v -8.700541 h 1.46617 v -1.581916 h 1.46619 v -1.581916 h 1.46618 v -1.581916 h 1.46618 v -1.581916 h 1.46618 v -1.581916 h 1.46618 v -1.581916 h 1.46618 v -1.581916 h 5.13163 v -7.909581 h 2.19927 V 70.94983 h 2.19927 v -1.581916 h 3.66545 v -1.581916 h 2.19928 v -1.581916 h 2.19927 v -1.581916 h 2.19926 v -1.581917 h 1.4662 z"
     id="path863"
     inkscape:connector-curvature="0"
     style="clip-rule:evenodd;fill:#d1fcf7;fill-rule:evenodd;stroke-width:0.76147473" />
  <path
     d="m -76.62654,61.645832 h -15.39489 v 1.581916 h -1.46618 v 1.581917 h -3.66546 v 1.581916 h -5.13162 v 1.581916 h -2.93236 v 1.581916 h -1.46619 v 1.581916 h -2.19926 v -1.581916 h -2.19927 v -1.581916 h -1.4662 v -3.163832 h -0.73308 v 3.163832 1.581916 1.581916 1.581916 7.909581 1.581916 1.581916 h -0.73309 v 1.581916 h 0.73309 v 26.101616 0.79096 68.02239 113.89796 h 366.54519 v -113.89796 -52.99419 -1.58191 -1.58192 -1.58192 -1.58191 -1.58192 -1.58192 -1.58191 -1.58192 -1.58191 -1.58192 h -5.13164 v 1.58192 h -12.46253 v 1.58191 h -3.66545 v 1.58192 h -5.86472 v 1.58191 h -5.13163 v 1.58192 h -2.19928 v 1.58192 h -5.13163 v 1.58191 h -2.19927 v 1.58192 h -1.46618 v 1.58192 h -5.86473 v -1.58192 h -1.46617 v -1.58192 h -4.39855 v -2.37287 h -2.19927 v -1.58192 h -1.46618 v -1.58191 h -0.73309 v -2.37288 h -1.46618 v -1.58191 h -1.46618 v -1.58192 h -1.46619 v -1.58192 h -1.46617 v -1.58191 h -1.46619 v -1.58192 h -1.46618 v -1.58191 h -24.92507 v 1.58191 h -13.19562 v 1.58192 h -5.86473 v 1.58191 h -2.19927 v 1.58192 h -2.19928 v 1.58192 h -1.46617 v 1.58191 h -2.19927 v 2.37288 h -1.46618 v 1.58191 h -1.46619 v 1.58192 h -1.46617 v 3.95479 h -1.46618 v 1.58192 h -2.19928 v 1.58191 h -1.46618 v 3.16383 h -1.46618 v 3.16384 h -1.46618 v 5.5367 h -1.46617 v 23.72874 h 2.19926 v 1.58192 h -4.39854 v -1.58192 h -5.13164 v -1.58191 H 91.25117 v 1.58191 h -3.66546 v 1.58192 h -1.46618 v 1.58192 h -2.93235 v 1.58191 H 80.9879 v 1.58192 h -1.46618 v 1.58191 h -1.46618 v 1.58192 h -1.46618 v 3.16383 h -1.46619 v 1.58192 h -2.19926 v 1.58191 h -1.46619 v 1.58192 h -1.46617 v -1.58192 h -1.46619 v -1.58191 h -1.46618 v -1.58192 H 65.593 v -3.16383 h -1.46617 v -1.58192 h -1.46619 v -1.58191 h -0.73309 v -1.58192 h -0.73309 v -1.58191 h -1.46618 v -3.16384 H 58.2621 v -1.58191 h -1.46619 v -1.58192 h -1.46617 v -1.58191 h -1.46619 v -1.58192 h -1.46618 v -1.58192 h -1.46618 v -1.58191 h -1.46617 v -3.95479 h -2.93237 v -1.58192 h -1.46617 v -1.58192 h -5.13164 v -1.58191 h -1.46618 v -1.58192 H 34.8032 v -2.37287 h -4.39853 v -1.58192 H 28.2054 v -1.58191 h 0.73308 v -3.16384 h 2.19927 v -3.16383 h 2.19928 v -26.10161 h -1.46619 v -2.37288 h -1.46617 v -1.58191 H 28.93848 V 99.61182 H 28.2054 V 97.23894 H 26.73921 V 95.65703 H 26.00612 V 94.07511 H 24.53994 V 92.4932 H 23.07376 V 91.70224 H 20.14139 V 90.12032 H 18.67522 V 88.53841 H 15.74286 V 86.95649 H 12.8105 V 85.374574 H 6.94577 V 83.792658 H -5.51676 v 1.581916 h -7.33091 v 1.581916 h -3.66544 v 1.58192 h -1.46619 v 1.58191 h -1.46618 v 1.58192 h -0.73309 v 0.79096 h -1.46618 v 1.58191 h -1.46619 v 1.58192 h -1.46617 v 1.58191 h -1.46618 v 1.58192 h -1.46619 v 2.37288 h -0.73309 v 1.58191 h -2.19927 v 7.11862 h -1.46617 v -1.58191 h -2.93237 v -1.58192 h -2.93236 v -1.58191 h -4.39855 v -1.58192 h -1.46617 v -1.58192 h -2.93236 v -1.58191 h 1.46617 v -8.70054 h -1.46617 v -1.58192 h -1.46619 v -1.58191 h -1.46618 v -1.58192 h -1.46618 v -1.581916 h -1.46618 v -1.581916 h -1.46618 v -1.581916 h -1.46618 v -1.581916 h -5.13163 v -7.909581 h -2.19927 v -1.581916 h -2.19927 v -1.581916 h -3.66545 v -1.581916 h -2.19928 v -1.581916 h -2.19927 v -1.581916 h -2.19926 v -1.581917 h -1.4662 z"
     id="path863-5"
     inkscape:connector-curvature="0"
     style="clip-rule:evenodd;fill:#d1fcf7;fill-rule:evenodd;stroke-width:0.76147473" />
</svg>
