<?xml version="1.0" encoding="UTF-8" standalone="no"?>
<svg
   xmlns:dc="http://purl.org/dc/elements/1.1/"
   xmlns:cc="http://creativecommons.org/ns#"
   xmlns:rdf="http://www.w3.org/1999/02/22-rdf-syntax-ns#"
   xmlns:svg="http://www.w3.org/2000/svg"
   xmlns="http://www.w3.org/2000/svg"
   xmlns:sodipodi="http://sodipodi.sourceforge.net/DTD/sodipodi-0.dtd"
   xmlns:inkscape="http://www.inkscape.org/namespaces/inkscape"
   width="501"
   height="294"
   viewBox="0 0 501 294"
   fill="none"
   version="1.1"
   id="svg865"
   sodipodi:docname="Bushes_backgroun-1.svg"
   inkscape:version="0.92.5 (2060ec1f9f, 2020-04-08)">
  <metadata
     id="metadata871">
    <rdf:RDF>
      <cc:Work
         rdf:about="">
        <dc:format>image/svg+xml</dc:format>
        <dc:type
           rdf:resource="http://purl.org/dc/dcmitype/StillImage" />
        <dc:title></dc:title>
      </cc:Work>
    </rdf:RDF>
  </metadata>
  <defs
     id="defs869" />
  <sodipodi:namedview
     pagecolor="#ffffff"
     bordercolor="#666666"
     borderopacity="1"
     objecttolerance="10"
     gridtolerance="10"
     guidetolerance="10"
     inkscape:pageopacity="0"
     inkscape:pageshadow="2"
     inkscape:window-width="1872"
     inkscape:window-height="1016"
     id="namedview867"
     showgrid="false"
     inkscape:zoom="1.4182101"
     inkscape:cx="280.72624"
     inkscape:cy="147"
     inkscape:window-x="48"
     inkscape:window-y="27"
     inkscape:window-maximized="1"
     inkscape:current-layer="svg865" />
  <path
     d="m 705.39367,0 h 21.15837 v 2 h 2.01508 v 2 h 5.03771 v 2 h 7.05279 v 2 h 4.03016 v 2 h 2.01509 v 2 h 3.02262 v -2 h 3.02262 V 8 h 2.01509 V 4 h 1.00754 v 4 2 2 2 10 2 2 h 1.00754 v 2 h -1.00754 v 33 1 86 144 H 252 V 150 83 81 79 77 75 73 71 69 67 65 63 h 7.05279 v 2 h 17.1282 v 2 h 5.03771 v 2 h 8.06033 v 2 h 7.05279 v 2 h 3.02263 v 2 h 7.05279 v 2 h 3.02262 v 2 h 2.01509 v 2 h 8.06033 v -2 h 2.01508 v -2 h 6.04525 v -3 h 3.02262 v -2 h 2.01509 v -2 h 1.00754 v -3 h 2.01508 v -2 h 2.01509 v -2 h 2.01508 v -2 h 2.01508 v -2 h 2.01509 v -2 h 2.01508 v -2 h 34.25641 v 2 h 18.13574 v 2 h 8.06034 v 2 h 3.02262 v 2 h 3.02263 v 2 h 2.01508 v 2 h 3.02262 v 3 h 2.01509 v 2 h 2.01508 v 2 h 2.01508 v 5 h 2.01508 v 2 h 3.02263 v 2 h 2.01508 v 4 h 2.01508 v 4 h 2.01509 v 7 h 2.01508 v 30 h -3.02262 v 2 h 6.04524 v -2 h 7.0528 v -2 h 28.21116 v 2 h 5.0377 v 2 h 2.01509 v 2 h 4.03016 v 2 h 3.02263 v 2 h 2.01508 v 2 h 2.01508 v 2 h 2.01509 v 4 h 2.01508 v 2 h 3.02262 v 2 h 2.01509 v 2 h 2.01508 v -2 h 2.01508 v -2 h 2.01509 v -2 h 2.01508 v -4 h 2.01508 v -2 h 2.01508 v -2 h 1.00755 v -2 h 1.00754 v -2 h 2.01508 v -4 h 2.01508 v -2 h 2.01509 v -2 h 2.01508 v -2 h 2.01508 v -2 h 2.01509 v -2 h 2.01508 v -2 h 2.01508 v -5 h 4.03017 v -2 h 2.01508 v -2 h 7.05279 v -2 h 2.01508 v -2 h 5.03771 v -3 h 6.04525 v -2 h 3.02262 v -2 h -1.00754 v -4 h -3.02262 v -4 h -3.02263 V 55 h 2.01509 v -3 h 2.01508 v -2 h 2.01508 v -2 h 1.00754 v -3 h 2.01509 v -2 h 1.00754 v -2 h 2.01508 v -2 h 2.01508 v -1 h 4.03017 v -2 h 2.01508 v -2 h 4.03017 v -2 h 4.03016 v -2 h 8.06034 v -2 h 17.1282 v 2 h 10.07542 v 2 h 5.0377 v 2 h 2.01509 v 2 h 2.01508 v 2 h 1.00754 v 1 h 2.01508 v 2 h 2.01509 v 2 h 2.01508 v 2 h 2.01508 v 2 h 2.01509 v 3 h 1.00754 v 2 h 3.02262 v 9 h 2.01508 v -2 h 4.03017 v -2 h 4.03017 v -2 h 6.04525 v -2 h 2.01508 v -2 h 4.03016 v -2 h -2.01508 V 38 h 2.01508 v -2 h 2.01509 v -2 h 2.01508 v -2 h 2.01508 v -2 h 2.01509 v -2 h 2.01508 v -2 h 2.01508 v -2 h 7.05279 V 14 h 3.02263 v -2 h 3.02262 v -2 h 5.03771 V 8 h 3.02262 V 6 h 3.02263 V 4 h 3.02262 V 2 h 2.01509 z"
     id="path863"
     inkscape:connector-curvature="0"
     style="clip-rule:evenodd;fill:#d1fcf7;fill-rule:evenodd;stroke-width:1.00376368" />
  <path
     d="m -200.6086,-0.624434 h -21.15837 v 2 h -2.01508 v 2 h -5.03771 v 2 h -7.05279 v 2 h -4.03016 v 2 h -2.01509 v 2 h -3.02262 v -2 h -3.02262 v -2 h -2.01509 v -4 h -1.00754 v 4 2 2 2 10 2 2 h -1.00754 v 2 h 1.00754 v 33 1 86.000004 144 h 503.77074 v -144 -67.000004 -2 -2 -2 -2 -2 -2 -2 -2 -2 -2 h -7.05279 v 2 h -17.1282 v 2 h -5.03771 v 2 h -8.06033 v 2 h -7.05279 v 2 h -3.02263 v 2 h -7.05279 v 2 h -3.02262 v 2 h -2.01508 v 2 h -8.06034 v -2 h -2.01508 v -2 h -6.04525 v -3 h -3.02262 v -2 h -2.01509 v -2 h -1.00754 v -3 h -2.01508 v -2 h -2.01508 v -2 h -2.01509 v -2 h -2.01508 v -2 h -2.01508 v -2 h -2.01509 v -2 H 124.8273 v 2 h -18.13574 v 2 h -8.06034 v 2 H 95.6086 v 2 h -3.02263 v 2 h -2.01508 v 2 h -3.02262 v 3 h -2.01509 v 2 H 83.5181 v 2 h -2.01508 v 5 h -2.01508 v 2 h -3.02263 v 2 h -2.01508 v 4.000004 h -2.01508 v 4 h -2.01509 v 7 h -2.01508 v 30 h 3.02262 v 2 h -6.04524 v -2 h -7.0528 v -2 H 30.1184 v 2 h -5.0377 v 2 h -2.01509 v 2 h -4.03016 v 2 h -3.02263 v 2 h -2.01508 v 2 h -2.01508 v 2 H 9.96757 v 4 H 7.95249 v 2 H 4.92987 v 2 H 2.91478 v 2 H 0.8997 v -2 h -2.01508 v -2 h -2.01509 v -2 h -2.01508 v -4 h -2.01508 v -2 h -2.01508 v -2 h -1.00755 v -2 h -1.00754 v -2 h -2.01508 v -4 h -2.01508 v -2 h -2.01509 v -2 h -2.01508 v -2 h -2.01508 v -2 h -2.01509 v -2 h -2.01508 v -2 h -2.01508 v -5 h -4.03017 v -2 h -2.01508 v -2 h -7.05279 v -2 h -2.01508 v -2 h -5.03771 v -3 h -6.04525 v -2 h -3.02262 v -2 h 1.00754 v -4 H -52.5 v -4 h 3.02263 V 54.375566 h -2.01509 v -3 h -2.01508 v -2 h -2.01508 v -2 h -1.00754 v -3 h -2.01509 v -2 h -1.00754 v -2 h -2.01508 v -2 h -2.01508 v -1 h -4.03017 v -2 h -2.01508 v -2 h -4.03017 v -2 h -4.03016 v -2 h -8.06034 v -2 h -17.1282 v 2 h -10.07542 v 2 h -5.0377 v 2 h -2.01509 v 2 h -2.01508 v 2 h -1.00754 v 1 h -2.01508 v 2 h -2.01509 v 2 h -2.01508 v 2 h -2.01508 v 2 h -2.01509 v 3 h -1.00754 v 2 h -3.02262 v 9 h -2.01508 v -2 h -4.03017 v -2 h -4.03017 v -2 h -6.04525 v -2 h -2.01508 v -2 h -4.03016 v -2 h 2.01508 v -11 h -2.01508 v -2 h -2.01509 v -2 h -2.01508 v -2 h -2.01508 v -2 h -2.01509 v -2 h -2.01508 v -2 h -2.01508 v -2 h -7.05279 v -10 h -3.02263 v -2 h -3.02262 v -2 h -5.03771 v -2 h -3.02262 v -2 h -3.02263 v -2 h -3.02262 v -2 h -2.01509 z"
     id="path863-6"
     inkscape:connector-curvature="0"
     style="clip-rule:evenodd;fill:#d1fcf7;fill-rule:evenodd;stroke-width:1.00376368" />
</svg>
