<svg width="231" height="164" viewBox="0 0 231 164" fill="none" xmlns="http://www.w3.org/2000/svg">
<path fill-rule="evenodd" clip-rule="evenodd" d="M59.3077 0H32.125V2.47115H27.1827V4.94231H22.2404V7.41346L19.7693 7.41346V12.3558H16.0625V14.8269H13.5914V17.2981H11.1202V22.2404L8.64907 22.2404V28.4183H7.4135V30.8894H4.94234V33.3606H2.47119V35.8317H3.50475e-05L0 122.322V163.25H198.928V122.322L195.221 122.322V117.38H192.75V108.731H181.63V106.26H184.101V103.788H187.808V101.317H190.279V98.8462H192.75V87.726H191.514V76.6058H186.572V74.1346H182.865V71.6635H179.159V69.1923H153.212V71.6635H149.505V74.1346V76.6058H148.269V80.3125H128.5V77.8413H124.793V75.3702H122.322V72.899H116.144V71.6635H118.615V69.1923H121.087V66.7212H126.029V59.3077V54.3654H121.087V49.4231H116.144V44.4808L111.202 44.4808V39.5385H102.553V35.8317H98.8462V33.3606H96.375V30.8894H93.9039V28.4183H90.1972V22.2404L85.2548 22.2404V17.2981H80.3125V14.8269H75.3702V12.3558H71V7.41346L67.9568 7.41346V4.94231H63.0145V2.47115H59.3077V0Z" fill="#AFEBE4"/>
<path fill-rule="evenodd" clip-rule="evenodd" d="M194.776 128.25H201.776V130.25H205.776V132.25H210.776V134.25H212.776V136.25H214.776V139.25H216.776V145.25H218.776V154.25H221.776V152.25H225.776V154.25H227.776V159.25H228.776V160.25H230.776V163.25H228.776H227.776H226.776H224.776H218.776H216.776H214.776H212.776H205.776H203.776H201.776H172.776H168.776V160.25H169.776V158.25H170.776V156.25H172.776V154.25H174.776V152.25V150.25H173.776V148.25H172.776V146.25H175.776V142.25H177.776V140.25H179.776V138.25H180.776V136.25H182.776V134.25H184.776V132.25H188.776V130.25H194.776V128.25Z" fill="#AFEBE4"/>
</svg>
