<svg width="62" height="53" viewBox="0 0 62 53" fill="none" xmlns="http://www.w3.org/2000/svg">
<mask id="path-1-inside-1" fill="white">
<path fill-rule="evenodd" clip-rule="evenodd" d="M15 15H9V28C9 41.8071 20.1929 53 34 53H62V47H35C23.9543 47 15 38.0457 15 27V15Z"/>
</mask>
<path fill-rule="evenodd" clip-rule="evenodd" d="M15 15H9V28C9 41.8071 20.1929 53 34 53H62V47H35C23.9543 47 15 38.0457 15 27V15Z" fill="white"/>
<path d="M9 15V14H8V15H9ZM15 15H16V14H15V15ZM62 53V54H63V53H62ZM62 47H63V46H62V47ZM9 16H15V14H9V16ZM10 28V15H8V28H10ZM34 52C20.7452 52 10 41.2548 10 28H8C8 42.3594 19.6406 54 34 54V52ZM62 52H34V54H62V52ZM61 47V53H63V47H61ZM62 46H35V48H62V46ZM35 46C24.5066 46 16 37.4934 16 27H14C14 38.598 23.402 48 35 48V46ZM16 27V15H14V27H16Z" fill="#202F3E" mask="url(#path-1-inside-1)"/>
<rect x="9" y="18" width="5" height="1" fill="#202F3E"/>
<rect x="9" y="21" width="5" height="1" fill="#202F3E"/>
<rect x="9" y="24" width="5" height="1" fill="#202F3E"/>
<rect x="9" y="27" width="6" height="1" fill="#202F3E"/>
<rect x="10" y="30" width="5" height="1" fill="#202F3E"/>
<path d="M10 33.5L15.5 33L16 34L10.5 34.5L10 33.5Z" fill="#202F3E"/>
<path d="M11 37L16.5 36L17 37L11.5 38L11 37Z" fill="#202F3E"/>
<path d="M12.9993 39.9873L17.8278 38.689L18.5703 39.5249L13.2589 40.953L12.9993 39.9873Z" fill="#202F3E"/>
<path d="M15 43.3103L19.5375 41.21L20.4113 41.9075L15.4201 44.2178L15 43.3103Z" fill="#202F3E"/>
<path d="M18 46.4539L22.3497 43.314L23.37 43.8108L18.5853 47.2647L18 46.4539Z" fill="#202F3E"/>
<path d="M22 49.6466L25.3069 45.4224L26.425 45.6164L22.7874 50.263L22 49.6466Z" fill="#202F3E"/>
<rect x="32" y="47" width="1" height="5" fill="#202F3E"/>
<rect x="36" y="47" width="1" height="5" fill="#202F3E"/>
<rect x="40" y="47" width="1" height="5" fill="#202F3E"/>
<rect x="44" y="47" width="1" height="5" fill="#202F3E"/>
<rect x="48" y="47" width="1" height="5" fill="#202F3E"/>
<rect x="52" y="47" width="1" height="5" fill="#202F3E"/>
<rect x="56" y="47" width="1" height="5" fill="#202F3E"/>
<path d="M28.9317 46L29.5686 46.8654L27.8463 51.5327L27 51L28.9317 46Z" fill="#202F3E"/>
<rect width="1" height="9" fill="#202F3E"/>
<rect x="20" width="2" height="2" fill="#202F3E"/>
<rect x="1" width="5" height="5" fill="#202F3E"/>
<rect x="18" width="2" height="5" fill="#202F3E"/>
<rect x="5" y="4" width="13" height="2" fill="#202F3E"/>
<rect x="22" width="2" height="9" fill="#202F3E"/>
<rect x="3" y="11" width="18" height="2" fill="#202F3E"/>
<rect x="9" y="13" width="6" height="2" fill="#202F3E"/>
<rect x="1" y="1" width="4" height="7" fill="#F9A92B"/>
<rect x="19" y="1" width="4" height="7" fill="#F9A92B"/>
<rect x="2" y="5" width="20" height="4" fill="#F9A92B"/>
<rect x="2" y="9" width="20" height="1" fill="#F9A92B"/>
<rect x="3" y="10" width="18" height="1" fill="#F9A92B"/>
<rect x="4" y="11" width="16" height="1" fill="#F9A92B"/>
<rect x="1" y="8" width="1" height="3" fill="#202F3E"/>
<rect x="2" y="10" width="1" height="2" fill="#202F3E"/>
<rect x="21" y="10" width="1" height="2" fill="#202F3E"/>
<rect x="22" y="9" width="1" height="2" fill="#202F3E"/>
</svg>
