<svg width="200" height="70" xmlns="http://www.w3.org/2000/svg">
 <defs>
  <clipPath id="clip0">
   <rect id="svg_1" fill="white" height="350" width="500"/>
  </clipPath>
 </defs>
 <g>
  <title>background</title>
  <rect fill="none" id="canvas_background" height="72" width="202" y="-1" x="-1"/>
 </g>
 <g>
  <title>Layer 1</title>
  <g id="svg_2" clip-path="url(#clip0)">
   <path id="svg_10" fill="white" d="m279,-10l-19,0l0,4l-3,0l0,2l-2,0l0,3l-3,0l0,4l-2,0l0,11l-5,0l0,2l-2,0l0,2l-2,0l0,1l-2,0l0,10l-5,0l0,2l-2,0l0,7l2,0l0,2l86,0l0,-2l2,0l0,-7l-2,0l0,-2l-7,0l0,-2l-2,0l0,-2l-7,0l0,-6l-2,0l0,-1l-2,0l0,-2l-2,0l0,-2l-2,0l0,-2l-7,0l0,-9l-2,0l0,-4l-3,0l0,-3l-3,0l0,-2l-2,0l0,-4z" clip-rule="evenodd" fill-rule="evenodd"/>
   <path id="svg_11" fill="white" d="m508,25l-7,0l0,2l-2,0l0,2l-2,0l0,3l-8,0l0,2l-2,0l0,2l-3,0l0,4l32,0l0,-4l-1,0l0,-2l-2,0l0,-2l-3,0l0,-3l0,-2l-2,0l0,-2z" clip-rule="evenodd" fill-rule="evenodd"/>
   <path id="svg_13" fill="white" d="m412,96l-6,0l0,2l-2,0l0,3l-2,0l0,3l-8,0l0,2l-2,0l0,2l-3,0l0,4l32,0l0,-4l-1,0l0,-2l-2,0l0,-2l-3,0l0,-3l0,-3l-3,0l0,-2z" clip-rule="evenodd" fill-rule="evenodd"/>
   <path id="svg_14" fill="white" d="m239.344,107.5l9.562,0l0,3.188l3.188,0l0,4.781l3.187,0l0,4.781l12.75,0l0,3.188l3.188,0l0,3.187l4.781,0l0,6.375l-51,0l0,-6.375l1.594,0l0,-3.187l3.187,0l0,-3.188l4.781,0l0,-4.781l0,-4.781l4.782,0l0,-3.188z" clip-rule="evenodd" fill-rule="evenodd"/>
   <path id="svg_21" fill="#148997" d="m415,331l-2,0l0,4l2,0l2,0l0,-2l-2,0l0,-2z" clip-rule="evenodd" fill-rule="evenodd"/>
   <path id="svg_25" fill="#148997" d="m474,301l11,0l0,2l2,0l0,2l5,0l0,2l-1,0l0,3l4,0l0,7l6,0l0,6l-2,0l0,2l0,1l5,0l0,1l2,0l0,5l-3,0l0,2l-2,0l0,2l-44,0l0,-2l-2,0l0,-2l-1,0l0,-5l1,0l0,-4l8,0l0,-6l2,0l0,-7l2,0l0,-3l1,0l0,-2l4,0l0,-2l2,0l0,-2z" clip-rule="evenodd" fill-rule="evenodd"/>
   <path id="svg_29" fill="#F7B334" d="m334.154,86l3.692,0l0,0.4615l0.923,0l0,0.4616l0.923,0l0,0.4615l0.923,0l0,0.9231l0.462,0l0,0.9231l0.461,0l0,0.923l0.462,0l0,3.6924l-0.462,0l0,0.923l-0.461,0l0,0.9231l-0.462,0l0,0.9231l-0.923,0l0,0.4615l-0.923,0l0,0.4616l-0.923,0l0,0.4615l-3.692,0l0,-0.4615l-0.923,0l0,-0.4616l-0.923,0l0,-0.4615l-0.923,0l0,-0.9231l-0.462,0l0,-0.9231l-0.461,0l0,-0.923l-0.462,0l0,-3.6924l0.462,0l0,-0.923l0.461,0l0,-0.9231l0.462,0l0,-0.9231l0.923,0l0,-0.4615l0.923,0l0,-0.4616l0.923,0l0,-0.4615z" clip-rule="evenodd" fill-rule="evenodd"/>
   <path id="svg_30" fill="#F7B334" d="m400,-14l8,0l0,1l2,0l0,1l2,0l0,1l2,0l0,2l1,0l0,2l1,0l0,2l1,0l0,8l-1,0l0,2l-1,0l0,2l-1,0l0,2l-2,0l0,1l-2,0l0,1l-2,0l0,1l-8,0l0,-1l-2,0l0,-1l-2,0l0,-1l-2,0l0,-2l-1,0l0,-2l-1,0l0,-2l-1,0l0,-8l1,0l0,-2l1,0l0,-2l1,0l0,-2l2,0l0,-1l2,0l0,-1l2,0l0,-1z" clip-rule="evenodd" fill-rule="evenodd"/>
   <path id="svg_31" fill="#E9530E" d="m242,62l7,0l0,1l1,0l0,1l1,0l0,1l1,0l0,1l1,0l0,7l-1,0l0,1l-1,0l0,1l-1,0l0,1l-1,0l0,1l-7,0l0,-1l-1,0l0,-1l-1,0l0,-1l-1,0l0,-1l-1,0l0,-7l1,0l0,-1l1,0l0,-1l1,0l0,-1l1,0l0,-1z" clip-rule="evenodd" fill-rule="evenodd"/>
   <path id="svg_32" fill="#E9530E" d="m284,101l7,0l0,1l1,0l0,1l1,0l0,1l1,0l0,1l1,0l0,7l-1,0l0,1l-1,0l0,1l-1,0l0,1l-1,0l0,1l-7,0l0,-1l-1,0l0,-1l-1,0l0,-1l-1,0l0,-1l-1,0l0,-7l1,0l0,-1l1,0l0,-1l1,0l0,-1l1,0l0,-1z" clip-rule="evenodd" fill-rule="evenodd"/>
   <path id="svg_33" fill="#E9530E" d="m499,78l7,0l0,1l1,0l0,1l1,0l0,1l1,0l0,1l1,0l0,7l-1,0l0,1l-1,0l0,1l-1,0l0,1l-1,0l0,1l-7,0l0,-1l-1,0l0,-1l-1,0l0,-1l-1,0l0,-1l-1,0l0,-7l1,0l0,-1l1,0l0,-1l1,0l0,-1l1,0l0,-1z" clip-rule="evenodd" fill-rule="evenodd"/>
   <path id="svg_52" fill="#263746" d="m96.9837,33.1053c-1.8209,0 -3.2372,0.6315 -4.35,1.7894l-0.607,-1.4736l-3.743,0l0,13.7894l4.7547,0l0,-7.3684c0,-1.6842 1.0116,-2.7368 2.4279,-2.7368c1.2139,0 2.1244,0.9473 2.1244,2.2105l0,7.8947l4.6533,0l0,-8.7368c0,-1.579 -0.506,-2.8421 -1.517,-3.8948c-0.9107,-1.0526 -2.2258,-1.4736 -3.7433,-1.4736zm-15.9837,-6.1053l4.7547,0l0,4.9474l-4.7547,0l0,-4.9474zm0,6.4211l4.7547,0l0,13.7894l-4.7547,0l0,-13.7894zm85.28,1.6842c-1.113,-1.3685 -2.63,-2 -4.451,-2c-1.619,0 -2.934,0.5263 -3.945,1.5789l-0.607,-1.2631l-3.743,0l0,19.5789l4.754,0l0,-6.7368c1.012,0.8421 2.226,1.2631 3.541,1.2631c1.821,0 3.237,-0.6316 4.451,-2c1.113,-1.3684 1.72,-3.0526 1.72,-5.2631c0,-2.1053 -0.607,-3.7895 -1.72,-5.1579zm-5.665,8.6315c-1.416,0 -2.428,-1.1579 -2.428,-2.6315l0,-1.4737c0,-1.579 1.012,-2.6316 2.428,-2.6316c1.518,0 2.63,1.3684 2.63,3.3684c0,1.8948 -1.112,3.3684 -2.63,3.3684zm-11.937,-16.7368c-1.518,0 -2.63,1.1579 -2.63,2.8421c0,1.579 1.112,2.7368 2.63,2.7368c1.619,0 2.731,-1.1578 2.731,-2.7368c-0.101,-1.6842 -1.112,-2.8421 -2.731,-2.8421zm-2.428,6.4211l4.755,0l0,13.7894l-4.755,0l0,-13.7894zm-19.626,1.6842c-1.416,-1.3685 -3.237,-2 -5.462,-2c-2.226,0 -4.047,0.6315 -5.463,2c-1.416,1.3684 -2.125,3.0526 -2.125,5.2631c0,2.1053 0.709,3.8948 2.125,5.2632c1.416,1.3684 3.237,2 5.463,2c2.225,0 4.046,-0.6316 5.462,-2c1.417,-1.3684 2.125,-3.0527 2.125,-5.2632c0,-2.2105 -0.708,-3.8947 -2.125,-5.2631zm-5.462,8.6315c-1.619,0 -2.732,-1.4736 -2.732,-3.4736c0,-2 1.113,-3.4737 2.732,-3.4737c1.618,0 2.731,1.4737 2.731,3.4737c0,2.1052 -1.113,3.4736 -2.731,3.4736zm-9.51,-12.6315c0.405,0 0.911,0.1052 1.518,0.2105l0.607,-3.579c-1.113,-0.3157 -2.226,-0.421 -3.339,-0.421c-1.517,0 -2.63,0.421 -3.641,1.3684c-0.911,0.8421 -1.417,2.1053 -1.417,3.579l0,1.2631l-2.225,0l0,3.6842l2.225,0l0,10.1053l4.755,0l0,-10.1053l2.731,0l0,-3.6842l-2.731,0l0,-0.7368c0.101,-1.0527 0.708,-1.6842 1.517,-1.6842z"/>
   <path id="svg_53" fill="#263746" d="m142.639,34.987c-1.105,-1.3059 -2.612,-1.9087 -4.42,-1.9087c-1.407,0 -2.512,0.4018 -3.516,1.2055l0,-6.5299l-4.722,0l0,18.7861l3.717,0l0.603,-1.2055c1.004,1.0046 2.31,1.5069 3.918,1.5069c1.808,0 3.214,-0.6028 4.42,-1.9088c1.105,-1.306 1.708,-2.9133 1.708,-5.023c0,-2.0092 -0.502,-3.6166 -1.708,-4.9226zm-5.626,8.2378c-1.406,0 -2.411,-1.1051 -2.411,-2.5115l0,-1.4065c0,-1.5069 1.005,-2.5115 2.411,-2.5115c1.507,0 2.612,1.306 2.612,3.2148c0,1.8082 -1.105,3.2147 -2.612,3.2147z"/>
   <path id="svg_54" fill="black" d="m55.7178,34.4846l0,5.8267c0,0.7033 -0.5023,1.2056 -1.2055,1.2056l-5.9271,0c-0.7033,0 -1.2056,-0.5023 -1.2056,-1.2056l0,-5.8267c0,-0.7032 0.5023,-1.2055 1.2056,-1.2055l5.9271,0c0.6028,0 1.2055,0.6028 1.2055,1.2055z"/>
   <path id="svg_55" fill="black" d="m61.645,27.352c-1.7078,-1.7078 -5.6258,-2.7124 -10.046,-2.7124c-4.4203,0 -8.4387,1.105 -10.0461,2.7124c-1.7078,1.7078 -2.7124,5.6258 -2.7124,10.046c0,4.4203 1.1051,8.4387 2.7124,10.046c1.7079,1.7079 5.6258,2.7125 10.0461,2.7125c4.4202,0 8.4386,-1.1051 10.046,-2.7125c0.8037,-0.8036 1.5069,-2.2101 2.0092,-4.0184c0.5023,-1.7078 0.7032,-3.8175 0.7032,-6.128c0,-4.3198 -1.105,-8.2378 -2.7124,-9.9456zm-3.918,16.2746c-0.4018,0.3013 -1.4064,1.4064 -6.2285,1.4064c-4.8221,0 -5.8267,-1.1051 -6.2285,-1.4064c-0.3014,-0.3014 -1.4065,-1.4065 -1.4065,-6.2286c0,-4.8221 1.1051,-5.8267 1.4065,-6.2285c0.3013,-0.3014 1.4064,-1.4065 6.2285,-1.4065c4.8221,0 5.8267,1.0046 6.2285,1.4065c0.3014,0.3014 1.4065,1.4064 1.4065,6.2285c0,4.8221 -1.1051,5.8267 -1.4065,6.2286z"/>
   <path id="svg_56" fill="black" d="m55.7178,34.4846l0,5.8267c0,0.7033 -0.5023,1.2056 -1.2055,1.2056l-5.9271,0c-0.7033,0 -1.2056,-0.5023 -1.2056,-1.2056l0,-5.8267c0,-0.7032 0.5023,-1.2055 1.2056,-1.2055l5.9271,0c0.6028,0 1.2055,0.6028 1.2055,1.2055z"/>
   <path id="svg_57" fill="black" d="m55.7178,34.4846l0,5.8267c0,0.7033 -0.5023,1.2056 -1.2055,1.2056l-5.9271,0c-0.7033,0 -1.2056,-0.5023 -1.2056,-1.2056l0,-5.8267c0,-0.7032 0.5023,-1.2055 1.2056,-1.2055l5.9271,0c0.6028,0 1.2055,0.6028 1.2055,1.2055z"/>
   <path id="svg_58" fill="#E9530E" d="m55.7178,34.4846l0,5.8267c0,0.7033 -0.5023,1.2056 -1.2055,1.2056l-5.9271,0c-0.7033,0 -1.2056,-0.5023 -1.2056,-1.2056l0,-5.8267c0,-0.7032 0.5023,-1.2055 1.2056,-1.2055l5.9271,0c0.6028,0 1.2055,0.6028 1.2055,1.2055z"/>
   <path id="svg_59" fill="#E9530E" d="m61.645,27.352c-1.7078,-1.7078 -5.6258,-2.7124 -10.046,-2.7124c-4.4203,0 -8.4387,1.105 -10.0461,2.7124c-1.7078,1.7078 -2.7124,5.6258 -2.7124,10.046c0,4.4203 1.1051,8.4387 2.7124,10.046c1.7079,1.7079 5.6258,2.7125 10.0461,2.7125c4.4202,0 8.4386,-1.1051 10.046,-2.7125c0.8037,-0.8036 1.5069,-2.2101 2.0092,-4.0184c0.5023,-1.7078 0.7032,-3.8175 0.7032,-6.128c0,-4.3198 -1.105,-8.2378 -2.7124,-9.9456zm-3.918,16.2746c-0.4018,0.3013 -1.4064,1.4064 -6.2285,1.4064c-4.8221,0 -5.8267,-1.1051 -6.2285,-1.4064c-0.3014,-0.3014 -1.4065,-1.4065 -1.4065,-6.2286c0,-4.8221 1.1051,-5.8267 1.4065,-6.2285c0.3013,-0.3014 1.4064,-1.4065 6.2285,-1.4065c4.8221,0 5.8267,1.0046 6.2285,1.4065c0.3014,0.3014 1.4065,1.4064 1.4065,6.2285c0,4.8221 -1.1051,5.8267 -1.4065,6.2286z"/>
   <path id="svg_60" fill="#E9530E" d="m51.4985,16c-11.8543,0 -21.4985,9.6442 -21.4985,21.4985c0,11.7539 9.4433,21.2976 21.1971,21.4985c12.0553,0.2009 21.9004,-9.7446 21.7999,-21.7999c-0.2009,-11.7538 -9.7446,-21.1971 -21.4985,-21.1971zm12.3566,33.8551c-2.3106,2.3106 -6.9317,3.7171 -12.2561,3.7171c-5.3244,0 -9.9456,-1.4065 -12.2562,-3.7171c-2.3106,-2.3106 -3.717,-6.9317 -3.717,-12.2561c0,-5.3244 1.4064,-9.9456 3.717,-12.2562c2.3106,-2.3106 6.9318,-3.717 12.2562,-3.717c5.3244,0 9.9455,1.4064 12.2561,3.717c2.3106,2.3106 3.7171,6.9318 3.7171,12.2562c0,5.3244 -1.4065,9.8451 -3.7171,12.2561z"/>
  </g>
 </g>
</svg>