<svg width="45" height="45" viewBox="0 0 45 45" fill="none" xmlns="http://www.w3.org/2000/svg">
<rect width="2" height="18" transform="matrix(-1 0 0 1 34 26)" fill="white"/>
<rect width="2" height="18" transform="matrix(-1 0 0 1 36 27)" fill="white"/>
<rect width="2" height="16" transform="matrix(-1 0 0 1 38 28)" fill="white"/>
<rect width="1" height="10" transform="matrix(-1 0 0 1 39 32)" fill="white"/>
<rect width="2" height="17" transform="matrix(-1 0 0 1 14 26)" fill="white"/>
<rect width="18" height="19" transform="matrix(-1 0 0 1 32 25)" fill="white"/>
<rect width="14" height="2" transform="matrix(-1 0 0 1 31 4)" fill="#E9530E"/>
<rect width="8" height="2" transform="matrix(-1 0 0 1 27 6)" fill="#E9530E"/>
<rect width="6" height="2" transform="matrix(-1 0 0 1 33 6)" fill="#E9530E"/>
<rect width="8" height="2" transform="matrix(-1 0 0 1 34 8)" fill="#E9530E"/>
<rect width="6" height="2" transform="matrix(-1 0 0 1 35 10)" fill="#E9530E"/>
<rect width="3" height="5" transform="matrix(-1 0 0 1 34 20)" fill="#E9530E"/>
<rect width="3" height="2" transform="matrix(-1 0 0 1 32 23)" fill="#E9530E"/>
<rect width="3" height="2" transform="matrix(-1 0 0 1 37 24)" fill="#E9530E"/>
<rect width="1" height="1" transform="matrix(-1 0 0 1 15 23)" fill="#E9530E"/>
<rect width="2" height="2" transform="matrix(-1 0 0 1 14 20)" fill="#E9530E"/>
<rect width="2" height="2" transform="matrix(-1 0 0 1 14 18)" fill="#E9530E"/>
<rect width="5" height="1" transform="matrix(-1 0 0 1 18 24)" fill="#263746"/>
<rect width="2" height="1" transform="matrix(-1 0 0 1 29 24)" fill="#263746"/>
<rect width="4" height="1" transform="matrix(-1 0 0 1 34 25)" fill="#263746"/>
<rect width="3" height="1" transform="matrix(-1 0 0 1 37 26)" fill="#263746"/>
<rect width="3" height="1" transform="matrix(-1 0 0 1 39 27)" fill="#263746"/>
<rect width="2" height="1" transform="matrix(-1 0 0 1 40 31)" fill="#263746"/>
<rect width="2" height="1" transform="matrix(-1 0 0 1 40 42)" fill="#263746"/>
<rect width="2" height="1" transform="matrix(-1 0 0 1 38 44)" fill="#263746"/>
<rect width="1" height="4" transform="matrix(-1 0 0 1 39 28)" fill="#263746"/>
<rect width="1" height="2" transform="matrix(-1 0 0 1 39 43)" fill="#263746"/>
<rect width="1" height="11" transform="matrix(-1 0 0 1 40 32)" fill="#263746"/>
<rect width="4" height="13" transform="matrix(-1 0 0 1 36 12)" fill="#E9530E"/>
<rect width="4" height="2" transform="matrix(-1 0 0 1 19 6)" fill="#E9530E"/>
<rect width="2" height="2" transform="matrix(-1 0 0 1 28 15)" fill="#263746"/>
<rect width="2" height="2" transform="matrix(-1 0 0 1 20 15)" fill="#263746"/>
<rect width="4" height="2" transform="matrix(-1 0 0 1 16 10)" fill="#E9530E"/>
<rect width="2" height="7" transform="matrix(-1 0 0 1 13 12)" fill="#E9530E"/>
<rect width="7" height="2" transform="matrix(-1 0 0 1 20 8)" fill="#E9530E"/>
<rect width="4" height="3" transform="matrix(-1 0 0 1 23 18)" fill="#F1C7B4"/>
<rect width="3" height="2" transform="matrix(-1 0 0 1 21 17)" fill="#F1C7B4"/>
<rect width="2" height="2" transform="matrix(-1 0 0 1 19 19)" fill="#F1C7B4"/>
<rect width="10" height="1" transform="matrix(-1 0 0 1 27 25)" fill="#263746"/>
<rect width="4" height="2" transform="matrix(-1 0 0 1 25 17)" fill="#F1C7B4"/>
<rect width="4" height="2" transform="matrix(-1 0 0 1 26 19)" fill="#F1C7B4"/>
<rect width="13" height="3" transform="matrix(-1 0 0 1 29 21)" fill="#F1C7B4"/>
<rect width="1" height="8" transform="matrix(-1 0 0 1 32 12)" fill="#F1C7B4"/>
<rect width="1" height="11" transform="matrix(-1 0 0 1 31 12)" fill="#F1C7B4"/>
<rect width="2" height="11" transform="matrix(-1 0 0 1 30 12)" fill="#F1C7B4"/>
<rect width="3" height="5" transform="matrix(-1 0 0 1 29 10)" fill="#F1C7B4"/>
<rect width="2" height="4" transform="matrix(-1 0 0 1 28 17)" fill="#F1C7B4"/>
<rect width="1" height="4" transform="matrix(-1 0 0 1 28 19)" fill="#F1C7B4"/>
<rect width="1" height="10" transform="matrix(-1 0 0 1 26 9)" fill="#F1C7B4"/>
<rect width="1" height="7" transform="matrix(-1 0 0 1 25 10)" fill="#F1C7B4"/>
<rect width="6" height="4" transform="matrix(-1 0 0 1 24 11)" fill="#F1C7B4"/>
<rect width="5" height="1" transform="matrix(-1 0 0 1 21 10)" fill="#F1C7B4"/>
<rect width="4" height="4" transform="matrix(-1 0 0 1 18 11)" fill="#F1C7B4"/>
<rect width="3" height="6" transform="matrix(-1 0 0 1 16 12)" fill="#F1C7B4"/>
<rect width="2" height="5" transform="matrix(-1 0 0 1 16 17)" fill="#F1C7B4"/>
<rect width="1" height="2" transform="matrix(-1 0 0 1 18 17)" fill="#F1C7B4"/>
<rect width="1" height="4" transform="matrix(-1 0 0 1 17 17)" fill="#F1C7B4"/>
<rect width="5" height="1" transform="matrix(-1 0 0 1 25 21)" fill="#E9530E"/>
<rect width="9" height="1" transform="matrix(-1 0 0 1 27 24)" fill="#F1C7B4"/>
<rect width="2" height="2" transform="matrix(-1 0 0 1 30 17)" fill="#E9530E"/>
<rect width="2" height="2" transform="matrix(-1 0 0 1 18 17)" fill="#E9530E"/>
<rect width="24" height="14" transform="matrix(-1 0 0 1 30 28)" fill="#263746"/>
<rect width="22" height="1" transform="matrix(-1 0 0 1 29 27)" fill="#263746"/>
<rect width="26" height="2" transform="matrix(-1 0 0 1 33 43)" fill="#263746"/>
<rect width="1" height="12" transform="matrix(-1 0 0 1 31 29)" fill="#263746"/>
<rect width="1" height="12" transform="matrix(-1 0 0 1 6 29)" fill="#263746"/>
<rect width="1" height="13" transform="matrix(-1 0 0 1 34 32)" fill="#829BB0"/>
<rect width="1" height="10" transform="matrix(-1 0 0 1 35 35)" fill="#BFD1E1"/>
<path fill-rule="evenodd" clip-rule="evenodd" d="M15 32H21V38H15V32ZM16 33H20V37H16V33Z" fill="#F14B1C"/>
<rect width="2" height="2" transform="matrix(-1 0 0 1 19 34)" fill="#F14B1C"/>
<rect width="4" height="1" transform="matrix(-1 0 0 1 20 31)" fill="#F14B1C"/>
<rect width="1" height="4" transform="matrix(-1 0 0 1 22 33)" fill="#F14B1C"/>
<rect width="4" height="1" transform="matrix(-1 0 0 1 20 38)" fill="#F14B1C"/>
<rect width="1" height="4" transform="matrix(-1 0 0 1 15 33)" fill="#F14B1C"/>
<rect x="16" y="15" width="2" height="2" fill="#F1C7B4"/>
<rect x="20" y="15" width="4" height="2" fill="#F1C7B4"/>
<rect x="19" y="8" width="7" height="3" fill="#F1C7B4"/>
<rect x="19" y="20" width="1" height="1" fill="#E9530E"/>
<rect x="25" y="20" width="1" height="1" fill="#E9530E"/>
<rect x="19" y="8" width="7" height="1" fill="#A03A0B"/>
<rect x="25" y="10" width="4" height="1" fill="#A03A0B"/>
<rect x="16" y="10" width="4" height="1" fill="#A03A0B"/>
<rect x="31" y="12" width="1" height="8" fill="#A03A0B"/>
<rect x="13" y="12" width="1" height="6" fill="#A03A0B"/>
<rect x="14" y="18" width="1" height="5" fill="#A03A0B"/>
<rect x="15" y="22" width="1" height="2" fill="#A03A0B"/>
<rect x="30" y="20" width="1" height="3" fill="#A03A0B"/>
<rect x="28" y="22" width="1" height="2" fill="#A03A0B"/>
<rect x="28" y="10" width="1" height="2" fill="#A03A0B"/>
<rect x="25" y="8" width="1" height="2" fill="#A03A0B"/>
<rect x="19" y="9" width="1" height="2" fill="#A03A0B"/>
<rect x="14" y="11" width="2" height="1" fill="#A03A0B"/>
<rect x="28" y="12" width="4" height="1" fill="#A03A0B"/>
<rect x="30" y="19" width="2" height="1" fill="#A03A0B"/>
<rect x="28" y="22" width="3" height="1" fill="#A03A0B"/>
<rect x="15" y="22" width="1" height="1" fill="#A03A0B"/>
<rect x="13" y="22" width="1" height="2" fill="#263746"/>
<rect x="11" y="25" width="1" height="2" fill="#263746"/>
<rect x="11" y="19" width="1" height="4" fill="#263746"/>
<rect x="10" y="11" width="1" height="9" fill="#263746"/>
<rect x="12" y="22" width="1" height="1" fill="#263746"/>
<rect x="12" y="25" width="2" height="1" fill="#263746"/>
<rect x="11" y="11" width="1" height="1" fill="#263746"/>
<rect x="11" y="10" width="1" height="1" fill="#263746"/>
<rect x="12" y="8" width="1" height="1" fill="#263746"/>
<rect x="14" y="6" width="1" height="1" fill="#263746"/>
<rect x="16" y="4" width="1" height="1" fill="#263746"/>
<rect x="31" y="4" width="1" height="1" fill="#263746"/>
<rect x="33" y="6" width="1" height="2" fill="#263746"/>
<rect x="34" y="7" width="1" height="3" fill="#263746"/>
<rect x="35" y="9" width="1" height="3" fill="#263746"/>
<rect x="36" y="11" width="1" height="15" fill="#263746"/>
<rect x="31" y="5" width="3" height="1" fill="#263746"/>
<rect x="11" y="9" width="2" height="1" fill="#263746"/>
<rect x="12" y="7" width="3" height="1" fill="#263746"/>
<rect x="14" y="5" width="3" height="1" fill="#263746"/>
<rect x="16" y="3" width="16" height="1" fill="#263746"/>
</svg>
