<svg width="45" height="45" viewBox="0 0 45 45" fill="none" xmlns="http://www.w3.org/2000/svg">
<rect x="7" y="11" width="31" height="34" fill="#263746"/>
<rect x="9" y="9" width="27" height="2" fill="#263746"/>
<rect x="11" y="7" width="23" height="2" fill="#263746"/>
<rect x="9" y="13" width="27" height="30" fill="white"/>
<rect x="11" y="16" width="23" height="6" fill="#263746"/>
<rect x="11" y="25" width="23" height="6" fill="#263746"/>
<rect x="11" y="34" width="23" height="6" fill="#263746"/>
<rect x="12" y="15" width="21" height="1" fill="#263746"/>
<rect x="12" y="24" width="21" height="1" fill="#263746"/>
<rect x="12" y="33" width="21" height="1" fill="#263746"/>
<rect x="12" y="22" width="21" height="1" fill="#263746"/>
<rect x="12" y="31" width="21" height="1" fill="#263746"/>
<rect x="12" y="40" width="21" height="1" fill="#263746"/>
<rect x="13" y="17" width="19" height="4" fill="white"/>
<rect x="13" y="26" width="19" height="4" fill="white"/>
<rect x="13" y="35" width="19" height="4" fill="white"/>
<rect x="29" y="18" width="2" height="2" fill="#E9530E"/>
<rect x="29" y="27" width="2" height="2" fill="#E9530E"/>
<rect x="29" y="36" width="2" height="2" fill="#E9530E"/>
<rect x="28" y="18" width="1" height="2" fill="#263746"/>
<rect x="28" y="27" width="1" height="2" fill="#263746"/>
<rect x="28" y="36" width="1" height="2" fill="#263746"/>
<rect x="9" y="13" width="2" height="30" fill="#BFD1E1"/>
<rect x="13" y="17" width="1" height="4" fill="#BFD1E1"/>
<rect x="13" y="26" width="1" height="4" fill="#BFD1E1"/>
<rect x="13" y="35" width="1" height="4" fill="#BFD1E1"/>
</svg>
