<svg width="250" height="251" viewBox="0 0 250 251" fill="none" xmlns="http://www.w3.org/2000/svg">
<path fill-rule="evenodd" clip-rule="evenodd" d="M51 203H45V205H43V208H41V211H33V213H31V215H28V219H60V215H59V213H57V211H54V208V205H51V203Z" fill="white"/>
<path fill-rule="evenodd" clip-rule="evenodd" d="M218 69H212V71H210V74H208V77H200V79H198V81H195V85H227V81H226V79H224V77H221V74V71H218V69Z" fill="white"/>
<path fill-rule="evenodd" clip-rule="evenodd" d="M134.344 137H143.906V140.188H147.094V144.969H150.281V149.75H163.031V152.938H166.219V156.125H171V162.5H120V156.125H121.594V152.938H124.781V149.75H129.562V144.969V140.188H134.344V137Z" fill="white"/>
<path fill-rule="evenodd" clip-rule="evenodd" d="M75 29H56V33H53V35H51V38H48V42H46V53H41V55H39V57H37V58H35V68H30V70H28V77H30V79H116V77H118V70H116V68H109V66H107V64H100V58H98V57H96V55H94V53H92V51H85V42H83V38H80V35H77V33H75V29Z" fill="white"/>
<path fill-rule="evenodd" clip-rule="evenodd" d="M63.1333 83H66.8667V83.5333H67.4V84.0667H67.9333V84.6H68.4667V85.1333H69V88.8667H68.4667V89.4H67.9333V89.9333H67.4V90.4667H66.8667V91H63.1333V90.4667H62.6V89.9333H62.0667V89.4H61.5333V88.8667H61V85.1333H61.5333V84.6H62.0667V84.0667H62.6V83.5333H63.1333V83Z" fill="#E9530E"/>
<path fill-rule="evenodd" clip-rule="evenodd" d="M153.733 116H160.267V116.933H161.2V117.867H152.8V116.933H153.733V116ZM151.867 117.867H162.133V128.133H161.2V129.067H152.8V128.133H151.867V127.2H150.933V126.267H150V119.733H150.933V118.8H151.867V117.867ZM160.267 129.067H153.733V130H160.267V129.067ZM163.067 118.8H162.133V127.2H163.067V126.267H164V119.733H163.067V118.8Z" fill="#E9530E"/>
<path fill-rule="evenodd" clip-rule="evenodd" d="M203.615 192H210.385V192.846H203.615V192ZM201.923 192.846H212.077V193.692H201.923V192.846ZM200.231 193.692H213.769V194.538H215.462V211.461H198.538L198.538 209.769H197.692L197.692 208.077H196.846V206.385H196V199.615H196.846V197.923H197.692V196.231H198.538V194.538H200.231V193.692ZM213.769 211.462H200.231V212.308H201.923V213.154H212.077V212.308H213.769V211.462ZM210.385 213.154H203.615V214H210.385V213.154ZM216.308 196.231H215.462V209.769H216.308L216.308 208.077H217.154L217.154 206.385H218V199.615H217.154L217.154 197.923H216.308L216.308 196.231Z" fill="#F7B334"/>
</svg>
