<svg width="45" height="45" viewBox="0 0 45 45" fill="none" xmlns="http://www.w3.org/2000/svg">
<path fill-rule="evenodd" clip-rule="evenodd" d="M14 11H31V12H32V13H33V43H32V44H31V45H14V44H13V43H12V13H13V12H14V11Z" fill="#263746"/>
<rect x="14" y="14" width="17" height="1" fill="#C4C4C4"/>
<path fill-rule="evenodd" clip-rule="evenodd" d="M16 13H29V14H31V42H29V43H16V42H14V14H16V13Z" fill="white"/>
<rect x="16" y="42" width="13" height="1" fill="#BFD1E1"/>
<rect x="14" y="14" width="1" height="28" fill="#BFD1E1"/>
<rect x="19" y="13" width="7" height="1" fill="#263746"/>
<rect x="20" y="14" width="5" height="1" fill="#263746"/>
<path fill-rule="evenodd" clip-rule="evenodd" d="M17 18H25V19H26V23H25V24H21V25H19V26H18V25V24H17V23H16V19H17V18Z" fill="#E9530E"/>
<path fill-rule="evenodd" clip-rule="evenodd" d="M28 29H20V30H19V34H20V35H23V36H25V37H26V38H27V37V36V35H28V34H29V30H28V29Z" fill="#F7B334"/>
<rect x="21" y="31" width="6" height="1" fill="#263746"/>
<rect x="18" y="20" width="6" height="1" fill="#263746"/>
<rect x="20" y="22" width="4" height="1" fill="#263746"/>
<rect x="21" y="33" width="4" height="1" fill="#263746"/>
</svg>
