<svg width="138" height="104" viewBox="0 0 138 104" fill="none" xmlns="http://www.w3.org/2000/svg">
<rect x="11" y="12" width="3" height="92" fill="#BFD1E1"/>
<path d="M138 48L80 10V8L138 46V48Z" fill="#829BB0"/>
<path d="M138 44L80 6V2L138 40V44Z" fill="#BFD1E1"/>
<rect width="80" height="2" fill="#263746"/>
<rect y="10" width="80" height="2" fill="#263746"/>
<rect y="3" width="2" height="7" fill="#263746"/>
<rect x="5" y="5" width="2" height="5" fill="#263746"/>
<rect x="2" y="3" width="3" height="2" fill="#263746"/>
<rect x="18" y="4" width="2" height="2" fill="#263746"/>
<rect x="38" y="4" width="2" height="2" fill="#263746"/>
<rect x="85" y="7" width="2" height="2" fill="#263746"/>
<rect x="106" y="21" width="2" height="2" fill="#263746"/>
<rect x="126" y="34" width="2" height="2" fill="#263746"/>
<rect x="48" y="6" width="31" height="2" fill="#263746"/>
<rect x="46" y="2" width="2" height="8" fill="#263746"/>
<rect x="42" y="2" width="2" height="8" fill="#263746"/>
<rect x="5" y="12" width="2" height="92" fill="#263746"/>
<rect x="15" y="12" width="2" height="92" fill="#263746"/>
<rect x="9" y="12" width="2" height="92" fill="#263746"/>
<rect x="63" y="12" width="2" height="92" fill="#263746"/>
<rect x="61" y="12" width="1" height="92" fill="#829BB0"/>
<rect x="62" y="12" width="1" height="92" fill="#BFD1E1"/>
<rect x="65" y="12" width="4" height="92" fill="#BFD1E1"/>
<rect x="12" y="14" width="2" height="2" fill="#263746"/>
<rect x="12" y="36" width="2" height="2" fill="#263746"/>
<rect x="12" y="58" width="2" height="2" fill="#263746"/>
<rect x="12" y="80" width="2" height="2" fill="#263746"/>
<rect x="69" y="12" width="2" height="92" fill="#263746"/>
<rect x="59" y="12" width="2" height="92" fill="#263746"/>
<rect x="21" y="6" width="2" height="4" fill="#263746"/>
<rect x="15" y="6" width="2" height="4" fill="#263746"/>
<rect x="13" y="2" width="2" height="8" fill="#263746"/>
<rect x="78" y="2" width="2" height="10" fill="#263746"/>
<path d="M136 38H138V49L136 48V38Z" fill="#263746"/>
<path d="M138 50L80 12V10L138 48V50Z" fill="#263746"/>
<path d="M138 46L80 8V6L138 44V46Z" fill="#263746"/>
<path d="M138 40L80 2V0L138 38V40Z" fill="#263746"/>
<rect x="65" y="12" width="1" height="92" fill="white"/>
<rect y="2" width="13" height="1" fill="#BFD1E1"/>
<rect x="5" y="3" width="8" height="2" fill="#BFD1E1"/>
<rect x="16" y="2" width="25" height="2" fill="#BFD1E1"/>
<rect x="21" y="4" width="17" height="2" fill="#BFD1E1"/>
<rect x="24" y="6" width="17" height="4" fill="#BFD1E1"/>
<rect x="49" y="2" width="29" height="4" fill="#BFD1E1"/>
<rect x="48" y="8" width="30" height="2" fill="#BFD1E1"/>
<rect x="3" y="5" width="2" height="5" fill="#BFD1E1"/>
<rect x="2" y="5" width="1" height="5" fill="white"/>
<rect x="5" y="3" width="1" height="2" fill="white"/>
<rect x="7" y="5" width="1" height="5" fill="white"/>
<rect x="7" y="12" width="1" height="92" fill="#829BB0"/>
<rect x="8" y="12" width="1" height="92" fill="#BFD1E1"/>
<rect x="14" y="12" width="1" height="92" fill="white"/>
<rect x="17" y="6" width="1" height="4" fill="white"/>
<rect x="15" y="2" width="1" height="4" fill="white"/>
<rect x="20" y="4" width="1" height="2" fill="white"/>
<rect x="16" y="4" width="2" height="2" fill="#BFD1E1"/>
<rect x="18" y="6" width="3" height="4" fill="#BFD1E1"/>
<rect x="23" y="6" width="1" height="4" fill="white"/>
<rect x="40" y="4" width="1" height="2" fill="white"/>
<rect x="41" y="2" width="1" height="8" fill="#829BB0"/>
<rect x="45" y="2" width="1" height="8" fill="#829BB0"/>
<rect x="48" y="9" width="30" height="1" fill="#829BB0"/>
<rect x="44" y="2" width="1" height="8" fill="#BFD1E1"/>
<rect x="48" y="2" width="1" height="4" fill="white"/>
<path d="M80 2L81 2.65084V6.65234L80 6V2Z" fill="white"/>
<rect x="12" y="2" width="1" height="8" fill="#829BB0"/>
<rect x="24" y="9" width="17" height="1" fill="#829BB0"/>
<rect y="2" width="12" height="1" fill="#829BB0"/>
<path d="M8 5H12V10H8V5Z" fill="#BFD1E1"/>
</svg>
