<svg width="138" height="189" viewBox="0 0 138 189" fill="none" xmlns="http://www.w3.org/2000/svg">
<rect x="8" y="12" width="6" height="177" fill="#BFD1E1"/>
<path d="M138 47.746L80 9.94706V7.95764L138 45.7566V47.746Z" fill="#829BB0"/>
<path d="M138 43.7672L80 5.96822V1.98938L138 39.7883V43.7672Z" fill="#BFD1E1"/>
<rect width="80" height="1.98942" fill="#263746"/>
<rect y="9.94714" width="80" height="1.98942" fill="#263746"/>
<rect y="1.98938" width="2" height="7.95767" fill="#263746"/>
<rect x="21" y="5.96826" width="2" height="1.98942" fill="#263746"/>
<rect x="27" y="5.96826" width="2" height="1.98942" fill="#263746"/>
<rect x="33" y="5.96826" width="2" height="1.98942" fill="#263746"/>
<rect x="85" y="6.96289" width="2" height="1.98942" fill="#263746"/>
<rect x="106" y="20.8889" width="2" height="1.98942" fill="#263746"/>
<rect x="126" y="33.8201" width="2" height="1.98942" fill="#263746"/>
<rect x="46" y="1.98938" width="2" height="7.95767" fill="#263746"/>
<rect x="42" y="1.98938" width="2" height="7.95767" fill="#263746"/>
<rect x="5" y="12" width="2" height="177" fill="#263746"/>
<rect x="15" y="12" width="2" height="177" fill="#263746"/>
<rect x="61" y="12" width="1" height="177" fill="#829BB0"/>
<rect x="62" y="12" width="7" height="177" fill="#BFD1E1"/>
<rect x="9" y="14" width="2" height="1.98942" fill="#263746"/>
<rect x="9" y="19" width="2" height="1.98942" fill="#263746"/>
<rect x="9" y="24" width="2" height="1.98942" fill="#263746"/>
<rect x="9" y="29" width="2" height="1.98942" fill="#263746"/>
<rect x="9" y="34" width="2" height="1.98942" fill="#263746"/>
<rect x="9" y="39" width="2" height="1.98942" fill="#263746"/>
<rect x="9" y="44" width="2" height="1.98942" fill="#263746"/>
<rect x="9" y="49" width="2" height="1.98942" fill="#263746"/>
<rect x="9" y="54" width="2" height="1.98942" fill="#263746"/>
<rect x="9" y="59" width="2" height="1.98942" fill="#263746"/>
<rect x="9" y="64" width="2" height="1.98942" fill="#263746"/>
<rect x="9" y="69" width="2" height="1.98942" fill="#263746"/>
<rect x="9" y="74" width="2" height="1.98942" fill="#263746"/>
<rect x="9" y="79" width="2" height="1.98942" fill="#263746"/>
<rect x="9" y="84" width="2" height="1.98942" fill="#263746"/>
<rect x="9" y="89" width="2" height="1.98942" fill="#263746"/>
<rect x="9" y="94" width="2" height="1.98942" fill="#263746"/>
<rect x="9" y="99" width="2" height="1.98942" fill="#263746"/>
<rect x="9" y="104" width="2" height="1.98942" fill="#263746"/>
<rect x="9" y="109" width="2" height="1.98942" fill="#263746"/>
<rect x="9" y="114" width="2" height="1.98942" fill="#263746"/>
<rect x="9" y="119" width="2" height="1.98942" fill="#263746"/>
<rect x="9" y="124" width="2" height="1.98942" fill="#263746"/>
<rect x="9" y="129" width="2" height="1.98942" fill="#263746"/>
<rect x="9" y="134" width="2" height="1.98942" fill="#263746"/>
<rect x="9" y="139" width="2" height="1.98942" fill="#263746"/>
<rect x="9" y="144" width="2" height="1.98942" fill="#263746"/>
<rect x="9" y="149" width="2" height="1.98942" fill="#263746"/>
<rect x="9" y="154" width="2" height="1.98942" fill="#263746"/>
<rect x="9" y="159" width="2" height="1.98942" fill="#263746"/>
<rect x="9" y="164" width="2" height="1.98942" fill="#263746"/>
<rect x="9" y="169" width="2" height="1.98942" fill="#263746"/>
<rect x="9" y="174" width="2" height="1.98942" fill="#263746"/>
<rect x="9" y="179" width="2" height="1.98942" fill="#263746"/>
<rect x="9" y="184" width="2" height="1.98942" fill="#263746"/>
<rect x="69" y="12" width="2" height="177" fill="#263746"/>
<rect x="59" y="12" width="2" height="177" fill="#263746"/>
<rect x="15" y="1.98938" width="2" height="7.95767" fill="#263746"/>
<rect x="78" y="1.98938" width="2" height="9.94709" fill="#263746"/>
<path d="M136 37.799H138V48.7407L136 47.746V37.799Z" fill="#263746"/>
<path d="M138 49.7355L80 11.9366V9.94714L138 47.7461V49.7355Z" fill="#263746"/>
<path d="M138 45.7566L80 7.95768V5.96826L138 43.7672V45.7566Z" fill="#263746"/>
<path d="M138 39.7884L80 1.98942V0L138 37.7989V39.7884Z" fill="#263746"/>
<rect x="17" y="1.99561" width="24" height="1.99561" fill="#BFD1E1"/>
<rect x="17" y="3.99121" width="24" height="1.99561" fill="#BFD1E1"/>
<rect x="48" y="1.99561" width="30" height="7.98243" fill="#BFD1E1"/>
<rect x="3" y="2.99341" width="11" height="6.98463" fill="#BFD1E1"/>
<rect x="2" y="1.99561" width="1" height="7.98243" fill="white"/>
<rect x="7" y="12" width="1" height="177" fill="#829BB0"/>
<rect x="14" y="12" width="1" height="177" fill="white"/>
<rect x="68" y="12" width="1" height="177" fill="white"/>
<rect x="23" y="5.98682" width="1" height="1.99561" fill="white"/>
<rect x="11" y="13.9692" width="1" height="1.99561" fill="white"/>
<rect x="11" y="19" width="1" height="1.99561" fill="white"/>
<rect x="11" y="24" width="1" height="1.99561" fill="white"/>
<rect x="11" y="29" width="1" height="1.99561" fill="white"/>
<rect x="11" y="34" width="1" height="1.99561" fill="white"/>
<rect x="11" y="39" width="1" height="1.99561" fill="white"/>
<rect x="11" y="44" width="1" height="1.99561" fill="white"/>
<rect x="11" y="49" width="1" height="1.99561" fill="white"/>
<rect x="11" y="54" width="1" height="1.99561" fill="white"/>
<rect x="11" y="59" width="1" height="1.99561" fill="white"/>
<rect x="11" y="64" width="1" height="1.99561" fill="white"/>
<rect x="11" y="69" width="1" height="1.99561" fill="white"/>
<rect x="11" y="74" width="1" height="1.99561" fill="white"/>
<rect x="11" y="79" width="1" height="1.99561" fill="white"/>
<rect x="11" y="84" width="1" height="1.99561" fill="white"/>
<rect x="11" y="89" width="1" height="1.99561" fill="white"/>
<rect x="11" y="94" width="1" height="1.99561" fill="white"/>
<rect x="11" y="99" width="1" height="1.99561" fill="white"/>
<rect x="11" y="104" width="1" height="1.99561" fill="white"/>
<rect x="11" y="109" width="1" height="1.99561" fill="white"/>
<rect x="11" y="114" width="1" height="1.99561" fill="white"/>
<rect x="11" y="119" width="1" height="1.99561" fill="white"/>
<rect x="11" y="124" width="1" height="1.99561" fill="white"/>
<rect x="11" y="129" width="1" height="1.99561" fill="white"/>
<rect x="11" y="134" width="1" height="1.99561" fill="white"/>
<rect x="11" y="139" width="1" height="1.99561" fill="white"/>
<rect x="11" y="144" width="1" height="1.99561" fill="white"/>
<rect x="11" y="149" width="1" height="1.99561" fill="white"/>
<rect x="11" y="154" width="1" height="1.99561" fill="white"/>
<rect x="11" y="159" width="1" height="1.99561" fill="white"/>
<rect x="11" y="164" width="1" height="1.99561" fill="white"/>
<rect x="11" y="169" width="1" height="1.99561" fill="white"/>
<rect x="11" y="174" width="1" height="1.99561" fill="white"/>
<rect x="11" y="179" width="1" height="1.99561" fill="white"/>
<rect x="11" y="184" width="1" height="1.99561" fill="white"/>
<rect x="17" y="7.98242" width="24" height="1.99561" fill="#BFD1E1"/>
<rect x="29" y="5.98682" width="1" height="1.99561" fill="white"/>
<rect x="35" y="5.98682" width="1" height="1.99561" fill="white"/>
<rect x="41" y="1.99561" width="1" height="7.98243" fill="#829BB0"/>
<rect x="45" y="1.99561" width="1" height="7.98243" fill="#829BB0"/>
<rect x="48" y="8.98022" width="30" height="0.997804" fill="#829BB0"/>
<rect x="44" y="1.99561" width="1" height="7.98243" fill="#BFD1E1"/>
<path d="M80 1.99561L81 2.64502V6.63773L80 5.98682V1.99561Z" fill="white"/>
<rect x="14" y="1.99561" width="1" height="7.98243" fill="#829BB0"/>
<rect x="17" y="1.99561" width="25" height="0.997804" fill="#829BB0"/>
<rect x="3" y="1.99561" width="11" height="0.997804" fill="#829BB0"/>
</svg>
