<svg width="138" height="187" viewBox="0 0 138 187" fill="none" xmlns="http://www.w3.org/2000/svg">
<rect width="3" height="175" transform="matrix(-1 0 0 1 127 12)" fill="#BFD1E1"/>
<path d="M0 48L58 10V8L0 46V48Z" fill="#829BB0"/>
<path d="M0 44L58 6V2L0 40V44Z" fill="#BFD1E1"/>
<rect width="80" height="2" transform="matrix(-1 0 0 1 138 0)" fill="#263746"/>
<rect width="80" height="2" transform="matrix(-1 0 0 1 138 10)" fill="#263746"/>
<rect width="2" height="8" transform="matrix(-1 0 0 1 138 2)" fill="#263746"/>
<rect width="2" height="8" transform="matrix(-1 0 0 1 133 2)" fill="#263746"/>
<rect width="2" height="2" transform="matrix(-1 0 0 1 53 7)" fill="#263746"/>
<rect width="2" height="2" transform="matrix(-1 0 0 1 32 21)" fill="#263746"/>
<rect width="2" height="2" transform="matrix(-1 0 0 1 12 34)" fill="#263746"/>
<rect width="35" height="2" transform="matrix(-1 0 0 1 94 6)" fill="#263746"/>
<rect width="2" height="8" transform="matrix(-1 0 0 1 96 2)" fill="#263746"/>
<rect width="2" height="175" transform="matrix(-1 0 0 1 133 12)" fill="#263746"/>
<rect width="2" height="175" transform="matrix(-1 0 0 1 123 12)" fill="#263746"/>
<rect width="2" height="175" transform="matrix(-1 0 0 1 129 12)" fill="#263746"/>
<rect width="2" height="175" transform="matrix(-1 0 0 1 75 12)" fill="#263746"/>
<rect width="1" height="175" transform="matrix(-1 0 0 1 77 12)" fill="#829BB0"/>
<rect width="1" height="175" transform="matrix(-1 0 0 1 76 12)" fill="#BFD1E1"/>
<rect width="4" height="175" transform="matrix(-1 0 0 1 73 12)" fill="#BFD1E1"/>
<rect width="2" height="175" transform="matrix(-1 0 0 1 69 12)" fill="#263746"/>
<rect width="2" height="175" transform="matrix(-1 0 0 1 79 12)" fill="#263746"/>
<rect width="2" height="8" transform="matrix(-1 0 0 1 117 2)" fill="#263746"/>
<rect width="2" height="8" transform="matrix(-1 0 0 1 125 2)" fill="#263746"/>
<rect width="2" height="10" transform="matrix(-1 0 0 1 60 2)" fill="#263746"/>
<path d="M2 38H0V49L2 48V38Z" fill="#263746"/>
<path d="M0 50L58 12V10L0 48V50Z" fill="#263746"/>
<path d="M0 46L58 8V6L0 44V46Z" fill="#263746"/>
<path d="M0 40L58 2V0L0 38V40Z" fill="#263746"/>
<rect width="1" height="175" transform="matrix(-1 0 0 1 73 12)" fill="white"/>
<rect width="5" height="1" transform="matrix(-1 0 0 1 130 2)" fill="#BFD1E1"/>
<rect width="5" height="2" transform="matrix(-1 0 0 1 130 3)" fill="#BFD1E1"/>
<rect width="18" height="2" transform="matrix(-1 0 0 1 114 2)" fill="#BFD1E1"/>
<rect width="18" height="2" transform="matrix(-1 0 0 1 114 4)" fill="#BFD1E1"/>
<rect width="18" height="4" transform="matrix(-1 0 0 1 114 6)" fill="#BFD1E1"/>
<rect width="33" height="4" transform="matrix(-1 0 0 1 93 2)" fill="#BFD1E1"/>
<rect width="34" height="2" transform="matrix(-1 0 0 1 94 8)" fill="#BFD1E1"/>
<rect width="2" height="7" transform="matrix(-1 0 0 1 135 2)" fill="#BFD1E1"/>
<rect width="1" height="8" transform="matrix(-1 0 0 1 136 2)" fill="white"/>
<rect width="1" height="8" transform="matrix(-1 0 0 1 131 2)" fill="white"/>
<rect width="1" height="175" transform="matrix(-1 0 0 1 131 12)" fill="#829BB0"/>
<rect width="1" height="175" transform="matrix(-1 0 0 1 130 12)" fill="#BFD1E1"/>
<rect width="1" height="175" transform="matrix(-1 0 0 1 124 12)" fill="white"/>
<rect width="1" height="8" transform="matrix(-1 0 0 1 123 2)" fill="white"/>
<rect width="5" height="8" transform="matrix(-1 0 0 1 122 2)" fill="#BFD1E1"/>
<rect width="1" height="8" transform="matrix(-1 0 0 1 115 2)" fill="white"/>
<rect width="1" height="4" transform="matrix(-1 0 0 1 94 2)" fill="white"/>
<rect width="34" height="1" transform="matrix(-1 0 0 1 94 9)" fill="#829BB0"/>
<path d="M58 2L57 2.65084V6.65234L58 6V2Z" fill="white"/>
<rect width="1" height="8" transform="matrix(-1 0 0 1 126 2)" fill="#829BB0"/>
<rect width="18" height="1" transform="matrix(-1 0 0 1 114 9)" fill="#829BB0"/>
<rect width="5" height="1" transform="matrix(-1 0 0 1 122 9)" fill="#829BB0"/>
<path d="M130 5H126V10H130V5Z" fill="#BFD1E1"/>
<rect width="5" height="1" transform="matrix(-1 0 0 1 130 9)" fill="#829BB0"/>
<rect x="122" y="30" width="1" height="2" fill="#263746"/>
<rect x="133" y="9" width="2" height="1" fill="#829BB0"/>
<rect x="62" y="3" width="2" height="2" fill="#263746"/>
<rect x="67" y="3" width="2" height="2" fill="#263746"/>
<rect x="72" y="3" width="2" height="2" fill="#263746"/>
<rect x="77" y="3" width="2" height="2" fill="#263746"/>
<rect x="101" y="5" width="2" height="2" fill="#263746"/>
<rect x="107" y="5" width="2" height="2" fill="#263746"/>
<rect x="64" y="3" width="1" height="2" fill="white"/>
<rect x="69" y="3" width="1" height="2" fill="white"/>
<rect x="74" y="3" width="1" height="2" fill="white"/>
<rect x="79" y="3" width="1" height="2" fill="white"/>
<rect x="103" y="5" width="1" height="2" fill="white"/>
<rect x="109" y="5" width="1" height="2" fill="white"/>
</svg>
