<?xml version="1.0" encoding="UTF-8" standalone="no"?>
<svg
   xmlns:dc="http://purl.org/dc/elements/1.1/"
   xmlns:cc="http://creativecommons.org/ns#"
   xmlns:rdf="http://www.w3.org/1999/02/22-rdf-syntax-ns#"
   xmlns:svg="http://www.w3.org/2000/svg"
   xmlns="http://www.w3.org/2000/svg"
   style="fill:none"
   id="svg4924"
   version="1.1"
   viewBox="0 0 145 160"
   height="160"
   width="145">
  <metadata
     id="metadata4930">
    <rdf:RDF>
      <cc:Work
         rdf:about="">
        <dc:format>image/svg+xml</dc:format>
        <dc:type
           rdf:resource="http://purl.org/dc/dcmitype/StillImage" />
        <dc:title></dc:title>
      </cc:Work>
    </rdf:RDF>
  </metadata>
  <defs
     id="defs4928" />
  <path
     style="clip-rule:evenodd;fill:#202f3e;fill-rule:evenodd"
     id="path4406"
     d="m 19,59 h 43 v 1 h 2 v 1 h 2 v 2 h 1 v 2 h 1 v 40 h -1 v 2 h -1 v 2 h -2 v 1 h -3 v 1 H 18 v -1 h -1 v -1 h -2 v -2 h -1 v -2 H 13 V 65 h 1 v -2 h 1 v -2 h 2 v -1 h 2 z" />
  <rect
     style="fill:#ffffff"
     id="rect4408"
     height="1"
     width="41"
     y="60"
     x="20" />
  <rect
     style="fill:#ffffff"
     id="rect4410"
     height="1"
     width="41"
     y="109"
     x="19" />
  <rect
     style="fill:#ffffff"
     id="rect4412"
     height="1"
     width="45"
     y="61"
     x="18" />
  <rect
     style="fill:#ffffff"
     id="rect4414"
     height="1"
     width="45"
     y="108"
     x="18" />
  <rect
     style="fill:#ffffff"
     id="rect4416"
     height="46"
     width="49"
     y="62"
     x="16" />
  <rect
     style="fill:#ffffff"
     id="rect4418"
     height="42"
     width="1"
     y="64"
     x="15" />
  <rect
     style="fill:#ffffff"
     id="rect4420"
     height="42"
     width="1"
     y="64"
     x="65" />
  <rect
     style="fill:#ffffff"
     id="rect4422"
     height="38"
     width="1"
     y="66"
     x="14" />
  <rect
     style="fill:#ffffff"
     id="rect4424"
     height="38"
     width="1"
     y="66"
     x="66" />
  <path
     style="clip-rule:evenodd;fill:#f14b1c;fill-rule:evenodd"
     id="path4426"
     d="m 28,66 h 23 v 1 h 2 v 1 h 3 v 2 h 1 v 2 h 1 v 25 h -1 v 2 h -1 v 2 h -3 v 1 h -2 v 1 H 28 v -1 h -2 v -1 H 24 V 99 H 23 V 97 H 22 V 72 h 1 v -2 h 1 v -2 h 2 v -1 h 2 z" />
  <rect
     style="fill:#202f3e"
     id="rect4428"
     height="39"
     width="39"
     y="19"
     x="20" />
  <rect
     style="fill:#202f3e"
     id="rect4430"
     height="1"
     width="35"
     y="18"
     x="22" />
  <rect
     style="fill:#202f3e"
     id="rect4432"
     height="1"
     width="35"
     y="58"
     x="22" />
  <rect
     style="fill:#202f3e"
     id="rect4434"
     height="1"
     width="31"
     y="17"
     x="24" />
  <rect
     style="fill:#202f3e"
     id="rect4436"
     height="1"
     width="31"
     y="59"
     x="24" />
  <rect
     style="fill:#202f3e"
     id="rect4438"
     height="35"
     width="1"
     y="21"
     x="19" />
  <rect
     style="fill:#202f3e"
     id="rect4440"
     height="35"
     width="1"
     y="21"
     x="59" />
  <rect
     style="fill:#202f3e"
     id="rect4442"
     height="31"
     width="1"
     y="23"
     x="18" />
  <rect
     style="fill:#202f3e"
     id="rect4444"
     height="31"
     width="1"
     y="23"
     x="60" />
  <path
     style="clip-rule:evenodd;fill:#57c7c8;fill-rule:evenodd"
     id="path4446"
     d="m 25,18 h 29 v 1 h 2 v 1 h 2 v 2 h 1 v 2 h 1 v 29 h -1 v 2 h -1 v 2 h -2 v 1 h -2 v 1 H 25 V 58 H 23 V 57 H 21 V 55 H 20 V 53 H 19 V 24 h 1 v -2 h 1 v -2 h 2 v -1 h 2 z" />
  <path
     style="clip-rule:evenodd;fill:#202f3e;fill-rule:evenodd"
     id="path4448"
     d="m 44,13 h -8 v 2 h -2.7765 v 2 h 14 V 15 H 44 Z" />
  <rect
     style="fill:#202f3e"
     id="rect4450"
     height="2"
     width="2"
     y="24"
     x="22" />
  <rect
     style="fill:#202f3e"
     id="rect4452"
     height="2"
     width="2"
     y="29"
     x="22" />
  <rect
     style="fill:#202f3e"
     id="rect4454"
     height="2"
     width="2"
     y="34"
     x="22" />
  <rect
     style="fill:#202f3e"
     id="rect4456"
     height="2"
     width="2"
     y="39"
     x="22" />
  <rect
     style="fill:#202f3e"
     id="rect4458"
     height="2"
     width="2"
     y="44"
     x="22" />
  <rect
     style="fill:#202f3e"
     id="rect4460"
     height="2"
     width="2"
     y="49"
     x="22" />
  <rect
     style="fill:#202f3e"
     id="rect4462"
     height="2"
     width="2"
     y="54"
     x="27" />
  <rect
     style="fill:#202f3e"
     id="rect4464"
     height="2"
     width="2"
     y="54"
     x="32" />
  <rect
     style="fill:#202f3e"
     id="rect4466"
     height="2"
     width="2"
     y="54"
     x="37" />
  <rect
     style="fill:#202f3e"
     id="rect4468"
     height="2"
     width="2"
     y="54"
     x="42" />
  <rect
     style="fill:#202f3e"
     id="rect4470"
     height="2"
     width="2"
     y="54"
     x="47" />
  <path
     style="clip-rule:evenodd;fill:#202f3e;fill-rule:evenodd"
     id="path4472"
     d="m 27,23 h 25 v 1 h 1 v 27 h -1 v 1 H 27 V 51 H 26 V 24 h 1 z" />
  <rect
     style="fill:#ffffff"
     id="rect4474"
     height="25"
     width="25"
     y="25"
     x="27" />
  <rect
     style="fill:#ffffff"
     id="rect4476"
     height="1"
     width="23"
     y="24"
     x="28" />
  <rect
     style="fill:#ffffff"
     id="rect4478"
     height="1"
     width="23"
     y="50"
     x="28" />
  <rect
     style="fill:#202f3e"
     id="rect4480"
     height="23"
     width="2"
     y="24"
     x="55" />
  <rect
     style="fill:#202f3e"
     id="rect4482"
     height="2"
     width="2"
     y="49"
     x="55" />
  <path
     style="clip-rule:evenodd;fill:#202f3e;fill-rule:evenodd"
     id="path4484"
     d="m 30,43 h 19 v 1 h 1 v 4 h -1 v 1 H 30 v -1 h -1 v -4 h 1 z" />
  <path
     style="clip-rule:evenodd;fill:#f14b1c;fill-rule:evenodd"
     id="path4486"
     d="m 31,44 h 17 v 1 h 1 v 2 h -1 v 1 H 31 v -1 h -1 v -2 h 1 z" />
  <rect
     style="fill:#202f3e"
     id="rect4488"
     height="4"
     width="1"
     y="44"
     x="33" />
  <rect
     style="fill:#202f3e"
     id="rect4490"
     height="4"
     width="1"
     y="44"
     x="36" />
  <rect
     style="fill:#202f3e"
     id="rect4492"
     height="4"
     width="1"
     y="44"
     x="39" />
  <rect
     style="fill:#202f3e"
     id="rect4494"
     height="4"
     width="1"
     y="44"
     x="42" />
  <rect
     style="fill:#202f3e"
     id="rect4496"
     height="4"
     width="1"
     y="44"
     x="45" />
  <path
     style="clip-rule:evenodd;fill:#202f3e;fill-rule:evenodd"
     id="path4498"
     d="m 31,31 h 5 v 1 h 1 v 1 h 1 v 5 h -1 v 1 h -1 v 1 h -5 v -1 h -1 v -1 h -1 v -5 h 1 v -1 h 1 z" />
  <path
     style="clip-rule:evenodd;fill:#202f3e;fill-rule:evenodd"
     id="path4500"
     d="m 43,31 h 5 v 1 h 1 v 1 h 1 v 5 h -1 v 1 h -1 v 1 h -5 v -1 h -1 v -1 h -1 v -5 h 1 v -1 h 1 z" />
  <path
     style="clip-rule:evenodd;fill:#202f3e;fill-rule:evenodd"
     id="path4502"
     d="m 30,25 h -1 v 1 1 h 2 v 1 h 2 v 1 h 4 v 1 h 5 v -1 h 5 v -1 h 1 v -1 h 2 v -1 -1 h -1 v 1 h -1 v -1 h -1 v 1 h -1 v -1 h -1 v 1 h -1 v -1 h -1 v 1 h -1 v -1 h -1 v 1 h -1 v -1 h -1 v 1 h -1 v -1 h -1 v 1 h -1 v -1 h -1 v 1 h -1 v -1 h -1 v 1 h -1 v -1 h -1 v 1 h -1 z" />
  <rect
     style="fill:#298a8b"
     id="rect4504"
     height="1"
     width="29"
     y="18"
     x="25" />
  <path
     style="clip-rule:evenodd;fill:#ffffff;fill-rule:evenodd"
     id="path4506"
     d="m 32,32 h 3 v 1 h 1 v 1 h 1 v 3 h -1 v 1 h -1 v 1 h -3 v -1 h -1 v -1 h -1 v -3 h 1 v -1 h 1 z" />
  <path
     style="clip-rule:evenodd;fill:#ffffff;fill-rule:evenodd"
     id="path4508"
     d="m 44,32 h 3 v 1 h 1 v 1 h 1 v 3 h -1 v 1 h -1 v 1 h -3 v -1 h -1 v -1 h -1 v -3 h 1 v -1 h 1 z" />
  <rect
     style="fill:#298a8b"
     id="rect4510"
     height="29"
     width="1"
     y="24"
     x="59" />
  <rect
     style="fill:#f9a92b"
     id="rect4512"
     height="5"
     width="5"
     y="33"
     x="31" />
  <rect
     style="fill:#202f3e"
     id="rect4514"
     height="3"
     width="3"
     y="34"
     x="44" />
  <rect
     style="fill:#202f3e"
     id="rect4516"
     height="3"
     width="3"
     y="34"
     x="32" />
  <rect
     style="fill:#f9a92b"
     id="rect4518"
     height="1"
     width="3"
     y="32"
     x="32" />
  <rect
     style="fill:#f9a92b"
     id="rect4520"
     height="1"
     width="3"
     y="38"
     x="32" />
  <rect
     style="fill:#f9a92b"
     id="rect4522"
     height="3"
     width="1"
     y="34"
     x="36" />
  <rect
     style="fill:#f9a92b"
     id="rect4524"
     height="3"
     width="1"
     y="34"
     x="30" />
  <rect
     style="fill:#ffffff"
     id="rect4526"
     height="1"
     width="1"
     y="34"
     x="34" />
  <rect
     style="fill:#f14b1c"
     id="rect4528"
     height="1"
     width="1"
     y="34"
     x="46" />
  <rect
     style="fill:#202f3e"
     id="rect4530"
     height="2"
     width="4"
     y="34"
     x="15" />
  <rect
     style="fill:#202f3e"
     id="rect4532"
     height="2"
     width="4"
     y="39"
     x="15" />
  <rect
     style="fill:#202f3e"
     id="rect4534"
     height="12"
     width="1"
     y="31"
     x="15" />
  <rect
     style="fill:#202f3e"
     id="rect4536"
     height="1"
     width="2"
     y="42"
     x="13" />
  <rect
     style="fill:#202f3e"
     id="rect4538"
     height="1"
     width="2"
     y="31"
     x="13" />
  <rect
     style="fill:#202f3e"
     id="rect4540"
     height="1"
     width="1"
     y="41"
     x="12" />
  <rect
     style="fill:#202f3e"
     id="rect4542"
     height="1"
     width="1"
     y="40"
     x="11" />
  <rect
     style="fill:#202f3e"
     id="rect4544"
     height="1"
     width="1"
     y="33"
     x="11" />
  <rect
     style="fill:#202f3e"
     id="rect4546"
     height="1"
     width="1"
     y="32"
     x="12" />
  <rect
     style="fill:#202f3e"
     id="rect4548"
     height="6"
     width="1"
     y="34"
     x="10" />
  <rect
     style="fill:#f14b1c"
     id="rect4550"
     height="6"
     width="1"
     y="34"
     x="11" />
  <rect
     style="fill:#f14b1c"
     id="rect4552"
     height="8"
     width="1"
     y="33"
     x="12" />
  <rect
     style="fill:#f14b1c"
     id="rect4554"
     height="10"
     width="2"
     y="32"
     x="13" />
  <rect
     style="fill:#ffffff"
     id="rect4556"
     height="3"
     width="1"
     y="35"
     x="12" />
  <rect
     style="fill:#ffffff"
     id="rect4558"
     height="1"
     width="1"
     y="39"
     x="12" />
  <rect
     style="fill:#202f3e"
     y="34"
     x="-64"
     id="rect4560"
     transform="scale(-1,1)"
     height="2"
     width="4" />
  <rect
     style="fill:#202f3e"
     y="39"
     x="-64"
     id="rect4562"
     transform="scale(-1,1)"
     height="2"
     width="4" />
  <rect
     style="fill:#202f3e"
     y="31"
     x="-64"
     id="rect4564"
     transform="scale(-1,1)"
     height="12"
     width="1" />
  <rect
     style="fill:#202f3e"
     y="42"
     x="-66"
     id="rect4566"
     transform="scale(-1,1)"
     height="1"
     width="2" />
  <rect
     style="fill:#202f3e"
     y="31"
     x="-66"
     id="rect4568"
     transform="scale(-1,1)"
     height="1"
     width="2" />
  <rect
     style="fill:#202f3e"
     y="41"
     x="-67"
     id="rect4570"
     transform="scale(-1,1)"
     height="1"
     width="1" />
  <rect
     style="fill:#202f3e"
     y="40"
     x="-68"
     id="rect4572"
     transform="scale(-1,1)"
     height="1"
     width="1" />
  <rect
     style="fill:#202f3e"
     y="33"
     x="-68"
     id="rect4574"
     transform="scale(-1,1)"
     height="1"
     width="1" />
  <rect
     style="fill:#202f3e"
     y="32"
     x="-67"
     id="rect4576"
     transform="scale(-1,1)"
     height="1"
     width="1" />
  <rect
     style="fill:#202f3e"
     y="34"
     x="-69"
     id="rect4578"
     transform="scale(-1,1)"
     height="6"
     width="1" />
  <rect
     style="fill:#f14b1c"
     y="34"
     x="-68"
     id="rect4580"
     transform="scale(-1,1)"
     height="6"
     width="1" />
  <rect
     style="fill:#f14b1c"
     y="33"
     x="-67"
     id="rect4582"
     transform="scale(-1,1)"
     height="8"
     width="1" />
  <rect
     style="fill:#f14b1c"
     y="32"
     x="-66"
     id="rect4584"
     transform="scale(-1,1)"
     height="10"
     width="2" />
  <rect
     style="fill:#bc3c18"
     id="rect4586"
     height="10"
     width="1"
     y="32"
     x="64" />
  <rect
     style="fill:#202f3e"
     id="rect4588"
     height="38"
     width="12"
     y="111"
     x="20" />
  <rect
     style="fill:#202f3e"
     id="rect4590"
     height="38"
     width="12"
     y="111"
     x="47" />
  <rect
     style="fill:#57c7c8"
     id="rect4592"
     height="1"
     width="1"
     y="26"
     x="56" />
  <rect
     style="fill:#57c7c8"
     id="rect4594"
     height="1"
     width="1"
     y="28"
     x="56" />
  <rect
     style="fill:#57c7c8"
     id="rect4596"
     height="1"
     width="1"
     y="30"
     x="56" />
  <rect
     style="fill:#57c7c8"
     id="rect4598"
     height="1"
     width="1"
     y="32"
     x="56" />
  <rect
     style="fill:#57c7c8"
     id="rect4600"
     height="1"
     width="1"
     y="34"
     x="56" />
  <rect
     style="fill:#57c7c8"
     id="rect4602"
     height="1"
     width="1"
     y="36"
     x="56" />
  <rect
     style="fill:#57c7c8"
     id="rect4604"
     height="1"
     width="1"
     y="38"
     x="56" />
  <rect
     style="fill:#57c7c8"
     id="rect4606"
     height="1"
     width="1"
     y="40"
     x="56" />
  <rect
     style="fill:#57c7c8"
     id="rect4608"
     height="1"
     width="1"
     y="42"
     x="56" />
  <rect
     style="fill:#57c7c8"
     id="rect4610"
     height="1"
     width="1"
     y="44"
     x="56" />
  <path
     style="clip-rule:evenodd;fill:#202f3e;fill-rule:evenodd"
     id="path4612"
     d="m 17,63 h 5 v 5 h -5 z m 1,1 h 2 v 1 h -1 v 1 h -1 z m 3,1 v 2 h -2 v -1 h 1 v -1 z" />
  <path
     style="clip-rule:evenodd;fill:#202f3e;fill-rule:evenodd"
     id="path4614"
     d="m 59,101 h 5 v 5 h -5 z m 1,1 h 2 v 1 h -1 v 1 h -1 z m 3,1 v 2 h -2 v -1 h 1 v -1 z" />
  <path
     style="clip-rule:evenodd;fill:#202f3e;fill-rule:evenodd"
     id="path4616"
     d="m 27,70 h 26 v 1 h 1 v 27 h -1 v 1 H 27 V 98 H 26 V 71 h 1 z" />
  <rect
     style="fill:#ffffff"
     id="rect4618"
     height="25"
     width="26"
     y="72"
     x="27" />
  <rect
     style="fill:#ffffff"
     id="rect4620"
     height="1"
     width="24"
     y="71"
     x="28" />
  <rect
     style="fill:#ffffff"
     id="rect4622"
     height="1"
     width="24"
     y="97"
     x="28" />
  <rect
     style="fill:#ffffff;stroke:#202f3e"
     id="rect4624"
     height="5"
     width="5"
     y="73.5"
     x="29.5" />
  <rect
     style="fill:#ffffff;stroke:#202f3e"
     id="rect4626"
     height="5"
     width="5"
     y="81.5"
     x="29.5" />
  <rect
     style="fill:#ffffff;stroke:#202f3e"
     id="rect4628"
     height="5"
     width="5"
     y="89.5"
     x="29.5" />
  <rect
     style="fill:#ffffff;stroke:#202f3e"
     id="rect4630"
     height="5"
     width="5"
     y="73.5"
     x="37.5" />
  <path
     style="clip-rule:evenodd;fill:#f14b1c;fill-rule:evenodd"
     id="path4632"
     d="m 39,81 c -1.1046,0 -2,0.8954 -2,2 v 2 c 0,1.1046 0.8954,2 2,2 h 2 c 1.1046,0 2,-0.8954 2,-2 v -2 c 0,-1.1046 -0.8954,-2 -2,-2 z m 0,1 c -0.5523,0 -1,0.4477 -1,1 v 2 c 0,0.5523 0.4477,1 1,1 h 2 c 0.5523,0 1,-0.4477 1,-1 v -2 c 0,-0.5523 -0.4477,-1 -1,-1 z" />
  <rect
     style="fill:#ffffff;stroke:#202f3e"
     id="rect4634"
     height="5"
     width="5"
     y="89.5"
     x="37.5" />
  <rect
     style="fill:#f9a92b"
     id="rect4636"
     height="6"
     width="6"
     y="73"
     x="45" />
  <rect
     style="fill:#ffffff;stroke:#202f3e"
     id="rect4638"
     height="5"
     width="5"
     y="81.5"
     x="45.5" />
  <rect
     style="fill:#ffffff;stroke:#202f3e"
     id="rect4640"
     height="5"
     width="5"
     y="89.5"
     x="45.5" />
  <rect
     style="fill:#f14b1c"
     id="rect4642"
     rx="1"
     height="2"
     width="2"
     y="83"
     x="39" />
  <rect
     style="fill:#202f3e"
     id="rect4644"
     height="1"
     width="25"
     y="65"
     x="27" />
  <rect
     style="fill:#202f3e"
     id="rect4646"
     height="1"
     width="3"
     y="66"
     x="25" />
  <rect
     style="fill:#202f3e"
     id="rect4648"
     height="1"
     width="3"
     y="67"
     x="23" />
  <rect
     style="fill:#202f3e"
     id="rect4650"
     height="1"
     width="2"
     y="69"
     x="22" />
  <rect
     style="fill:#202f3e"
     id="rect4652"
     height="2"
     width="1"
     y="68"
     x="23" />
  <rect
     style="fill:#202f3e"
     id="rect4654"
     height="2"
     width="1"
     y="70"
     x="22" />
  <rect
     style="fill:#202f3e"
     id="rect4656"
     height="27"
     width="1"
     y="71"
     x="21" />
  <rect
     style="fill:#202f3e"
     id="rect4658"
     height="1"
     width="3"
     y="66"
     x="51" />
  <rect
     style="fill:#202f3e"
     id="rect4660"
     height="1"
     width="2"
     y="71"
     x="57" />
  <rect
     style="fill:#202f3e"
     id="rect4662"
     height="1"
     width="4"
     y="67"
     x="53" />
  <rect
     style="fill:#202f3e"
     id="rect4664"
     height="3"
     width="1"
     y="69"
     x="57" />
  <rect
     style="fill:#202f3e"
     id="rect4666"
     height="26"
     width="1"
     y="72"
     x="58" />
  <rect
     style="fill:#202f3e"
     id="rect4668"
     height="2"
     width="1"
     y="68"
     x="56" />
  <rect
     style="fill:#202f3e"
     id="rect4670"
     height="3"
     width="1"
     y="97"
     x="57" />
  <rect
     style="fill:#202f3e"
     id="rect4672"
     height="3"
     width="1"
     y="99"
     x="56" />
  <rect
     style="fill:#202f3e"
     id="rect4674"
     height="3"
     width="1"
     y="97"
     x="22" />
  <rect
     style="fill:#202f3e"
     id="rect4676"
     height="3"
     width="1"
     y="99"
     x="23" />
  <rect
     style="fill:#202f3e"
     id="rect4678"
     height="1"
     width="3"
     y="101"
     x="53" />
  <rect
     style="fill:#202f3e"
     id="rect4680"
     height="1"
     width="3"
     y="101"
     x="23" />
  <rect
     style="fill:#202f3e"
     id="rect4682"
     height="1"
     width="3"
     y="102"
     x="51" />
  <rect
     style="fill:#202f3e"
     id="rect4684"
     height="1"
     width="3"
     y="102"
     x="25" />
  <rect
     style="fill:#202f3e"
     id="rect4686"
     height="1"
     width="26"
     y="103"
     x="27" />
  <rect
     style="fill:#202f3e"
     id="rect4688"
     height="1"
     width="2"
     y="75"
     x="31" />
  <rect
     style="fill:#202f3e"
     id="rect4690"
     height="1"
     width="2"
     y="91"
     x="31" />
  <rect
     style="fill:#202f3e"
     id="rect4692"
     height="2"
     width="1"
     y="75"
     x="32" />
  <rect
     style="fill:#202f3e"
     id="rect4694"
     height="2"
     width="1"
     y="91"
     x="32" />
  <rect
     style="fill:#202f3e"
     id="rect4696"
     height="1"
     width="2"
     y="76"
     x="39" />
  <rect
     style="fill:#202f3e"
     id="rect4698"
     height="1"
     width="2"
     y="84"
     x="47" />
  <rect
     style="fill:#202f3e"
     id="rect4700"
     height="1"
     width="2"
     y="92"
     x="47" />
  <rect
     style="fill:#202f3e"
     id="rect4702"
     height="1"
     width="2"
     y="84"
     x="31" />
  <rect
     style="fill:#f14b1c"
     id="rect4704"
     height="2"
     width="2"
     y="91"
     x="39" />
  <rect
     style="fill:#202f3e"
     id="rect4706"
     height="2"
     width="2"
     y="100"
     x="29" />
  <rect
     style="fill:#202f3e"
     id="rect4708"
     height="2"
     width="2"
     y="107"
     x="20" />
  <rect
     style="fill:#202f3e"
     id="rect4710"
     height="2"
     width="2"
     y="107"
     x="24" />
  <rect
     style="fill:#202f3e"
     id="rect4712"
     height="2"
     width="2"
     y="107"
     x="28" />
  <rect
     style="fill:#202f3e"
     id="rect4714"
     height="2"
     width="2"
     y="107"
     x="32" />
  <rect
     style="fill:#202f3e"
     id="rect4716"
     height="2"
     width="2"
     y="107"
     x="36" />
  <rect
     style="fill:#202f3e"
     id="rect4718"
     height="2"
     width="2"
     y="107"
     x="40" />
  <rect
     style="fill:#202f3e"
     id="rect4720"
     height="2"
     width="2"
     y="107"
     x="44" />
  <rect
     style="fill:#202f3e"
     id="rect4722"
     height="2"
     width="2"
     y="107"
     x="48" />
  <rect
     style="fill:#202f3e"
     id="rect4724"
     height="2"
     width="2"
     y="107"
     x="52" />
  <rect
     style="fill:#202f3e"
     id="rect4726"
     height="2"
     width="2"
     y="107"
     x="56" />
  <rect
     style="fill:#202f3e"
     id="rect4728"
     height="2"
     width="2"
     y="100"
     x="33" />
  <rect
     style="fill:#202f3e"
     id="rect4730"
     height="2"
     width="5"
     y="100"
     x="37" />
  <rect
     style="fill:#202f3e"
     id="rect4732"
     height="2"
     width="2"
     y="100"
     x="44" />
  <rect
     style="fill:#202f3e"
     id="rect4734"
     height="2"
     width="2"
     y="100"
     x="48" />
  <rect
     style="fill:#bfd1e1"
     y="25"
     x="-52"
     id="rect4736"
     transform="scale(-1,1)"
     height="25"
     width="1" />
  <rect
     style="fill:#bfd1e1"
     y="66"
     x="-67"
     id="rect4738"
     transform="scale(-1,1)"
     height="38"
     width="1" />
  <rect
     style="fill:#bfd1e1"
     y="64"
     x="-66"
     id="rect4740"
     transform="scale(-1,1)"
     height="1"
     width="1" />
  <rect
     style="fill:#bfd1e1"
     y="62"
     x="-65"
     id="rect4742"
     transform="scale(-1,1)"
     height="1"
     width="1" />
  <rect
     style="fill:#202f3e"
     id="rect4744"
     height="27"
     width="2"
     y="71"
     x="17" />
  <rect
     style="fill:#ffffff"
     id="rect4746"
     height="1"
     width="1"
     y="73"
     x="17" />
  <rect
     style="fill:#ffffff"
     id="rect4748"
     height="1"
     width="1"
     y="76"
     x="17" />
  <rect
     style="fill:#ffffff"
     id="rect4750"
     height="1"
     width="1"
     y="79"
     x="17" />
  <rect
     style="fill:#ffffff"
     id="rect4752"
     height="1"
     width="1"
     y="82"
     x="17" />
  <rect
     style="fill:#ffffff"
     id="rect4754"
     height="1"
     width="1"
     y="85"
     x="17" />
  <rect
     style="fill:#ffffff"
     id="rect4756"
     height="1"
     width="1"
     y="88"
     x="17" />
  <rect
     style="fill:#ffffff"
     id="rect4758"
     height="1"
     width="1"
     y="91"
     x="17" />
  <rect
     style="fill:#ffffff"
     id="rect4760"
     height="1"
     width="1"
     y="94"
     x="17" />
  <rect
     style="fill:#202f3e"
     id="rect4762"
     height="19"
     width="2"
     y="71"
     x="61" />
  <rect
     style="fill:#202f3e"
     id="rect4764"
     height="6"
     width="2"
     y="92"
     x="61" />
  <path
     style="clip-rule:evenodd;fill:#202f3e;fill-rule:evenodd"
     id="path4766"
     d="M 2,66 H 14 V 76 H 2 V 75 H 1 V 74 H 0 v -6 h 1 v -1 h 1 z" />
  <path
     style="clip-rule:evenodd;fill:#f9a92b;fill-rule:evenodd"
     id="path4768"
     d="m 3,67 h 10 v 8 H 3 V 74 H 2 V 73 H 1 v -4 h 1 v -1 h 1 z" />
  <path
     style="clip-rule:evenodd;fill:#202f3e;fill-rule:evenodd"
     id="path4770"
     d="M 79,66 H 67 v 10 h 12 v -1 h 1 v -1 h 1 v -6 h -1 v -1 h -1 z" />
  <path
     style="clip-rule:evenodd;fill:#ffffff;fill-rule:evenodd"
     id="path4772"
     d="M 78,67 H 68 v 8 h 10 v -1 h 1 v -1 h 1 v -4 h -1 v -1 h -1 z" />
  <path
     style="clip-rule:evenodd;fill:#202f3e;fill-rule:evenodd"
     id="path4774"
     d="M 9,69 H 8 7 4 v 3 1 1 h 5 z" />
  <path
     style="clip-rule:evenodd;fill:#202f3e;fill-rule:evenodd"
     id="path4776"
     d="m 72,69 h 1 1 3 v 3 1 1 h -5 z" />
  <rect
     style="fill:#ffffff"
     id="rect4778"
     height="3"
     width="3"
     y="70"
     x="5" />
  <rect
     style="fill:#bfd1e1"
     y="70"
     x="-76"
     id="rect4780"
     transform="scale(-1,1)"
     height="3"
     width="3" />
  <path
     style="fill:#202f3e"
     id="path4782"
     d="M 7.25,73 5,70.75 V 70 H 5.75 L 8,72.25 V 73 Z" />
  <path
     style="fill:#202f3e"
     id="path4784"
     d="M 73.75,73 76,70.75 V 70 H 75.25 L 73,72.25 V 73 Z" />
  <rect
     style="fill:#202f3e"
     id="rect4786"
     height="2"
     width="2"
     y="72"
     x="10" />
  <rect
     style="fill:#202f3e"
     y="72"
     x="-71"
     id="rect4788"
     transform="scale(-1,1)"
     height="2"
     width="2" />
  <path
     style="stroke:#202f3e;stroke-width:2"
     id="path4790"
     d="m 18.5,53 v 0 C 12.701,53 8,57.701 8,63.5 V 66" />
  <path
     style="stroke:#202f3e;stroke-width:2"
     id="path4792"
     d="m 18,49 v 0 C 10.268,49 4,55.268 4,63 v 3" />
  <rect
     style="fill:#f14b1c"
     id="rect4794"
     height="26"
     width="2"
     y="112"
     x="23" />
  <rect
     style="fill:#f14b1c"
     id="rect4796"
     height="26"
     width="2"
     y="112"
     x="49" />
  <rect
     style="fill:#f14b1c"
     id="rect4798"
     height="6"
     width="2"
     y="140"
     x="23" />
  <rect
     style="fill:#f14b1c"
     id="rect4800"
     height="6"
     width="2"
     y="140"
     x="49" />
  <rect
     style="fill:#ffffff"
     id="rect4802"
     height="2"
     width="4"
     y="112"
     x="53" />
  <rect
     style="fill:#ffffff"
     id="rect4804"
     height="2"
     width="4"
     y="116"
     x="53" />
  <rect
     style="fill:#ffffff"
     id="rect4806"
     height="2"
     width="4"
     y="120"
     x="53" />
  <rect
     style="fill:#ffffff"
     id="rect4808"
     height="2"
     width="4"
     y="124"
     x="53" />
  <rect
     style="fill:#ffffff"
     id="rect4810"
     height="2"
     width="4"
     y="128"
     x="53" />
  <rect
     style="fill:#ffffff"
     id="rect4812"
     height="2"
     width="4"
     y="132"
     x="53" />
  <rect
     style="fill:#ffffff"
     id="rect4814"
     height="2"
     width="4"
     y="136"
     x="53" />
  <rect
     style="fill:#ffffff"
     id="rect4816"
     height="2"
     width="4"
     y="140"
     x="53" />
  <rect
     style="fill:#ffffff"
     id="rect4818"
     height="2"
     width="4"
     y="144"
     x="53" />
  <path
     style="clip-rule:evenodd;fill:#202f3e;fill-rule:evenodd"
     id="path4820"
     d="M 33,149 H 19 v 1 h -1 v 1 h -1 v 1 h -1 v 1 h -1 v 7 h 1 1 18 1 1 v -7 h -1 v -1 h -1 v -1 h -1 v -1 h -1 z" />
  <path
     style="clip-rule:evenodd;fill:#202f3e;fill-rule:evenodd"
     id="path4822"
     d="M 60,149 H 46 v 1 h -1 v 1 h -1 v 1 h -1 v 1 h -1 v 7 h 1 1 18 1 1 v -7 h -1 v -1 h -1 v -1 h -1 v -1 h -1 z" />
  <path
     style="clip-rule:evenodd;fill:#f9a92b;fill-rule:evenodd"
     id="path4824"
     d="M 35,153 H 17 v 1 h -1 v 5 h 20 v -5 h -1 z" />
  <rect
     style="fill:#202f3e"
     id="rect4826"
     height="3"
     width="1"
     y="155"
     x="17" />
  <rect
     style="fill:#202f3e"
     id="rect4828"
     height="4"
     width="1"
     y="154"
     x="19" />
  <rect
     style="fill:#202f3e"
     id="rect4830"
     height="4"
     width="1"
     y="154"
     x="21" />
  <rect
     style="fill:#202f3e"
     id="rect4832"
     height="4"
     width="1"
     y="154"
     x="23" />
  <rect
     style="fill:#202f3e"
     id="rect4834"
     height="4"
     width="1"
     y="154"
     x="25" />
  <rect
     style="fill:#202f3e"
     id="rect4836"
     height="4"
     width="1"
     y="154"
     x="27" />
  <rect
     style="fill:#202f3e"
     id="rect4838"
     height="4"
     width="1"
     y="154"
     x="29" />
  <rect
     style="fill:#202f3e"
     id="rect4840"
     height="4"
     width="1"
     y="154"
     x="31" />
  <rect
     style="fill:#202f3e"
     id="rect4842"
     height="3"
     width="1"
     y="155"
     x="33" />
  <path
     style="clip-rule:evenodd;fill:#f9a92b;fill-rule:evenodd"
     id="path4844"
     d="M 62,153 H 44 v 1 h -1 v 5 h 20 v -5 h -1 z" />
  <rect
     style="fill:#202f3e"
     id="rect4846"
     height="3"
     width="1"
     y="155"
     x="44" />
  <rect
     style="fill:#202f3e"
     id="rect4848"
     height="4"
     width="1"
     y="154"
     x="46" />
  <rect
     style="fill:#202f3e"
     id="rect4850"
     height="4"
     width="1"
     y="154"
     x="48" />
  <rect
     style="fill:#202f3e"
     id="rect4852"
     height="4"
     width="1"
     y="154"
     x="50" />
  <rect
     style="fill:#202f3e"
     id="rect4854"
     height="4"
     width="1"
     y="154"
     x="52" />
  <rect
     style="fill:#202f3e"
     id="rect4856"
     height="4"
     width="1"
     y="154"
     x="54" />
  <rect
     style="fill:#202f3e"
     id="rect4858"
     height="4"
     width="1"
     y="154"
     x="56" />
  <rect
     style="fill:#202f3e"
     id="rect4860"
     height="4"
     width="1"
     y="154"
     x="58" />
  <rect
     style="fill:#202f3e"
     id="rect4862"
     height="3"
     width="1"
     y="155"
     x="60" />
  <rect
     style="fill:#ffffff"
     id="rect4864"
     height="1"
     width="16"
     y="152"
     x="45" />
  <rect
     style="fill:#ffffff"
     id="rect4866"
     height="1"
     width="14"
     y="151"
     x="46" />
  <rect
     style="fill:#ffffff"
     id="rect4868"
     height="1"
     width="12"
     y="150"
     x="47" />
  <rect
     style="fill:#ffffff"
     id="rect4870"
     height="1"
     width="10"
     y="149"
     x="48" />
  <path
     style="clip-rule:evenodd;fill:#f9a92b;fill-rule:evenodd"
     id="path4872"
     d="m 33.2235,1 h 4 v 1 h 1 v 1 h 1 2 1 V 2 h 1 V 1 h 4 v 1 h 1 v 1 h 1 v 4 h -1 v 1 h -1 v 1 h -4 V 8 h -1 v 5 h -4 V 8 h -1 v 1 h -4 V 8 h -1 V 7 h -1 V 3 h 1 V 2 h 1 z m 4,2 h -4 v 4 h 4 z m 6,0 h 4 v 4 h -4 z" />
  <rect
     style="fill:#202f3e"
     id="rect4874"
     height="5"
     width="1"
     y="8"
     x="37.223503" />
  <rect
     style="fill:#202f3e"
     id="rect4876"
     height="5"
     width="1"
     y="8"
     x="42.223503" />
  <rect
     style="fill:#202f3e"
     id="rect4878"
     height="4"
     width="1"
     y="3"
     x="43.223503" />
  <rect
     style="fill:#202f3e"
     id="rect4880"
     height="4"
     width="1"
     y="3"
     x="49.223503" />
  <rect
     style="fill:#202f3e"
     id="rect4882"
     height="4"
     width="1"
     y="3"
     x="36.223503" />
  <rect
     style="fill:#202f3e"
     id="rect4884"
     height="4"
     width="1"
     y="3"
     x="46.223503" />
  <rect
     style="fill:#202f3e"
     id="rect4886"
     height="4"
     width="1"
     y="3"
     x="30.223495" />
  <rect
     style="fill:#202f3e"
     id="rect4888"
     height="1"
     width="1"
     y="7"
     x="31.223495" />
  <rect
     style="fill:#202f3e"
     id="rect4890"
     height="1"
     width="1"
     y="2"
     x="31.223495" />
  <rect
     style="fill:#202f3e"
     id="rect4892"
     height="1"
     width="1"
     y="8"
     x="32.223495" />
  <rect
     style="fill:#202f3e"
     id="rect4894"
     height="1"
     width="1"
     y="1"
     x="32.223495" />
  <rect
     style="fill:#202f3e"
     y="1"
     x="-48.223503"
     id="rect4896"
     transform="scale(-1,1)"
     height="1"
     width="1" />
  <rect
     style="fill:#202f3e"
     y="2"
     x="-49.223503"
     id="rect4898"
     transform="scale(-1,1)"
     height="1"
     width="1" />
  <rect
     style="fill:#202f3e"
     y="7"
     x="-49.223503"
     id="rect4900"
     transform="scale(-1,1)"
     height="1"
     width="1" />
  <rect
     style="fill:#202f3e"
     y="8"
     x="-48.223503"
     id="rect4902"
     transform="scale(-1,1)"
     height="1"
     width="1" />
  <rect
     style="fill:#202f3e"
     id="rect4904"
     height="1"
     width="1"
     y="1"
     x="37.223503" />
  <rect
     style="fill:#202f3e"
     id="rect4906"
     height="1"
     width="1"
     y="1"
     x="42.223503" />
  <rect
     style="fill:#202f3e"
     id="rect4908"
     height="1"
     width="4"
     y="2"
     x="38.223503" />
  <rect
     style="fill:#202f3e"
     id="rect4910"
     height="1"
     width="4"
     y="9"
     x="33.223495" />
  <rect
     style="fill:#202f3e"
     y="0"
     id="rect4912"
     height="1"
     width="4"
     x="33.223495" />
  <rect
     style="fill:#202f3e"
     y="0"
     id="rect4914"
     height="1"
     width="4"
     x="43.223503" />
  <rect
     style="fill:#202f3e"
     id="rect4916"
     height="1"
     width="2"
     y="3"
     x="44.223503" />
  <rect
     style="fill:#202f3e"
     id="rect4918"
     height="1"
     width="2"
     y="3"
     x="34.223495" />
  <rect
     style="fill:#202f3e"
     id="rect4920"
     height="1"
     width="4"
     y="9"
     x="43.223503" />
  <rect
     style="fill:#202f3e"
     id="rect4922"
     height="4"
     width="1"
     y="3"
     x="33.223495" />
  <g
     transform="translate(71.64826,75.094433)"
     id="g6145"
     style="fill:none">
    <path
       style="clip-rule:evenodd;fill:#57c7c8;fill-rule:evenodd"
       d="M 58.5236,39.3009 58.3934,46.119 25.5037,45.4909 C 11.6991,45.2272 0.722005,33.8227 0.985641,20.0181 L 1.35283,0.791002 7.35174,0.905567 7.01928,18.3137 C 6.80837,29.3574 15.5901,38.481 26.6337,38.6919 Z"
       id="path6020" />
    <path
       style="clip-rule:evenodd;fill:#202f3e;fill-rule:evenodd"
       d="m 57.5047,40.2817 -0.092,4.8184 -31.8899,-0.609 C 12.2704,44.238 1.73237,33.2896 1.98546,20.0372 L 2.33356,1.80991 6.33282,1.88629 6.01946,18.2946 C 5.79801,29.8905 15.0188,39.4703 26.6147,39.6917 Z M 58.3934,46.119 25.5037,45.4909 C 11.6991,45.2272 0.722005,33.8227 0.985641,20.0181 L 1.35283,0.791002 7.35174,0.905567 7.01928,18.3137 C 6.80837,29.3574 15.5901,38.481 26.6337,38.6919 l 31.8899,0.609 z"
       id="path6022" />
    <path
       style="fill:#202f3e"
       d="m 52.6099,45.5164 0.2355,-5.9143 -0.9992,-0.0398 -0.2355,5.9144 z"
       id="path6024" />
    <path
       style="fill:#202f3e"
       d="M 49.3497,45.5898 49.5852,39.6755 48.586,39.6357 48.3505,45.55 Z"
       id="path6026" />
    <path
       style="fill:#202f3e"
       d="m 45.6135,45.7517 0.2355,-5.9143 -0.9992,-0.0398 -0.2355,5.9143 z"
       id="path6028" />
    <path
       style="fill:#202f3e"
       d="m 41.5739,44.9259 0.2355,-5.9144 -0.9992,-0.0397 -0.2355,5.9143 z"
       id="path6030" />
    <path
       style="fill:#202f3e"
       d="M 37.5777,45.0992 37.8132,39.1848 36.814,39.145 36.5785,45.0594 Z"
       id="path6032" />
    <path
       style="fill:#202f3e"
       d="M 33.5814,45.2724 33.817,39.358 32.8177,39.3182 32.5822,45.2326 Z"
       id="path6034" />
    <path
       style="fill:#202f3e"
       d="m 29.5852,45.4456 0.2355,-5.9143 -0.9992,-0.0398 -0.2355,5.9144 z"
       id="path6036" />
    <path
       style="fill:#202f3e"
       d="m 25.5456,44.6198 0.2356,-5.9143 -0.9993,-0.0398 -0.2355,5.9144 z"
       id="path6038" />
    <path
       style="fill:#202f3e"
       d="m 21.1447,44.8311 0.687,-6.2844 -0.9941,-0.1087 -0.687,6.2845 z"
       id="path6040" />
    <path
       style="fill:#202f3e"
       d="m 17.018,43.4067 0.687,-6.2844 -1.0273,-0.6077 -0.7175,6.5372 z"
       id="path6042" />
    <path
       style="fill:#202f3e"
       d="M 6.94138,20.4727 6.92965,19.4525 1.16283,19.5188 1.17457,20.539 Z"
       id="path6044" />
    <path
       style="fill:#202f3e"
       d="M 6.7767,15.9241 6.73339,14.9249 1.21691,14.6638 1.26022,15.6629 Z"
       id="path6046" />
    <path
       style="fill:#202f3e"
       d="M 6.56137,11.9295 6.52074,10.9303 1.46921,10.6639 1.50983,11.663 Z"
       id="path6048" />
    <path
       style="fill:#202f3e"
       d="m 11.9007,40.5434 2.4455,-5.4468 -0.6677,-0.9542 -2.69,5.9914 z"
       id="path6050" />
    <path
       style="fill:#202f3e"
       d="M 8.07202,36.6707 11.1617,32.2851 10.6532,31.2706 7.25453,36.0947 Z"
       id="path6052" />
    <path
       style="fill:#202f3e"
       d="M 4.70334,31.8233 8.88922,28.4681 8.68237,27.3523 4.0779,31.0431 Z"
       id="path6054" />
    <path
       style="fill:#202f3e"
       d="M 6.71683,4.60449 6.70533,3.60456 1.70566,3.66205 1.71716,4.66198 Z"
       id="path6056" />
    <path
       style="fill:#202f3e"
       d="M 6.77435,8.56237 6.54726,7.5885 1.52502,6.76331 1.75211,7.73718 Z"
       id="path6058" />
    <path
       style="fill:#202f3e"
       d="m 7.14481,24.4161 -0.0433,-0.9989 -5.45154,1.237 0.04331,0.9991 z"
       id="path6060" />
    <path
       style="fill:#202f3e"
       d="m 70.5095,31.4629 -0.9996,-0.0311 -0.2798,8.9956 0.9995,0.0311 z"
       id="path6062" />
    <path
       style="fill:#202f3e"
       d="m 50.5191,30.8411 -1.999,-0.0622 -0.0622,1.999 1.999,0.0622 z"
       id="path6064" />
    <path
       style="fill:#202f3e"
       d="m 69.5099,31.4318 -4.9975,-0.1555 -0.1555,4.9976 4.9976,0.1555 z"
       id="path6066" />
    <path
       style="fill:#202f3e"
       d="m 52.5182,30.9033 -1.999,-0.0622 -0.1555,4.9976 1.999,0.0621 z"
       id="path6068" />
    <path
       style="fill:#202f3e"
       d="m 65.3875,35.3055 -12.9937,-0.4042 -0.0622,1.9991 12.9937,0.4041 z"
       id="path6070" />
    <path
       style="fill:#202f3e"
       d="m 48.5201,30.7789 -1.9991,-0.0622 -0.2798,8.9957 1.9991,0.0622 z"
       id="path6072" />
    <path
       style="fill:#202f3e"
       d="m 67.1689,42.3643 -17.9913,-0.5596 -0.0622,1.999 17.9913,0.5596 z"
       id="path6074" />
    <path
       style="fill:#202f3e"
       d="m 61.1096,44.1768 -5.9971,-0.1866 -0.0622,1.9991 5.9971,0.1865 z"
       id="path6076" />
    <path
       style="fill:#f9a92b"
       d="m 69.4789,32.4313 -3.9981,-0.1244 -0.2176,6.9967 3.998,0.1243 z"
       id="path6078" />
    <path
       style="fill:#f9a92b"
       d="m 51.4875,31.8717 -3.998,-0.1244 -0.2177,6.9966 3.9981,0.1244 z"
       id="path6080" />
    <path
       style="fill:#f9a92b"
       d="m 68.355,36.3983 -19.9904,-0.6218 -0.1243,3.998 19.9903,0.6219 z"
       id="path6082" />
    <path
       style="fill:#f9a92b"
       d="m 68.2306,40.3964 -19.9903,-0.6219 -0.0311,0.9996 19.9903,0.6218 z"
       id="path6084" />
    <path
       style="fill:#f9a92b"
       d="m 67.2,41.3648 -17.9913,-0.5597 -0.0311,0.9996 17.9913,0.5596 z"
       id="path6086" />
    <path
       style="fill:#f9a92b"
       d="M 66.1694,42.3332 50.1771,41.8358 50.146,42.8353 66.1383,43.3327 Z"
       id="path6088" />
    <path
       style="fill:#202f3e"
       d="m 69.2612,39.4279 -0.9995,-0.031 -0.0933,2.9985 0.9996,0.0311 z"
       id="path6090" />
    <path
       style="fill:#202f3e"
       d="M 68.1995,41.3959 67.2,41.3648 l -0.0622,1.999 0.9995,0.0311 z"
       id="path6092" />
    <path
       style="fill:#202f3e"
       d="m 49.2087,40.8051 -0.9995,-0.031 -0.0622,1.999 0.9995,0.0311 z"
       id="path6094" />
    <path
       style="fill:#202f3e"
       d="m 48.2403,39.7745 -0.9996,-0.0311 -0.0621,1.9991 0.9995,0.0311 z"
       id="path6096" />
  </g>
</svg>
