<?xml version="1.0" encoding="UTF-8" standalone="no"?>
<svg
   xmlns:dc="http://purl.org/dc/elements/1.1/"
   xmlns:cc="http://creativecommons.org/ns#"
   xmlns:rdf="http://www.w3.org/1999/02/22-rdf-syntax-ns#"
   xmlns:svg="http://www.w3.org/2000/svg"
   xmlns="http://www.w3.org/2000/svg"
   style="fill:none"
   id="svg4924"
   version="1.1"
   viewBox="0 0 145 160"
   height="160"
   width="145">
  <metadata
     id="metadata4930">
    <rdf:RDF>
      <cc:Work
         rdf:about="">
        <dc:format>image/svg+xml</dc:format>
        <dc:type
           rdf:resource="http://purl.org/dc/dcmitype/StillImage" />
        <dc:title></dc:title>
      </cc:Work>
    </rdf:RDF>
  </metadata>
  <defs
     id="defs4928" />
  <path
     style="clip-rule:evenodd;fill:#202f3e;fill-rule:evenodd"
     id="path4406"
     d="m 19,59 h 43 v 1 h 2 v 1 h 2 v 2 h 1 v 2 h 1 v 40 h -1 v 2 h -1 v 2 h -2 v 1 h -3 v 1 H 18 v -1 h -1 v -1 h -2 v -2 h -1 v -2 H 13 V 65 h 1 v -2 h 1 v -2 h 2 v -1 h 2 z" />
  <rect
     style="fill:#ffffff"
     id="rect4408"
     height="1"
     width="41"
     y="60"
     x="20" />
  <rect
     style="fill:#ffffff"
     id="rect4410"
     height="1"
     width="41"
     y="109"
     x="19" />
  <rect
     style="fill:#ffffff"
     id="rect4412"
     height="1"
     width="45"
     y="61"
     x="18" />
  <rect
     style="fill:#ffffff"
     id="rect4414"
     height="1"
     width="45"
     y="108"
     x="18" />
  <rect
     style="fill:#ffffff"
     id="rect4416"
     height="46"
     width="49"
     y="62"
     x="16" />
  <rect
     style="fill:#ffffff"
     id="rect4418"
     height="42"
     width="1"
     y="64"
     x="15" />
  <rect
     style="fill:#ffffff"
     id="rect4420"
     height="42"
     width="1"
     y="64"
     x="65" />
  <rect
     style="fill:#ffffff"
     id="rect4422"
     height="38"
     width="1"
     y="66"
     x="14" />
  <rect
     style="fill:#ffffff"
     id="rect4424"
     height="38"
     width="1"
     y="66"
     x="66" />
  <path
     style="clip-rule:evenodd;fill:#f14b1c;fill-rule:evenodd"
     id="path4426"
     d="m 28,66 h 23 v 1 h 2 v 1 h 3 v 2 h 1 v 2 h 1 v 25 h -1 v 2 h -1 v 2 h -3 v 1 h -2 v 1 H 28 v -1 h -2 v -1 H 24 V 99 H 23 V 97 H 22 V 72 h 1 v -2 h 1 v -2 h 2 v -1 h 2 z" />
  <rect
     style="fill:#202f3e"
     id="rect4428"
     height="39"
     width="39"
     y="19"
     x="20" />
  <rect
     style="fill:#202f3e"
     id="rect4430"
     height="1"
     width="35"
     y="18"
     x="22" />
  <rect
     style="fill:#202f3e"
     id="rect4432"
     height="1"
     width="35"
     y="58"
     x="22" />
  <rect
     style="fill:#202f3e"
     id="rect4434"
     height="1"
     width="31"
     y="17"
     x="24" />
  <rect
     style="fill:#202f3e"
     id="rect4436"
     height="1"
     width="31"
     y="59"
     x="24" />
  <rect
     style="fill:#202f3e"
     id="rect4438"
     height="35"
     width="1"
     y="21"
     x="19" />
  <rect
     style="fill:#202f3e"
     id="rect4440"
     height="35"
     width="1"
     y="21"
     x="59" />
  <rect
     style="fill:#202f3e"
     id="rect4442"
     height="31"
     width="1"
     y="23"
     x="18" />
  <rect
     style="fill:#202f3e"
     id="rect4444"
     height="31"
     width="1"
     y="23"
     x="60" />
  <path
     style="clip-rule:evenodd;fill:#57c7c8;fill-rule:evenodd"
     id="path4446"
     d="m 25,18 h 29 v 1 h 2 v 1 h 2 v 2 h 1 v 2 h 1 v 29 h -1 v 2 h -1 v 2 h -2 v 1 h -2 v 1 H 25 V 58 H 23 V 57 H 21 V 55 H 20 V 53 H 19 V 24 h 1 v -2 h 1 v -2 h 2 v -1 h 2 z" />
  <path
     style="clip-rule:evenodd;fill:#202f3e;fill-rule:evenodd"
     id="path4448"
     d="m 44,13 h -8 v 2 h -2.7765 v 2 h 14 V 15 H 44 Z" />
  <rect
     style="fill:#202f3e"
     id="rect4450"
     height="2"
     width="2"
     y="24"
     x="22" />
  <rect
     style="fill:#202f3e"
     id="rect4452"
     height="2"
     width="2"
     y="29"
     x="22" />
  <rect
     style="fill:#202f3e"
     id="rect4454"
     height="2"
     width="2"
     y="34"
     x="22" />
  <rect
     style="fill:#202f3e"
     id="rect4456"
     height="2"
     width="2"
     y="39"
     x="22" />
  <rect
     style="fill:#202f3e"
     id="rect4458"
     height="2"
     width="2"
     y="44"
     x="22" />
  <rect
     style="fill:#202f3e"
     id="rect4460"
     height="2"
     width="2"
     y="49"
     x="22" />
  <rect
     style="fill:#202f3e"
     id="rect4462"
     height="2"
     width="2"
     y="54"
     x="27" />
  <rect
     style="fill:#202f3e"
     id="rect4464"
     height="2"
     width="2"
     y="54"
     x="32" />
  <rect
     style="fill:#202f3e"
     id="rect4466"
     height="2"
     width="2"
     y="54"
     x="37" />
  <rect
     style="fill:#202f3e"
     id="rect4468"
     height="2"
     width="2"
     y="54"
     x="42" />
  <rect
     style="fill:#202f3e"
     id="rect4470"
     height="2"
     width="2"
     y="54"
     x="47" />
  <path
     style="clip-rule:evenodd;fill:#202f3e;fill-rule:evenodd"
     id="path4472"
     d="m 27,23 h 25 v 1 h 1 v 27 h -1 v 1 H 27 V 51 H 26 V 24 h 1 z" />
  <rect
     style="fill:#ffffff"
     id="rect4474"
     height="25"
     width="25"
     y="25"
     x="27" />
  <rect
     style="fill:#ffffff"
     id="rect4476"
     height="1"
     width="23"
     y="24"
     x="28" />
  <rect
     style="fill:#ffffff"
     id="rect4478"
     height="1"
     width="23"
     y="50"
     x="28" />
  <rect
     style="fill:#202f3e"
     id="rect4480"
     height="23"
     width="2"
     y="24"
     x="55" />
  <rect
     style="fill:#202f3e"
     id="rect4482"
     height="2"
     width="2"
     y="49"
     x="55" />
  <path
     style="clip-rule:evenodd;fill:#202f3e;fill-rule:evenodd"
     id="path4484"
     d="m 30,43 h 19 v 1 h 1 v 4 h -1 v 1 H 30 v -1 h -1 v -4 h 1 z" />
  <path
     style="clip-rule:evenodd;fill:#f14b1c;fill-rule:evenodd"
     id="path4486"
     d="m 31,44 h 17 v 1 h 1 v 2 h -1 v 1 H 31 v -1 h -1 v -2 h 1 z" />
  <rect
     style="fill:#202f3e"
     id="rect4488"
     height="4"
     width="1"
     y="44"
     x="33" />
  <rect
     style="fill:#202f3e"
     id="rect4490"
     height="4"
     width="1"
     y="44"
     x="36" />
  <rect
     style="fill:#202f3e"
     id="rect4492"
     height="4"
     width="1"
     y="44"
     x="39" />
  <rect
     style="fill:#202f3e"
     id="rect4494"
     height="4"
     width="1"
     y="44"
     x="42" />
  <rect
     style="fill:#202f3e"
     id="rect4496"
     height="4"
     width="1"
     y="44"
     x="45" />
  <path
     style="clip-rule:evenodd;fill:#202f3e;fill-rule:evenodd"
     id="path4498"
     d="m 31,31 h 5 v 1 h 1 v 1 h 1 v 5 h -1 v 1 h -1 v 1 h -5 v -1 h -1 v -1 h -1 v -5 h 1 v -1 h 1 z" />
  <path
     style="clip-rule:evenodd;fill:#202f3e;fill-rule:evenodd"
     id="path4500"
     d="m 43,31 h 5 v 1 h 1 v 1 h 1 v 5 h -1 v 1 h -1 v 1 h -5 v -1 h -1 v -1 h -1 v -5 h 1 v -1 h 1 z" />
  <path
     style="clip-rule:evenodd;fill:#202f3e;fill-rule:evenodd"
     id="path4502"
     d="m 30,25 h -1 v 1 1 h 2 v 1 h 2 v 1 h 4 v 1 h 5 v -1 h 5 v -1 h 1 v -1 h 2 v -1 -1 h -1 v 1 h -1 v -1 h -1 v 1 h -1 v -1 h -1 v 1 h -1 v -1 h -1 v 1 h -1 v -1 h -1 v 1 h -1 v -1 h -1 v 1 h -1 v -1 h -1 v 1 h -1 v -1 h -1 v 1 h -1 v -1 h -1 v 1 h -1 v -1 h -1 v 1 h -1 z" />
  <rect
     style="fill:#298a8b"
     id="rect4504"
     height="1"
     width="29"
     y="18"
     x="25" />
  <path
     style="clip-rule:evenodd;fill:#ffffff;fill-rule:evenodd"
     id="path4506"
     d="m 32,32 h 3 v 1 h 1 v 1 h 1 v 3 h -1 v 1 h -1 v 1 h -3 v -1 h -1 v -1 h -1 v -3 h 1 v -1 h 1 z" />
  <path
     style="clip-rule:evenodd;fill:#ffffff;fill-rule:evenodd"
     id="path4508"
     d="m 44,32 h 3 v 1 h 1 v 1 h 1 v 3 h -1 v 1 h -1 v 1 h -3 v -1 h -1 v -1 h -1 v -3 h 1 v -1 h 1 z" />
  <rect
     style="fill:#298a8b"
     id="rect4510"
     height="29"
     width="1"
     y="24"
     x="59" />
  <rect
     style="fill:#f9a92b"
     id="rect4512"
     height="5"
     width="5"
     y="33"
     x="31" />
  <rect
     style="fill:#202f3e"
     id="rect4514"
     height="3"
     width="3"
     y="34"
     x="44" />
  <rect
     style="fill:#202f3e"
     id="rect4516"
     height="3"
     width="3"
     y="34"
     x="32" />
  <rect
     style="fill:#f9a92b"
     id="rect4518"
     height="1"
     width="3"
     y="32"
     x="32" />
  <rect
     style="fill:#f9a92b"
     id="rect4520"
     height="1"
     width="3"
     y="38"
     x="32" />
  <rect
     style="fill:#f9a92b"
     id="rect4522"
     height="3"
     width="1"
     y="34"
     x="36" />
  <rect
     style="fill:#f9a92b"
     id="rect4524"
     height="3"
     width="1"
     y="34"
     x="30" />
  <rect
     style="fill:#ffffff"
     id="rect4526"
     height="1"
     width="1"
     y="34"
     x="34" />
  <rect
     style="fill:#f14b1c"
     id="rect4528"
     height="1"
     width="1"
     y="34"
     x="46" />
  <rect
     style="fill:#202f3e"
     id="rect4530"
     height="2"
     width="4"
     y="34"
     x="15" />
  <rect
     style="fill:#202f3e"
     id="rect4532"
     height="2"
     width="4"
     y="39"
     x="15" />
  <rect
     style="fill:#202f3e"
     id="rect4534"
     height="12"
     width="1"
     y="31"
     x="15" />
  <rect
     style="fill:#202f3e"
     id="rect4536"
     height="1"
     width="2"
     y="42"
     x="13" />
  <rect
     style="fill:#202f3e"
     id="rect4538"
     height="1"
     width="2"
     y="31"
     x="13" />
  <rect
     style="fill:#202f3e"
     id="rect4540"
     height="1"
     width="1"
     y="41"
     x="12" />
  <rect
     style="fill:#202f3e"
     id="rect4542"
     height="1"
     width="1"
     y="40"
     x="11" />
  <rect
     style="fill:#202f3e"
     id="rect4544"
     height="1"
     width="1"
     y="33"
     x="11" />
  <rect
     style="fill:#202f3e"
     id="rect4546"
     height="1"
     width="1"
     y="32"
     x="12" />
  <rect
     style="fill:#202f3e"
     id="rect4548"
     height="6"
     width="1"
     y="34"
     x="10" />
  <rect
     style="fill:#f14b1c"
     id="rect4550"
     height="6"
     width="1"
     y="34"
     x="11" />
  <rect
     style="fill:#f14b1c"
     id="rect4552"
     height="8"
     width="1"
     y="33"
     x="12" />
  <rect
     style="fill:#f14b1c"
     id="rect4554"
     height="10"
     width="2"
     y="32"
     x="13" />
  <rect
     style="fill:#ffffff"
     id="rect4556"
     height="3"
     width="1"
     y="35"
     x="12" />
  <rect
     style="fill:#ffffff"
     id="rect4558"
     height="1"
     width="1"
     y="39"
     x="12" />
  <rect
     style="fill:#202f3e"
     y="34"
     x="-64"
     id="rect4560"
     transform="scale(-1,1)"
     height="2"
     width="4" />
  <rect
     style="fill:#202f3e"
     y="39"
     x="-64"
     id="rect4562"
     transform="scale(-1,1)"
     height="2"
     width="4" />
  <rect
     style="fill:#202f3e"
     y="31"
     x="-64"
     id="rect4564"
     transform="scale(-1,1)"
     height="12"
     width="1" />
  <rect
     style="fill:#202f3e"
     y="42"
     x="-66"
     id="rect4566"
     transform="scale(-1,1)"
     height="1"
     width="2" />
  <rect
     style="fill:#202f3e"
     y="31"
     x="-66"
     id="rect4568"
     transform="scale(-1,1)"
     height="1"
     width="2" />
  <rect
     style="fill:#202f3e"
     y="41"
     x="-67"
     id="rect4570"
     transform="scale(-1,1)"
     height="1"
     width="1" />
  <rect
     style="fill:#202f3e"
     y="40"
     x="-68"
     id="rect4572"
     transform="scale(-1,1)"
     height="1"
     width="1" />
  <rect
     style="fill:#202f3e"
     y="33"
     x="-68"
     id="rect4574"
     transform="scale(-1,1)"
     height="1"
     width="1" />
  <rect
     style="fill:#202f3e"
     y="32"
     x="-67"
     id="rect4576"
     transform="scale(-1,1)"
     height="1"
     width="1" />
  <rect
     style="fill:#202f3e"
     y="34"
     x="-69"
     id="rect4578"
     transform="scale(-1,1)"
     height="6"
     width="1" />
  <rect
     style="fill:#f14b1c"
     y="34"
     x="-68"
     id="rect4580"
     transform="scale(-1,1)"
     height="6"
     width="1" />
  <rect
     style="fill:#f14b1c"
     y="33"
     x="-67"
     id="rect4582"
     transform="scale(-1,1)"
     height="8"
     width="1" />
  <rect
     style="fill:#f14b1c"
     y="32"
     x="-66"
     id="rect4584"
     transform="scale(-1,1)"
     height="10"
     width="2" />
  <rect
     style="fill:#bc3c18"
     id="rect4586"
     height="10"
     width="1"
     y="32"
     x="64" />
  <rect
     style="fill:#202f3e"
     id="rect4588"
     height="38"
     width="12"
     y="111"
     x="20" />
  <rect
     style="fill:#202f3e"
     id="rect4590"
     height="38"
     width="12"
     y="111"
     x="47" />
  <rect
     style="fill:#57c7c8"
     id="rect4592"
     height="1"
     width="1"
     y="26"
     x="56" />
  <rect
     style="fill:#57c7c8"
     id="rect4594"
     height="1"
     width="1"
     y="28"
     x="56" />
  <rect
     style="fill:#57c7c8"
     id="rect4596"
     height="1"
     width="1"
     y="30"
     x="56" />
  <rect
     style="fill:#57c7c8"
     id="rect4598"
     height="1"
     width="1"
     y="32"
     x="56" />
  <rect
     style="fill:#57c7c8"
     id="rect4600"
     height="1"
     width="1"
     y="34"
     x="56" />
  <rect
     style="fill:#57c7c8"
     id="rect4602"
     height="1"
     width="1"
     y="36"
     x="56" />
  <rect
     style="fill:#57c7c8"
     id="rect4604"
     height="1"
     width="1"
     y="38"
     x="56" />
  <rect
     style="fill:#57c7c8"
     id="rect4606"
     height="1"
     width="1"
     y="40"
     x="56" />
  <rect
     style="fill:#57c7c8"
     id="rect4608"
     height="1"
     width="1"
     y="42"
     x="56" />
  <rect
     style="fill:#57c7c8"
     id="rect4610"
     height="1"
     width="1"
     y="44"
     x="56" />
  <path
     style="clip-rule:evenodd;fill:#202f3e;fill-rule:evenodd"
     id="path4612"
     d="m 17,63 h 5 v 5 h -5 z m 1,1 h 2 v 1 h -1 v 1 h -1 z m 3,1 v 2 h -2 v -1 h 1 v -1 z" />
  <path
     style="clip-rule:evenodd;fill:#202f3e;fill-rule:evenodd"
     id="path4614"
     d="m 59,101 h 5 v 5 h -5 z m 1,1 h 2 v 1 h -1 v 1 h -1 z m 3,1 v 2 h -2 v -1 h 1 v -1 z" />
  <path
     style="clip-rule:evenodd;fill:#202f3e;fill-rule:evenodd"
     id="path4616"
     d="m 27,70 h 26 v 1 h 1 v 27 h -1 v 1 H 27 V 98 H 26 V 71 h 1 z" />
  <rect
     style="fill:#ffffff"
     id="rect4618"
     height="25"
     width="26"
     y="72"
     x="27" />
  <rect
     style="fill:#ffffff"
     id="rect4620"
     height="1"
     width="24"
     y="71"
     x="28" />
  <rect
     style="fill:#ffffff"
     id="rect4622"
     height="1"
     width="24"
     y="97"
     x="28" />
  <rect
     style="fill:#ffffff;stroke:#202f3e"
     id="rect4624"
     height="5"
     width="5"
     y="73.5"
     x="29.5" />
  <rect
     style="fill:#ffffff;stroke:#202f3e"
     id="rect4626"
     height="5"
     width="5"
     y="81.5"
     x="29.5" />
  <rect
     style="fill:#ffffff;stroke:#202f3e"
     id="rect4628"
     height="5"
     width="5"
     y="89.5"
     x="29.5" />
  <rect
     style="fill:#ffffff;stroke:#202f3e"
     id="rect4630"
     height="5"
     width="5"
     y="73.5"
     x="37.5" />
  <path
     style="clip-rule:evenodd;fill:#f14b1c;fill-rule:evenodd"
     id="path4632"
     d="m 39,81 c -1.1046,0 -2,0.8954 -2,2 v 2 c 0,1.1046 0.8954,2 2,2 h 2 c 1.1046,0 2,-0.8954 2,-2 v -2 c 0,-1.1046 -0.8954,-2 -2,-2 z m 0,1 c -0.5523,0 -1,0.4477 -1,1 v 2 c 0,0.5523 0.4477,1 1,1 h 2 c 0.5523,0 1,-0.4477 1,-1 v -2 c 0,-0.5523 -0.4477,-1 -1,-1 z" />
  <rect
     style="fill:#ffffff;stroke:#202f3e"
     id="rect4634"
     height="5"
     width="5"
     y="89.5"
     x="37.5" />
  <rect
     style="fill:#f9a92b"
     id="rect4636"
     height="6"
     width="6"
     y="73"
     x="45" />
  <rect
     style="fill:#ffffff;stroke:#202f3e"
     id="rect4638"
     height="5"
     width="5"
     y="81.5"
     x="45.5" />
  <rect
     style="fill:#ffffff;stroke:#202f3e"
     id="rect4640"
     height="5"
     width="5"
     y="89.5"
     x="45.5" />
  <rect
     style="fill:#f14b1c"
     id="rect4642"
     rx="1"
     height="2"
     width="2"
     y="83"
     x="39" />
  <rect
     style="fill:#202f3e"
     id="rect4644"
     height="1"
     width="25"
     y="65"
     x="27" />
  <rect
     style="fill:#202f3e"
     id="rect4646"
     height="1"
     width="3"
     y="66"
     x="25" />
  <rect
     style="fill:#202f3e"
     id="rect4648"
     height="1"
     width="3"
     y="67"
     x="23" />
  <rect
     style="fill:#202f3e"
     id="rect4650"
     height="1"
     width="2"
     y="69"
     x="22" />
  <rect
     style="fill:#202f3e"
     id="rect4652"
     height="2"
     width="1"
     y="68"
     x="23" />
  <rect
     style="fill:#202f3e"
     id="rect4654"
     height="2"
     width="1"
     y="70"
     x="22" />
  <rect
     style="fill:#202f3e"
     id="rect4656"
     height="27"
     width="1"
     y="71"
     x="21" />
  <rect
     style="fill:#202f3e"
     id="rect4658"
     height="1"
     width="3"
     y="66"
     x="51" />
  <rect
     style="fill:#202f3e"
     id="rect4660"
     height="1"
     width="2"
     y="71"
     x="57" />
  <rect
     style="fill:#202f3e"
     id="rect4662"
     height="1"
     width="4"
     y="67"
     x="53" />
  <rect
     style="fill:#202f3e"
     id="rect4664"
     height="3"
     width="1"
     y="69"
     x="57" />
  <rect
     style="fill:#202f3e"
     id="rect4666"
     height="26"
     width="1"
     y="72"
     x="58" />
  <rect
     style="fill:#202f3e"
     id="rect4668"
     height="2"
     width="1"
     y="68"
     x="56" />
  <rect
     style="fill:#202f3e"
     id="rect4670"
     height="3"
     width="1"
     y="97"
     x="57" />
  <rect
     style="fill:#202f3e"
     id="rect4672"
     height="3"
     width="1"
     y="99"
     x="56" />
  <rect
     style="fill:#202f3e"
     id="rect4674"
     height="3"
     width="1"
     y="97"
     x="22" />
  <rect
     style="fill:#202f3e"
     id="rect4676"
     height="3"
     width="1"
     y="99"
     x="23" />
  <rect
     style="fill:#202f3e"
     id="rect4678"
     height="1"
     width="3"
     y="101"
     x="53" />
  <rect
     style="fill:#202f3e"
     id="rect4680"
     height="1"
     width="3"
     y="101"
     x="23" />
  <rect
     style="fill:#202f3e"
     id="rect4682"
     height="1"
     width="3"
     y="102"
     x="51" />
  <rect
     style="fill:#202f3e"
     id="rect4684"
     height="1"
     width="3"
     y="102"
     x="25" />
  <rect
     style="fill:#202f3e"
     id="rect4686"
     height="1"
     width="26"
     y="103"
     x="27" />
  <rect
     style="fill:#202f3e"
     id="rect4688"
     height="1"
     width="2"
     y="75"
     x="31" />
  <rect
     style="fill:#202f3e"
     id="rect4690"
     height="1"
     width="2"
     y="91"
     x="31" />
  <rect
     style="fill:#202f3e"
     id="rect4692"
     height="2"
     width="1"
     y="75"
     x="32" />
  <rect
     style="fill:#202f3e"
     id="rect4694"
     height="2"
     width="1"
     y="91"
     x="32" />
  <rect
     style="fill:#202f3e"
     id="rect4696"
     height="1"
     width="2"
     y="76"
     x="39" />
  <rect
     style="fill:#202f3e"
     id="rect4698"
     height="1"
     width="2"
     y="84"
     x="47" />
  <rect
     style="fill:#202f3e"
     id="rect4700"
     height="1"
     width="2"
     y="92"
     x="47" />
  <rect
     style="fill:#202f3e"
     id="rect4702"
     height="1"
     width="2"
     y="84"
     x="31" />
  <rect
     style="fill:#f14b1c"
     id="rect4704"
     height="2"
     width="2"
     y="91"
     x="39" />
  <rect
     style="fill:#202f3e"
     id="rect4706"
     height="2"
     width="2"
     y="100"
     x="29" />
  <rect
     style="fill:#202f3e"
     id="rect4708"
     height="2"
     width="2"
     y="107"
     x="20" />
  <rect
     style="fill:#202f3e"
     id="rect4710"
     height="2"
     width="2"
     y="107"
     x="24" />
  <rect
     style="fill:#202f3e"
     id="rect4712"
     height="2"
     width="2"
     y="107"
     x="28" />
  <rect
     style="fill:#202f3e"
     id="rect4714"
     height="2"
     width="2"
     y="107"
     x="32" />
  <rect
     style="fill:#202f3e"
     id="rect4716"
     height="2"
     width="2"
     y="107"
     x="36" />
  <rect
     style="fill:#202f3e"
     id="rect4718"
     height="2"
     width="2"
     y="107"
     x="40" />
  <rect
     style="fill:#202f3e"
     id="rect4720"
     height="2"
     width="2"
     y="107"
     x="44" />
  <rect
     style="fill:#202f3e"
     id="rect4722"
     height="2"
     width="2"
     y="107"
     x="48" />
  <rect
     style="fill:#202f3e"
     id="rect4724"
     height="2"
     width="2"
     y="107"
     x="52" />
  <rect
     style="fill:#202f3e"
     id="rect4726"
     height="2"
     width="2"
     y="107"
     x="56" />
  <rect
     style="fill:#202f3e"
     id="rect4728"
     height="2"
     width="2"
     y="100"
     x="33" />
  <rect
     style="fill:#202f3e"
     id="rect4730"
     height="2"
     width="5"
     y="100"
     x="37" />
  <rect
     style="fill:#202f3e"
     id="rect4732"
     height="2"
     width="2"
     y="100"
     x="44" />
  <rect
     style="fill:#202f3e"
     id="rect4734"
     height="2"
     width="2"
     y="100"
     x="48" />
  <rect
     style="fill:#bfd1e1"
     y="25"
     x="-52"
     id="rect4736"
     transform="scale(-1,1)"
     height="25"
     width="1" />
  <rect
     style="fill:#bfd1e1"
     y="66"
     x="-67"
     id="rect4738"
     transform="scale(-1,1)"
     height="38"
     width="1" />
  <rect
     style="fill:#bfd1e1"
     y="64"
     x="-66"
     id="rect4740"
     transform="scale(-1,1)"
     height="1"
     width="1" />
  <rect
     style="fill:#bfd1e1"
     y="62"
     x="-65"
     id="rect4742"
     transform="scale(-1,1)"
     height="1"
     width="1" />
  <rect
     style="fill:#202f3e"
     id="rect4744"
     height="27"
     width="2"
     y="71"
     x="17" />
  <rect
     style="fill:#ffffff"
     id="rect4746"
     height="1"
     width="1"
     y="73"
     x="17" />
  <rect
     style="fill:#ffffff"
     id="rect4748"
     height="1"
     width="1"
     y="76"
     x="17" />
  <rect
     style="fill:#ffffff"
     id="rect4750"
     height="1"
     width="1"
     y="79"
     x="17" />
  <rect
     style="fill:#ffffff"
     id="rect4752"
     height="1"
     width="1"
     y="82"
     x="17" />
  <rect
     style="fill:#ffffff"
     id="rect4754"
     height="1"
     width="1"
     y="85"
     x="17" />
  <rect
     style="fill:#ffffff"
     id="rect4756"
     height="1"
     width="1"
     y="88"
     x="17" />
  <rect
     style="fill:#ffffff"
     id="rect4758"
     height="1"
     width="1"
     y="91"
     x="17" />
  <rect
     style="fill:#ffffff"
     id="rect4760"
     height="1"
     width="1"
     y="94"
     x="17" />
  <rect
     style="fill:#202f3e"
     id="rect4762"
     height="19"
     width="2"
     y="71"
     x="61" />
  <rect
     style="fill:#202f3e"
     id="rect4764"
     height="6"
     width="2"
     y="92"
     x="61" />
  <path
     style="clip-rule:evenodd;fill:#202f3e;fill-rule:evenodd"
     id="path4766"
     d="M 2,66 H 14 V 76 H 2 V 75 H 1 V 74 H 0 v -6 h 1 v -1 h 1 z" />
  <path
     style="clip-rule:evenodd;fill:#f9a92b;fill-rule:evenodd"
     id="path4768"
     d="m 3,67 h 10 v 8 H 3 V 74 H 2 V 73 H 1 v -4 h 1 v -1 h 1 z" />
  <path
     style="clip-rule:evenodd;fill:#202f3e;fill-rule:evenodd"
     id="path4770"
     d="M 79,66 H 67 v 10 h 12 v -1 h 1 v -1 h 1 v -6 h -1 v -1 h -1 z" />
  <path
     style="clip-rule:evenodd;fill:#ffffff;fill-rule:evenodd"
     id="path4772"
     d="M 78,67 H 68 v 8 h 10 v -1 h 1 v -1 h 1 v -4 h -1 v -1 h -1 z" />
  <path
     style="clip-rule:evenodd;fill:#202f3e;fill-rule:evenodd"
     id="path4774"
     d="M 9,69 H 8 7 4 v 3 1 1 h 5 z" />
  <path
     style="clip-rule:evenodd;fill:#202f3e;fill-rule:evenodd"
     id="path4776"
     d="m 72,69 h 1 1 3 v 3 1 1 h -5 z" />
  <rect
     style="fill:#ffffff"
     id="rect4778"
     height="3"
     width="3"
     y="70"
     x="5" />
  <rect
     style="fill:#bfd1e1"
     y="70"
     x="-76"
     id="rect4780"
     transform="scale(-1,1)"
     height="3"
     width="3" />
  <path
     style="fill:#202f3e"
     id="path4782"
     d="M 7.25,73 5,70.75 V 70 H 5.75 L 8,72.25 V 73 Z" />
  <path
     style="fill:#202f3e"
     id="path4784"
     d="M 73.75,73 76,70.75 V 70 H 75.25 L 73,72.25 V 73 Z" />
  <rect
     style="fill:#202f3e"
     id="rect4786"
     height="2"
     width="2"
     y="72"
     x="10" />
  <rect
     style="fill:#202f3e"
     y="72"
     x="-71"
     id="rect4788"
     transform="scale(-1,1)"
     height="2"
     width="2" />
  <path
     style="stroke:#202f3e;stroke-width:2"
     id="path4790"
     d="m 18.5,53 v 0 C 12.701,53 8,57.701 8,63.5 V 66" />
  <path
     style="stroke:#202f3e;stroke-width:2"
     id="path4792"
     d="m 18,49 v 0 C 10.268,49 4,55.268 4,63 v 3" />
  <rect
     style="fill:#f14b1c"
     id="rect4794"
     height="26"
     width="2"
     y="112"
     x="23" />
  <rect
     style="fill:#f14b1c"
     id="rect4796"
     height="26"
     width="2"
     y="112"
     x="49" />
  <rect
     style="fill:#f14b1c"
     id="rect4798"
     height="6"
     width="2"
     y="140"
     x="23" />
  <rect
     style="fill:#f14b1c"
     id="rect4800"
     height="6"
     width="2"
     y="140"
     x="49" />
  <rect
     style="fill:#ffffff"
     id="rect4802"
     height="2"
     width="4"
     y="112"
     x="53" />
  <rect
     style="fill:#ffffff"
     id="rect4804"
     height="2"
     width="4"
     y="116"
     x="53" />
  <rect
     style="fill:#ffffff"
     id="rect4806"
     height="2"
     width="4"
     y="120"
     x="53" />
  <rect
     style="fill:#ffffff"
     id="rect4808"
     height="2"
     width="4"
     y="124"
     x="53" />
  <rect
     style="fill:#ffffff"
     id="rect4810"
     height="2"
     width="4"
     y="128"
     x="53" />
  <rect
     style="fill:#ffffff"
     id="rect4812"
     height="2"
     width="4"
     y="132"
     x="53" />
  <rect
     style="fill:#ffffff"
     id="rect4814"
     height="2"
     width="4"
     y="136"
     x="53" />
  <rect
     style="fill:#ffffff"
     id="rect4816"
     height="2"
     width="4"
     y="140"
     x="53" />
  <rect
     style="fill:#ffffff"
     id="rect4818"
     height="2"
     width="4"
     y="144"
     x="53" />
  <path
     style="clip-rule:evenodd;fill:#202f3e;fill-rule:evenodd"
     id="path4820"
     d="M 33,149 H 19 v 1 h -1 v 1 h -1 v 1 h -1 v 1 h -1 v 7 h 1 1 18 1 1 v -7 h -1 v -1 h -1 v -1 h -1 v -1 h -1 z" />
  <path
     style="clip-rule:evenodd;fill:#202f3e;fill-rule:evenodd"
     id="path4822"
     d="M 60,149 H 46 v 1 h -1 v 1 h -1 v 1 h -1 v 1 h -1 v 7 h 1 1 18 1 1 v -7 h -1 v -1 h -1 v -1 h -1 v -1 h -1 z" />
  <path
     style="clip-rule:evenodd;fill:#f9a92b;fill-rule:evenodd"
     id="path4824"
     d="M 35,153 H 17 v 1 h -1 v 5 h 20 v -5 h -1 z" />
  <rect
     style="fill:#202f3e"
     id="rect4826"
     height="3"
     width="1"
     y="155"
     x="17" />
  <rect
     style="fill:#202f3e"
     id="rect4828"
     height="4"
     width="1"
     y="154"
     x="19" />
  <rect
     style="fill:#202f3e"
     id="rect4830"
     height="4"
     width="1"
     y="154"
     x="21" />
  <rect
     style="fill:#202f3e"
     id="rect4832"
     height="4"
     width="1"
     y="154"
     x="23" />
  <rect
     style="fill:#202f3e"
     id="rect4834"
     height="4"
     width="1"
     y="154"
     x="25" />
  <rect
     style="fill:#202f3e"
     id="rect4836"
     height="4"
     width="1"
     y="154"
     x="27" />
  <rect
     style="fill:#202f3e"
     id="rect4838"
     height="4"
     width="1"
     y="154"
     x="29" />
  <rect
     style="fill:#202f3e"
     id="rect4840"
     height="4"
     width="1"
     y="154"
     x="31" />
  <rect
     style="fill:#202f3e"
     id="rect4842"
     height="3"
     width="1"
     y="155"
     x="33" />
  <path
     style="clip-rule:evenodd;fill:#f9a92b;fill-rule:evenodd"
     id="path4844"
     d="M 62,153 H 44 v 1 h -1 v 5 h 20 v -5 h -1 z" />
  <rect
     style="fill:#202f3e"
     id="rect4846"
     height="3"
     width="1"
     y="155"
     x="44" />
  <rect
     style="fill:#202f3e"
     id="rect4848"
     height="4"
     width="1"
     y="154"
     x="46" />
  <rect
     style="fill:#202f3e"
     id="rect4850"
     height="4"
     width="1"
     y="154"
     x="48" />
  <rect
     style="fill:#202f3e"
     id="rect4852"
     height="4"
     width="1"
     y="154"
     x="50" />
  <rect
     style="fill:#202f3e"
     id="rect4854"
     height="4"
     width="1"
     y="154"
     x="52" />
  <rect
     style="fill:#202f3e"
     id="rect4856"
     height="4"
     width="1"
     y="154"
     x="54" />
  <rect
     style="fill:#202f3e"
     id="rect4858"
     height="4"
     width="1"
     y="154"
     x="56" />
  <rect
     style="fill:#202f3e"
     id="rect4860"
     height="4"
     width="1"
     y="154"
     x="58" />
  <rect
     style="fill:#202f3e"
     id="rect4862"
     height="3"
     width="1"
     y="155"
     x="60" />
  <rect
     style="fill:#ffffff"
     id="rect4864"
     height="1"
     width="16"
     y="152"
     x="45" />
  <rect
     style="fill:#ffffff"
     id="rect4866"
     height="1"
     width="14"
     y="151"
     x="46" />
  <rect
     style="fill:#ffffff"
     id="rect4868"
     height="1"
     width="12"
     y="150"
     x="47" />
  <rect
     style="fill:#ffffff"
     id="rect4870"
     height="1"
     width="10"
     y="149"
     x="48" />
  <path
     style="clip-rule:evenodd;fill:#f9a92b;fill-rule:evenodd"
     id="path4872"
     d="m 33.2235,1 h 4 v 1 h 1 v 1 h 1 2 1 V 2 h 1 V 1 h 4 v 1 h 1 v 1 h 1 v 4 h -1 v 1 h -1 v 1 h -4 V 8 h -1 v 5 h -4 V 8 h -1 v 1 h -4 V 8 h -1 V 7 h -1 V 3 h 1 V 2 h 1 z m 4,2 h -4 v 4 h 4 z m 6,0 h 4 v 4 h -4 z" />
  <rect
     style="fill:#202f3e"
     id="rect4874"
     height="5"
     width="1"
     y="8"
     x="37.223503" />
  <rect
     style="fill:#202f3e"
     id="rect4876"
     height="5"
     width="1"
     y="8"
     x="42.223503" />
  <rect
     style="fill:#202f3e"
     id="rect4878"
     height="4"
     width="1"
     y="3"
     x="43.223503" />
  <rect
     style="fill:#202f3e"
     id="rect4880"
     height="4"
     width="1"
     y="3"
     x="49.223503" />
  <rect
     style="fill:#202f3e"
     id="rect4882"
     height="4"
     width="1"
     y="3"
     x="36.223503" />
  <rect
     style="fill:#202f3e"
     id="rect4884"
     height="4"
     width="1"
     y="3"
     x="46.223503" />
  <rect
     style="fill:#202f3e"
     id="rect4886"
     height="4"
     width="1"
     y="3"
     x="30.223495" />
  <rect
     style="fill:#202f3e"
     id="rect4888"
     height="1"
     width="1"
     y="7"
     x="31.223495" />
  <rect
     style="fill:#202f3e"
     id="rect4890"
     height="1"
     width="1"
     y="2"
     x="31.223495" />
  <rect
     style="fill:#202f3e"
     id="rect4892"
     height="1"
     width="1"
     y="8"
     x="32.223495" />
  <rect
     style="fill:#202f3e"
     id="rect4894"
     height="1"
     width="1"
     y="1"
     x="32.223495" />
  <rect
     style="fill:#202f3e"
     y="1"
     x="-48.223503"
     id="rect4896"
     transform="scale(-1,1)"
     height="1"
     width="1" />
  <rect
     style="fill:#202f3e"
     y="2"
     x="-49.223503"
     id="rect4898"
     transform="scale(-1,1)"
     height="1"
     width="1" />
  <rect
     style="fill:#202f3e"
     y="7"
     x="-49.223503"
     id="rect4900"
     transform="scale(-1,1)"
     height="1"
     width="1" />
  <rect
     style="fill:#202f3e"
     y="8"
     x="-48.223503"
     id="rect4902"
     transform="scale(-1,1)"
     height="1"
     width="1" />
  <rect
     style="fill:#202f3e"
     id="rect4904"
     height="1"
     width="1"
     y="1"
     x="37.223503" />
  <rect
     style="fill:#202f3e"
     id="rect4906"
     height="1"
     width="1"
     y="1"
     x="42.223503" />
  <rect
     style="fill:#202f3e"
     id="rect4908"
     height="1"
     width="4"
     y="2"
     x="38.223503" />
  <rect
     style="fill:#202f3e"
     id="rect4910"
     height="1"
     width="4"
     y="9"
     x="33.223495" />
  <rect
     style="fill:#202f3e"
     y="0"
     id="rect4912"
     height="1"
     width="4"
     x="33.223495" />
  <rect
     style="fill:#202f3e"
     y="0"
     id="rect4914"
     height="1"
     width="4"
     x="43.223503" />
  <rect
     style="fill:#202f3e"
     id="rect4916"
     height="1"
     width="2"
     y="3"
     x="44.223503" />
  <rect
     style="fill:#202f3e"
     id="rect4918"
     height="1"
     width="2"
     y="3"
     x="34.223495" />
  <rect
     style="fill:#202f3e"
     id="rect4920"
     height="1"
     width="4"
     y="9"
     x="43.223503" />
  <rect
     style="fill:#202f3e"
     id="rect4922"
     height="4"
     width="1"
     y="3"
     x="33.223495" />
  <g
     transform="translate(82,21)"
     id="g5999"
     style="fill:none">
    <path
       style="clip-rule:evenodd;fill:#57c7c8;fill-rule:evenodd"
       d="m 47,15 h 6 V 28 C 53,41.8071 41.8071,53 28,53 H 0 v -6 h 27 c 11.0457,0 20,-8.9543 20,-20 z"
       id="path5874" />
    <path
       style="fill:#202f3e"
       d="m 53,15 v -1 h 1 v 1 z m -6,0 h -1 v -1 h 1 z M 0,53 v 1 H -1 V 53 Z M 0,47 H -1 V 46 H 0 Z M 53,16 h -6 v -2 h 6 z M 52,28 V 15 h 2 V 28 Z M 28,52 C 41.2548,52 52,41.2548 52,28 h 2 C 54,42.3594 42.3594,54 28,54 Z M 0,52 h 28 v 2 H 0 Z m 1,-5 v 6 H -1 V 47 Z M 0,46 h 27 v 2 H 0 Z m 27,0 c 10.4934,0 19,-8.5066 19,-19 h 2 C 48,38.598 38.598,48 27,48 Z M 46,27 V 15 h 2 v 12 z"
       mask="url(#path-1-inside-1)"
       id="path5876" />
    <rect
       style="fill:#202f3e"
       y="0"
       x="0"
       width="5"
       height="1"
       transform="matrix(-1,0,0,1,53,18)"
       id="rect5878" />
    <rect
       style="fill:#202f3e"
       y="0"
       x="0"
       width="5"
       height="1"
       transform="matrix(-1,0,0,1,53,21)"
       id="rect5880" />
    <rect
       style="fill:#202f3e"
       y="0"
       x="0"
       width="5"
       height="1"
       transform="matrix(-1,0,0,1,53,24)"
       id="rect5882" />
    <rect
       style="fill:#202f3e"
       y="0"
       x="0"
       width="6"
       height="1"
       transform="matrix(-1,0,0,1,53,27)"
       id="rect5884" />
    <rect
       style="fill:#202f3e"
       y="0"
       x="0"
       width="5"
       height="1"
       transform="matrix(-1,0,0,1,52,30)"
       id="rect5886" />
    <path
       style="fill:#202f3e"
       d="M 52,33.5 46.5,33 46,34 l 5.5,0.5 z"
       id="path5888" />
    <path
       style="fill:#202f3e"
       d="m 51,37 -5.5,-1 -0.5,1 5.5,1 z"
       id="path5890" />
    <path
       style="fill:#202f3e"
       d="m 49.0007,39.9873 -4.8285,-1.2983 -0.7425,0.8359 5.3114,1.4281 z"
       id="path5892" />
    <path
       style="fill:#202f3e"
       d="m 47,43.3103 -4.5375,-2.1003 -0.8738,0.6975 4.9912,2.3103 z"
       id="path5894" />
    <path
       style="fill:#202f3e"
       d="M 44,46.4539 39.6503,43.314 38.63,43.8108 43.4147,47.2647 Z"
       id="path5896" />
    <path
       style="fill:#202f3e"
       d="m 40,49.6466 -3.3069,-4.2242 -1.1181,0.194 3.6376,4.6466 z"
       id="path5898" />
    <rect
       style="fill:#202f3e"
       y="0"
       x="0"
       width="1"
       height="5"
       transform="matrix(-1,0,0,1,30,47)"
       id="rect5900" />
    <rect
       style="fill:#202f3e"
       y="0"
       x="0"
       width="1"
       height="5"
       transform="matrix(-1,0,0,1,26,47)"
       id="rect5902" />
    <rect
       style="fill:#202f3e"
       y="0"
       x="0"
       width="1"
       height="5"
       transform="matrix(-1,0,0,1,22,47)"
       id="rect5904" />
    <rect
       style="fill:#202f3e"
       y="0"
       x="0"
       width="1"
       height="5"
       transform="matrix(-1,0,0,1,18,47)"
       id="rect5906" />
    <rect
       style="fill:#202f3e"
       y="0"
       x="0"
       width="1"
       height="5"
       transform="matrix(-1,0,0,1,14,47)"
       id="rect5908" />
    <rect
       style="fill:#202f3e"
       y="0"
       x="0"
       width="1"
       height="5"
       transform="matrix(-1,0,0,1,10,47)"
       id="rect5910" />
    <rect
       style="fill:#202f3e"
       y="0"
       x="0"
       width="1"
       height="5"
       transform="matrix(-1,0,0,1,6,47)"
       id="rect5912" />
    <path
       style="fill:#202f3e"
       d="m 33.0683,46 -0.6369,0.8654 1.7223,4.6673 L 35,51 Z"
       id="path5914" />
    <rect
       style="fill:#202f3e"
       y="0"
       x="0"
       width="1"
       height="9"
       transform="matrix(-1,0,0,1,62,0)"
       id="rect5916" />
    <rect
       style="fill:#202f3e"
       y="0"
       x="0"
       width="2"
       height="2"
       transform="matrix(-1,0,0,1,42,0)"
       id="rect5918" />
    <rect
       style="fill:#202f3e"
       y="0"
       x="0"
       width="5"
       height="5"
       transform="matrix(-1,0,0,1,61,0)"
       id="rect5920" />
    <rect
       style="fill:#202f3e"
       y="0"
       x="0"
       width="2"
       height="5"
       transform="matrix(-1,0,0,1,44,0)"
       id="rect5922" />
    <rect
       style="fill:#202f3e"
       y="0"
       x="0"
       width="13"
       height="2"
       transform="matrix(-1,0,0,1,57,4)"
       id="rect5924" />
    <rect
       style="fill:#202f3e"
       y="0"
       x="0"
       width="2"
       height="9"
       transform="matrix(-1,0,0,1,40,0)"
       id="rect5926" />
    <rect
       style="fill:#202f3e"
       y="0"
       x="0"
       width="18"
       height="2"
       transform="matrix(-1,0,0,1,59,11)"
       id="rect5928" />
    <rect
       style="fill:#202f3e"
       y="0"
       x="0"
       width="6"
       height="2"
       transform="matrix(-1,0,0,1,53,13)"
       id="rect5930" />
    <rect
       style="fill:#f9a92b"
       y="0"
       x="0"
       width="4"
       height="7"
       transform="matrix(-1,0,0,1,61,1)"
       id="rect5932" />
    <rect
       style="fill:#f9a92b"
       y="0"
       x="0"
       width="4"
       height="7"
       transform="matrix(-1,0,0,1,43,1)"
       id="rect5934" />
    <rect
       style="fill:#f9a92b"
       y="0"
       x="0"
       width="20"
       height="4"
       transform="matrix(-1,0,0,1,60,5)"
       id="rect5936" />
    <rect
       style="fill:#f9a92b"
       y="0"
       x="0"
       width="20"
       height="1"
       transform="matrix(-1,0,0,1,60,9)"
       id="rect5938" />
    <rect
       style="fill:#f9a92b"
       y="0"
       x="0"
       width="18"
       height="1"
       transform="matrix(-1,0,0,1,59,10)"
       id="rect5940" />
    <rect
       style="fill:#f9a92b"
       y="0"
       x="0"
       width="16"
       height="1"
       transform="matrix(-1,0,0,1,58,11)"
       id="rect5942" />
    <rect
       style="fill:#202f3e"
       y="0"
       x="0"
       width="1"
       height="3"
       transform="matrix(-1,0,0,1,61,8)"
       id="rect5944" />
    <rect
       style="fill:#202f3e"
       y="0"
       x="0"
       width="1"
       height="2"
       transform="matrix(-1,0,0,1,60,10)"
       id="rect5946" />
    <rect
       style="fill:#202f3e"
       y="0"
       x="0"
       width="1"
       height="2"
       transform="matrix(-1,0,0,1,41,10)"
       id="rect5948" />
    <rect
       style="fill:#202f3e"
       y="0"
       x="0"
       width="1"
       height="2"
       transform="matrix(-1,0,0,1,40,9)"
       id="rect5950" />
  </g>
</svg>
