<?xml version="1.0" encoding="UTF-8" standalone="no"?>
<svg
   xmlns:dc="http://purl.org/dc/elements/1.1/"
   xmlns:cc="http://creativecommons.org/ns#"
   xmlns:rdf="http://www.w3.org/1999/02/22-rdf-syntax-ns#"
   xmlns:svg="http://www.w3.org/2000/svg"
   xmlns="http://www.w3.org/2000/svg"
   style="fill:none"
   id="svg4924"
   version="1.1"
   viewBox="0 0 145 160"
   height="160"
   width="145">
  <metadata
     id="metadata4930">
    <rdf:RDF>
      <cc:Work
         rdf:about="">
        <dc:format>image/svg+xml</dc:format>
        <dc:type
           rdf:resource="http://purl.org/dc/dcmitype/StillImage" />
        <dc:title></dc:title>
      </cc:Work>
    </rdf:RDF>
  </metadata>
  <defs
     id="defs4928" />
  <path
     style="clip-rule:evenodd;fill:#202f3e;fill-rule:evenodd"
     id="path4406"
     d="m 83,59 h 43 v 1 h 2 v 1 h 2 v 2 h 1 v 2 h 1 v 40 h -1 v 2 h -1 v 2 h -2 v 1 h -3 v 1 H 82 v -1 h -1 v -1 h -2 v -2 h -1 v -2 H 77 V 65 h 1 v -2 h 1 v -2 h 2 v -1 h 2 z" />
  <rect
     style="fill:#ffffff"
     id="rect4408"
     height="1"
     width="41"
     y="60"
     x="84" />
  <rect
     style="fill:#ffffff"
     id="rect4410"
     height="1"
     width="41"
     y="109"
     x="83" />
  <rect
     style="fill:#ffffff"
     id="rect4412"
     height="1"
     width="45"
     y="61"
     x="82" />
  <rect
     style="fill:#ffffff"
     id="rect4414"
     height="1"
     width="45"
     y="108"
     x="82" />
  <rect
     style="fill:#ffffff"
     id="rect4416"
     height="46"
     width="49"
     y="62"
     x="80" />
  <rect
     style="fill:#ffffff"
     id="rect4418"
     height="42"
     width="1"
     y="64"
     x="79" />
  <rect
     style="fill:#ffffff"
     id="rect4420"
     height="42"
     width="1"
     y="64"
     x="129" />
  <rect
     style="fill:#ffffff"
     id="rect4422"
     height="38"
     width="1"
     y="66"
     x="78" />
  <rect
     style="fill:#ffffff"
     id="rect4424"
     height="38"
     width="1"
     y="66"
     x="130" />
  <path
     style="clip-rule:evenodd;fill:#f14b1c;fill-rule:evenodd"
     id="path4426"
     d="m 92,66 h 23 v 1 h 2 v 1 h 3 v 2 h 1 v 2 h 1 v 25 h -1 v 2 h -1 v 2 h -3 v 1 h -2 v 1 H 92 v -1 h -2 v -1 H 88 V 99 H 87 V 97 H 86 V 72 h 1 v -2 h 1 v -2 h 2 v -1 h 2 z" />
  <rect
     style="fill:#202f3e"
     id="rect4428"
     height="39"
     width="39"
     y="19"
     x="84" />
  <rect
     style="fill:#202f3e"
     id="rect4430"
     height="1"
     width="35"
     y="18"
     x="86" />
  <rect
     style="fill:#202f3e"
     id="rect4432"
     height="1"
     width="35"
     y="58"
     x="86" />
  <rect
     style="fill:#202f3e"
     id="rect4434"
     height="1"
     width="31"
     y="17"
     x="88" />
  <rect
     style="fill:#202f3e"
     id="rect4436"
     height="1"
     width="31"
     y="59"
     x="88" />
  <rect
     style="fill:#202f3e"
     id="rect4438"
     height="35"
     width="1"
     y="21"
     x="83" />
  <rect
     style="fill:#202f3e"
     id="rect4440"
     height="35"
     width="1"
     y="21"
     x="123" />
  <rect
     style="fill:#202f3e"
     id="rect4442"
     height="31"
     width="1"
     y="23"
     x="82" />
  <rect
     style="fill:#202f3e"
     id="rect4444"
     height="31"
     width="1"
     y="23"
     x="124" />
  <path
     style="clip-rule:evenodd;fill:#57c7c8;fill-rule:evenodd"
     id="path4446"
     d="m 89,18 h 29 v 1 h 2 v 1 h 2 v 2 h 1 v 2 h 1 v 29 h -1 v 2 h -1 v 2 h -2 v 1 h -2 v 1 H 89 V 58 H 87 V 57 H 85 V 55 H 84 V 53 H 83 V 24 h 1 v -2 h 1 v -2 h 2 v -1 h 2 z" />
  <path
     style="clip-rule:evenodd;fill:#202f3e;fill-rule:evenodd"
     id="path4448"
     d="m 108,13 h -8 v 2 h -2.7765 v 2 h 14 V 15 H 108 Z" />
  <rect
     style="fill:#202f3e"
     id="rect4450"
     height="2"
     width="2"
     y="24"
     x="86" />
  <rect
     style="fill:#202f3e"
     id="rect4452"
     height="2"
     width="2"
     y="29"
     x="86" />
  <rect
     style="fill:#202f3e"
     id="rect4454"
     height="2"
     width="2"
     y="34"
     x="86" />
  <rect
     style="fill:#202f3e"
     id="rect4456"
     height="2"
     width="2"
     y="39"
     x="86" />
  <rect
     style="fill:#202f3e"
     id="rect4458"
     height="2"
     width="2"
     y="44"
     x="86" />
  <rect
     style="fill:#202f3e"
     id="rect4460"
     height="2"
     width="2"
     y="49"
     x="86" />
  <rect
     style="fill:#202f3e"
     id="rect4462"
     height="2"
     width="2"
     y="54"
     x="91" />
  <rect
     style="fill:#202f3e"
     id="rect4464"
     height="2"
     width="2"
     y="54"
     x="96" />
  <rect
     style="fill:#202f3e"
     id="rect4466"
     height="2"
     width="2"
     y="54"
     x="101" />
  <rect
     style="fill:#202f3e"
     id="rect4468"
     height="2"
     width="2"
     y="54"
     x="106" />
  <rect
     style="fill:#202f3e"
     id="rect4470"
     height="2"
     width="2"
     y="54"
     x="111" />
  <path
     style="clip-rule:evenodd;fill:#202f3e;fill-rule:evenodd"
     id="path4472"
     d="m 91,23 h 25 v 1 h 1 v 27 h -1 v 1 H 91 V 51 H 90 V 24 h 1 z" />
  <rect
     style="fill:#ffffff"
     id="rect4474"
     height="25"
     width="25"
     y="25"
     x="91" />
  <rect
     style="fill:#ffffff"
     id="rect4476"
     height="1"
     width="23"
     y="24"
     x="92" />
  <rect
     style="fill:#ffffff"
     id="rect4478"
     height="1"
     width="23"
     y="50"
     x="92" />
  <rect
     style="fill:#202f3e"
     id="rect4480"
     height="23"
     width="2"
     y="24"
     x="119" />
  <rect
     style="fill:#202f3e"
     id="rect4482"
     height="2"
     width="2"
     y="49"
     x="119" />
  <path
     style="clip-rule:evenodd;fill:#202f3e;fill-rule:evenodd"
     id="path4484"
     d="m 94,43 h 19 v 1 h 1 v 4 h -1 v 1 H 94 v -1 h -1 v -4 h 1 z" />
  <path
     style="clip-rule:evenodd;fill:#f14b1c;fill-rule:evenodd"
     id="path4486"
     d="m 95,44 h 17 v 1 h 1 v 2 h -1 v 1 H 95 v -1 h -1 v -2 h 1 z" />
  <rect
     style="fill:#202f3e"
     id="rect4488"
     height="4"
     width="1"
     y="44"
     x="97" />
  <rect
     style="fill:#202f3e"
     id="rect4490"
     height="4"
     width="1"
     y="44"
     x="100" />
  <rect
     style="fill:#202f3e"
     id="rect4492"
     height="4"
     width="1"
     y="44"
     x="103" />
  <rect
     style="fill:#202f3e"
     id="rect4494"
     height="4"
     width="1"
     y="44"
     x="106" />
  <rect
     style="fill:#202f3e"
     id="rect4496"
     height="4"
     width="1"
     y="44"
     x="109" />
  <path
     style="clip-rule:evenodd;fill:#202f3e;fill-rule:evenodd"
     id="path4498"
     d="m 95,31 h 5 v 1 h 1 v 1 h 1 v 5 h -1 v 1 h -1 v 1 h -5 v -1 h -1 v -1 h -1 v -5 h 1 v -1 h 1 z" />
  <path
     style="clip-rule:evenodd;fill:#202f3e;fill-rule:evenodd"
     id="path4500"
     d="m 107,31 h 5 v 1 h 1 v 1 h 1 v 5 h -1 v 1 h -1 v 1 h -5 v -1 h -1 v -1 h -1 v -5 h 1 v -1 h 1 z" />
  <path
     style="clip-rule:evenodd;fill:#202f3e;fill-rule:evenodd"
     id="path4502"
     d="m 94,25 h -1 v 1 1 h 2 v 1 h 2 v 1 h 4 v 1 h 5 v -1 h 5 v -1 h 1 v -1 h 2 v -1 -1 h -1 v 1 h -1 v -1 h -1 v 1 h -1 v -1 h -1 v 1 h -1 v -1 h -1 v 1 h -1 v -1 h -1 v 1 h -1 v -1 h -1 v 1 h -1 v -1 h -1 v 1 h -1 v -1 h -1 v 1 h -1 v -1 h -1 v 1 h -1 v -1 h -1 v 1 h -1 z" />
  <rect
     style="fill:#298a8b"
     id="rect4504"
     height="1"
     width="29"
     y="18"
     x="89" />
  <path
     style="clip-rule:evenodd;fill:#ffffff;fill-rule:evenodd"
     id="path4506"
     d="m 96,32 h 3 v 1 h 1 v 1 h 1 v 3 h -1 v 1 h -1 v 1 h -3 v -1 h -1 v -1 h -1 v -3 h 1 v -1 h 1 z" />
  <path
     style="clip-rule:evenodd;fill:#ffffff;fill-rule:evenodd"
     id="path4508"
     d="m 108,32 h 3 v 1 h 1 v 1 h 1 v 3 h -1 v 1 h -1 v 1 h -3 v -1 h -1 v -1 h -1 v -3 h 1 v -1 h 1 z" />
  <rect
     style="fill:#298a8b"
     id="rect4510"
     height="29"
     width="1"
     y="24"
     x="123" />
  <rect
     style="fill:#f9a92b"
     id="rect4512"
     height="5"
     width="5"
     y="33"
     x="95" />
  <rect
     style="fill:#202f3e"
     id="rect4514"
     height="3"
     width="3"
     y="34"
     x="108" />
  <rect
     style="fill:#202f3e"
     id="rect4516"
     height="3"
     width="3"
     y="34"
     x="96" />
  <rect
     style="fill:#f9a92b"
     id="rect4518"
     height="1"
     width="3"
     y="32"
     x="96" />
  <rect
     style="fill:#f9a92b"
     id="rect4520"
     height="1"
     width="3"
     y="38"
     x="96" />
  <rect
     style="fill:#f9a92b"
     id="rect4522"
     height="3"
     width="1"
     y="34"
     x="100" />
  <rect
     style="fill:#f9a92b"
     id="rect4524"
     height="3"
     width="1"
     y="34"
     x="94" />
  <rect
     style="fill:#ffffff"
     id="rect4526"
     height="1"
     width="1"
     y="34"
     x="98" />
  <rect
     style="fill:#f14b1c"
     id="rect4528"
     height="1"
     width="1"
     y="34"
     x="110" />
  <rect
     style="fill:#202f3e"
     id="rect4530"
     height="2"
     width="4"
     y="34"
     x="79" />
  <rect
     style="fill:#202f3e"
     id="rect4532"
     height="2"
     width="4"
     y="39"
     x="79" />
  <rect
     style="fill:#202f3e"
     id="rect4534"
     height="12"
     width="1"
     y="31"
     x="79" />
  <rect
     style="fill:#202f3e"
     id="rect4536"
     height="1"
     width="2"
     y="42"
     x="77" />
  <rect
     style="fill:#202f3e"
     id="rect4538"
     height="1"
     width="2"
     y="31"
     x="77" />
  <rect
     style="fill:#202f3e"
     id="rect4540"
     height="1"
     width="1"
     y="41"
     x="76" />
  <rect
     style="fill:#202f3e"
     id="rect4542"
     height="1"
     width="1"
     y="40"
     x="75" />
  <rect
     style="fill:#202f3e"
     id="rect4544"
     height="1"
     width="1"
     y="33"
     x="75" />
  <rect
     style="fill:#202f3e"
     id="rect4546"
     height="1"
     width="1"
     y="32"
     x="76" />
  <rect
     style="fill:#202f3e"
     id="rect4548"
     height="6"
     width="1"
     y="34"
     x="74" />
  <rect
     style="fill:#f14b1c"
     id="rect4550"
     height="6"
     width="1"
     y="34"
     x="75" />
  <rect
     style="fill:#f14b1c"
     id="rect4552"
     height="8"
     width="1"
     y="33"
     x="76" />
  <rect
     style="fill:#f14b1c"
     id="rect4554"
     height="10"
     width="2"
     y="32"
     x="77" />
  <rect
     style="fill:#ffffff"
     id="rect4556"
     height="3"
     width="1"
     y="35"
     x="76" />
  <rect
     style="fill:#ffffff"
     id="rect4558"
     height="1"
     width="1"
     y="39"
     x="76" />
  <rect
     style="fill:#202f3e"
     y="34"
     x="-128"
     id="rect4560"
     transform="scale(-1,1)"
     height="2"
     width="4" />
  <rect
     style="fill:#202f3e"
     y="39"
     x="-128"
     id="rect4562"
     transform="scale(-1,1)"
     height="2"
     width="4" />
  <rect
     style="fill:#202f3e"
     y="31"
     x="-128"
     id="rect4564"
     transform="scale(-1,1)"
     height="12"
     width="1" />
  <rect
     style="fill:#202f3e"
     y="42"
     x="-130"
     id="rect4566"
     transform="scale(-1,1)"
     height="1"
     width="2" />
  <rect
     style="fill:#202f3e"
     y="31"
     x="-130"
     id="rect4568"
     transform="scale(-1,1)"
     height="1"
     width="2" />
  <rect
     style="fill:#202f3e"
     y="41"
     x="-131"
     id="rect4570"
     transform="scale(-1,1)"
     height="1"
     width="1" />
  <rect
     style="fill:#202f3e"
     y="40"
     x="-132"
     id="rect4572"
     transform="scale(-1,1)"
     height="1"
     width="1" />
  <rect
     style="fill:#202f3e"
     y="33"
     x="-132"
     id="rect4574"
     transform="scale(-1,1)"
     height="1"
     width="1" />
  <rect
     style="fill:#202f3e"
     y="32"
     x="-131"
     id="rect4576"
     transform="scale(-1,1)"
     height="1"
     width="1" />
  <rect
     style="fill:#202f3e"
     y="34"
     x="-133"
     id="rect4578"
     transform="scale(-1,1)"
     height="6"
     width="1" />
  <rect
     style="fill:#f14b1c"
     y="34"
     x="-132"
     id="rect4580"
     transform="scale(-1,1)"
     height="6"
     width="1" />
  <rect
     style="fill:#f14b1c"
     y="33"
     x="-131"
     id="rect4582"
     transform="scale(-1,1)"
     height="8"
     width="1" />
  <rect
     style="fill:#f14b1c"
     y="32"
     x="-130"
     id="rect4584"
     transform="scale(-1,1)"
     height="10"
     width="2" />
  <rect
     style="fill:#bc3c18"
     id="rect4586"
     height="10"
     width="1"
     y="32"
     x="128" />
  <rect
     style="fill:#202f3e"
     id="rect4588"
     height="38"
     width="12"
     y="111"
     x="84" />
  <rect
     style="fill:#202f3e"
     id="rect4590"
     height="38"
     width="12"
     y="111"
     x="111" />
  <rect
     style="fill:#57c7c8"
     id="rect4592"
     height="1"
     width="1"
     y="26"
     x="120" />
  <rect
     style="fill:#57c7c8"
     id="rect4594"
     height="1"
     width="1"
     y="28"
     x="120" />
  <rect
     style="fill:#57c7c8"
     id="rect4596"
     height="1"
     width="1"
     y="30"
     x="120" />
  <rect
     style="fill:#57c7c8"
     id="rect4598"
     height="1"
     width="1"
     y="32"
     x="120" />
  <rect
     style="fill:#57c7c8"
     id="rect4600"
     height="1"
     width="1"
     y="34"
     x="120" />
  <rect
     style="fill:#57c7c8"
     id="rect4602"
     height="1"
     width="1"
     y="36"
     x="120" />
  <rect
     style="fill:#57c7c8"
     id="rect4604"
     height="1"
     width="1"
     y="38"
     x="120" />
  <rect
     style="fill:#57c7c8"
     id="rect4606"
     height="1"
     width="1"
     y="40"
     x="120" />
  <rect
     style="fill:#57c7c8"
     id="rect4608"
     height="1"
     width="1"
     y="42"
     x="120" />
  <rect
     style="fill:#57c7c8"
     id="rect4610"
     height="1"
     width="1"
     y="44"
     x="120" />
  <path
     style="clip-rule:evenodd;fill:#202f3e;fill-rule:evenodd"
     id="path4612"
     d="m 81,63 h 5 v 5 h -5 z m 1,1 h 2 v 1 h -1 v 1 h -1 z m 3,1 v 2 h -2 v -1 h 1 v -1 z" />
  <path
     style="clip-rule:evenodd;fill:#202f3e;fill-rule:evenodd"
     id="path4614"
     d="m 123,101 h 5 v 5 h -5 z m 1,1 h 2 v 1 h -1 v 1 h -1 z m 3,1 v 2 h -2 v -1 h 1 v -1 z" />
  <path
     style="clip-rule:evenodd;fill:#202f3e;fill-rule:evenodd"
     id="path4616"
     d="m 91,70 h 26 v 1 h 1 v 27 h -1 v 1 H 91 V 98 H 90 V 71 h 1 z" />
  <rect
     style="fill:#ffffff"
     id="rect4618"
     height="25"
     width="26"
     y="72"
     x="91" />
  <rect
     style="fill:#ffffff"
     id="rect4620"
     height="1"
     width="24"
     y="71"
     x="92" />
  <rect
     style="fill:#ffffff"
     id="rect4622"
     height="1"
     width="24"
     y="97"
     x="92" />
  <rect
     style="fill:#ffffff;stroke:#202f3e"
     id="rect4624"
     height="5"
     width="5"
     y="73.5"
     x="93.5" />
  <rect
     style="fill:#ffffff;stroke:#202f3e"
     id="rect4626"
     height="5"
     width="5"
     y="81.5"
     x="93.5" />
  <rect
     style="fill:#ffffff;stroke:#202f3e"
     id="rect4628"
     height="5"
     width="5"
     y="89.5"
     x="93.5" />
  <rect
     style="fill:#ffffff;stroke:#202f3e"
     id="rect4630"
     height="5"
     width="5"
     y="73.5"
     x="101.5" />
  <path
     style="clip-rule:evenodd;fill:#f14b1c;fill-rule:evenodd"
     id="path4632"
     d="m 103,81 c -1.1046,0 -2,0.8954 -2,2 v 2 c 0,1.1046 0.8954,2 2,2 h 2 c 1.1046,0 2,-0.8954 2,-2 v -2 c 0,-1.1046 -0.8954,-2 -2,-2 z m 0,1 c -0.5523,0 -1,0.4477 -1,1 v 2 c 0,0.5523 0.4477,1 1,1 h 2 c 0.5523,0 1,-0.4477 1,-1 v -2 c 0,-0.5523 -0.4477,-1 -1,-1 z" />
  <rect
     style="fill:#ffffff;stroke:#202f3e"
     id="rect4634"
     height="5"
     width="5"
     y="89.5"
     x="101.5" />
  <rect
     style="fill:#f9a92b"
     id="rect4636"
     height="6"
     width="6"
     y="73"
     x="109" />
  <rect
     style="fill:#ffffff;stroke:#202f3e"
     id="rect4638"
     height="5"
     width="5"
     y="81.5"
     x="109.5" />
  <rect
     style="fill:#ffffff;stroke:#202f3e"
     id="rect4640"
     height="5"
     width="5"
     y="89.5"
     x="109.5" />
  <rect
     style="fill:#f14b1c"
     id="rect4642"
     rx="1"
     height="2"
     width="2"
     y="83"
     x="103" />
  <rect
     style="fill:#202f3e"
     id="rect4644"
     height="1"
     width="25"
     y="65"
     x="91" />
  <rect
     style="fill:#202f3e"
     id="rect4646"
     height="1"
     width="3"
     y="66"
     x="89" />
  <rect
     style="fill:#202f3e"
     id="rect4648"
     height="1"
     width="3"
     y="67"
     x="87" />
  <rect
     style="fill:#202f3e"
     id="rect4650"
     height="1"
     width="2"
     y="69"
     x="86" />
  <rect
     style="fill:#202f3e"
     id="rect4652"
     height="2"
     width="1"
     y="68"
     x="87" />
  <rect
     style="fill:#202f3e"
     id="rect4654"
     height="2"
     width="1"
     y="70"
     x="86" />
  <rect
     style="fill:#202f3e"
     id="rect4656"
     height="27"
     width="1"
     y="71"
     x="85" />
  <rect
     style="fill:#202f3e"
     id="rect4658"
     height="1"
     width="3"
     y="66"
     x="115" />
  <rect
     style="fill:#202f3e"
     id="rect4660"
     height="1"
     width="2"
     y="71"
     x="121" />
  <rect
     style="fill:#202f3e"
     id="rect4662"
     height="1"
     width="4"
     y="67"
     x="117" />
  <rect
     style="fill:#202f3e"
     id="rect4664"
     height="3"
     width="1"
     y="69"
     x="121" />
  <rect
     style="fill:#202f3e"
     id="rect4666"
     height="26"
     width="1"
     y="72"
     x="122" />
  <rect
     style="fill:#202f3e"
     id="rect4668"
     height="2"
     width="1"
     y="68"
     x="120" />
  <rect
     style="fill:#202f3e"
     id="rect4670"
     height="3"
     width="1"
     y="97"
     x="121" />
  <rect
     style="fill:#202f3e"
     id="rect4672"
     height="3"
     width="1"
     y="99"
     x="120" />
  <rect
     style="fill:#202f3e"
     id="rect4674"
     height="3"
     width="1"
     y="97"
     x="86" />
  <rect
     style="fill:#202f3e"
     id="rect4676"
     height="3"
     width="1"
     y="99"
     x="87" />
  <rect
     style="fill:#202f3e"
     id="rect4678"
     height="1"
     width="3"
     y="101"
     x="117" />
  <rect
     style="fill:#202f3e"
     id="rect4680"
     height="1"
     width="3"
     y="101"
     x="87" />
  <rect
     style="fill:#202f3e"
     id="rect4682"
     height="1"
     width="3"
     y="102"
     x="115" />
  <rect
     style="fill:#202f3e"
     id="rect4684"
     height="1"
     width="3"
     y="102"
     x="89" />
  <rect
     style="fill:#202f3e"
     id="rect4686"
     height="1"
     width="26"
     y="103"
     x="91" />
  <rect
     style="fill:#202f3e"
     id="rect4688"
     height="1"
     width="2"
     y="75"
     x="95" />
  <rect
     style="fill:#202f3e"
     id="rect4690"
     height="1"
     width="2"
     y="91"
     x="95" />
  <rect
     style="fill:#202f3e"
     id="rect4692"
     height="2"
     width="1"
     y="75"
     x="96" />
  <rect
     style="fill:#202f3e"
     id="rect4694"
     height="2"
     width="1"
     y="91"
     x="96" />
  <rect
     style="fill:#202f3e"
     id="rect4696"
     height="1"
     width="2"
     y="76"
     x="103" />
  <rect
     style="fill:#202f3e"
     id="rect4698"
     height="1"
     width="2"
     y="84"
     x="111" />
  <rect
     style="fill:#202f3e"
     id="rect4700"
     height="1"
     width="2"
     y="92"
     x="111" />
  <rect
     style="fill:#202f3e"
     id="rect4702"
     height="1"
     width="2"
     y="84"
     x="95" />
  <rect
     style="fill:#f14b1c"
     id="rect4704"
     height="2"
     width="2"
     y="91"
     x="103" />
  <rect
     style="fill:#202f3e"
     id="rect4706"
     height="2"
     width="2"
     y="100"
     x="93" />
  <rect
     style="fill:#202f3e"
     id="rect4708"
     height="2"
     width="2"
     y="107"
     x="84" />
  <rect
     style="fill:#202f3e"
     id="rect4710"
     height="2"
     width="2"
     y="107"
     x="88" />
  <rect
     style="fill:#202f3e"
     id="rect4712"
     height="2"
     width="2"
     y="107"
     x="92" />
  <rect
     style="fill:#202f3e"
     id="rect4714"
     height="2"
     width="2"
     y="107"
     x="96" />
  <rect
     style="fill:#202f3e"
     id="rect4716"
     height="2"
     width="2"
     y="107"
     x="100" />
  <rect
     style="fill:#202f3e"
     id="rect4718"
     height="2"
     width="2"
     y="107"
     x="104" />
  <rect
     style="fill:#202f3e"
     id="rect4720"
     height="2"
     width="2"
     y="107"
     x="108" />
  <rect
     style="fill:#202f3e"
     id="rect4722"
     height="2"
     width="2"
     y="107"
     x="112" />
  <rect
     style="fill:#202f3e"
     id="rect4724"
     height="2"
     width="2"
     y="107"
     x="116" />
  <rect
     style="fill:#202f3e"
     id="rect4726"
     height="2"
     width="2"
     y="107"
     x="120" />
  <rect
     style="fill:#202f3e"
     id="rect4728"
     height="2"
     width="2"
     y="100"
     x="97" />
  <rect
     style="fill:#202f3e"
     id="rect4730"
     height="2"
     width="5"
     y="100"
     x="101" />
  <rect
     style="fill:#202f3e"
     id="rect4732"
     height="2"
     width="2"
     y="100"
     x="108" />
  <rect
     style="fill:#202f3e"
     id="rect4734"
     height="2"
     width="2"
     y="100"
     x="112" />
  <rect
     style="fill:#bfd1e1"
     y="25"
     x="-116"
     id="rect4736"
     transform="scale(-1,1)"
     height="25"
     width="1" />
  <rect
     style="fill:#bfd1e1"
     y="66"
     x="-131"
     id="rect4738"
     transform="scale(-1,1)"
     height="38"
     width="1" />
  <rect
     style="fill:#bfd1e1"
     y="64"
     x="-130"
     id="rect4740"
     transform="scale(-1,1)"
     height="1"
     width="1" />
  <rect
     style="fill:#bfd1e1"
     y="62"
     x="-129"
     id="rect4742"
     transform="scale(-1,1)"
     height="1"
     width="1" />
  <rect
     style="fill:#202f3e"
     id="rect4744"
     height="27"
     width="2"
     y="71"
     x="81" />
  <rect
     style="fill:#ffffff"
     id="rect4746"
     height="1"
     width="1"
     y="73"
     x="81" />
  <rect
     style="fill:#ffffff"
     id="rect4748"
     height="1"
     width="1"
     y="76"
     x="81" />
  <rect
     style="fill:#ffffff"
     id="rect4750"
     height="1"
     width="1"
     y="79"
     x="81" />
  <rect
     style="fill:#ffffff"
     id="rect4752"
     height="1"
     width="1"
     y="82"
     x="81" />
  <rect
     style="fill:#ffffff"
     id="rect4754"
     height="1"
     width="1"
     y="85"
     x="81" />
  <rect
     style="fill:#ffffff"
     id="rect4756"
     height="1"
     width="1"
     y="88"
     x="81" />
  <rect
     style="fill:#ffffff"
     id="rect4758"
     height="1"
     width="1"
     y="91"
     x="81" />
  <rect
     style="fill:#ffffff"
     id="rect4760"
     height="1"
     width="1"
     y="94"
     x="81" />
  <rect
     style="fill:#202f3e"
     id="rect4762"
     height="19"
     width="2"
     y="71"
     x="125" />
  <rect
     style="fill:#202f3e"
     id="rect4764"
     height="6"
     width="2"
     y="92"
     x="125" />
  <path
     style="clip-rule:evenodd;fill:#202f3e;fill-rule:evenodd"
     id="path4766"
     d="M 66,66 H 78 V 76 H 66 v -1 h -1 v -1 h -1 v -6 h 1 v -1 h 1 z" />
  <path
     style="clip-rule:evenodd;fill:#f9a92b;fill-rule:evenodd"
     id="path4768"
     d="m 67,67 h 10 v 8 H 67 v -1 h -1 v -1 h -1 v -4 h 1 v -1 h 1 z" />
  <path
     style="clip-rule:evenodd;fill:#202f3e;fill-rule:evenodd"
     id="path4770"
     d="m 143,66 h -12 v 10 h 12 v -1 h 1 v -1 h 1 v -6 h -1 v -1 h -1 z" />
  <path
     style="clip-rule:evenodd;fill:#ffffff;fill-rule:evenodd"
     id="path4772"
     d="m 142,67 h -10 v 8 h 10 v -1 h 1 v -1 h 1 v -4 h -1 v -1 h -1 z" />
  <path
     style="clip-rule:evenodd;fill:#202f3e;fill-rule:evenodd"
     id="path4774"
     d="m 73,69 h -1 -1 -3 v 3 1 1 h 5 z" />
  <path
     style="clip-rule:evenodd;fill:#202f3e;fill-rule:evenodd"
     id="path4776"
     d="m 136,69 h 1 1 3 v 3 1 1 h -5 z" />
  <rect
     style="fill:#ffffff"
     id="rect4778"
     height="3"
     width="3"
     y="70"
     x="69" />
  <rect
     style="fill:#bfd1e1"
     y="70"
     x="-140"
     id="rect4780"
     transform="scale(-1,1)"
     height="3"
     width="3" />
  <path
     style="fill:#202f3e"
     id="path4782"
     d="M 71.25,73 69,70.75 V 70 h 0.75 L 72,72.25 V 73 Z" />
  <path
     style="fill:#202f3e"
     id="path4784"
     d="M 137.75,73 140,70.75 V 70 h -0.75 L 137,72.25 V 73 Z" />
  <rect
     style="fill:#202f3e"
     id="rect4786"
     height="2"
     width="2"
     y="72"
     x="74" />
  <rect
     style="fill:#202f3e"
     y="72"
     x="-135"
     id="rect4788"
     transform="scale(-1,1)"
     height="2"
     width="2" />
  <path
     style="stroke:#202f3e;stroke-width:2"
     id="path4790"
     d="m 82.5,53 v 0 C 76.701,53 72,57.701 72,63.5 V 66" />
  <path
     style="stroke:#202f3e;stroke-width:2"
     id="path4792"
     d="m 82,49 v 0 c -7.732,0 -14,6.268 -14,14 v 3" />
  <rect
     style="fill:#f14b1c"
     id="rect4794"
     height="26"
     width="2"
     y="112"
     x="87" />
  <rect
     style="fill:#f14b1c"
     id="rect4796"
     height="26"
     width="2"
     y="112"
     x="113" />
  <rect
     style="fill:#f14b1c"
     id="rect4798"
     height="6"
     width="2"
     y="140"
     x="87" />
  <rect
     style="fill:#f14b1c"
     id="rect4800"
     height="6"
     width="2"
     y="140"
     x="113" />
  <rect
     style="fill:#ffffff"
     id="rect4802"
     height="2"
     width="4"
     y="112"
     x="117" />
  <rect
     style="fill:#ffffff"
     id="rect4804"
     height="2"
     width="4"
     y="116"
     x="117" />
  <rect
     style="fill:#ffffff"
     id="rect4806"
     height="2"
     width="4"
     y="120"
     x="117" />
  <rect
     style="fill:#ffffff"
     id="rect4808"
     height="2"
     width="4"
     y="124"
     x="117" />
  <rect
     style="fill:#ffffff"
     id="rect4810"
     height="2"
     width="4"
     y="128"
     x="117" />
  <rect
     style="fill:#ffffff"
     id="rect4812"
     height="2"
     width="4"
     y="132"
     x="117" />
  <rect
     style="fill:#ffffff"
     id="rect4814"
     height="2"
     width="4"
     y="136"
     x="117" />
  <rect
     style="fill:#ffffff"
     id="rect4816"
     height="2"
     width="4"
     y="140"
     x="117" />
  <rect
     style="fill:#ffffff"
     id="rect4818"
     height="2"
     width="4"
     y="144"
     x="117" />
  <path
     style="clip-rule:evenodd;fill:#202f3e;fill-rule:evenodd"
     id="path4820"
     d="M 97,149 H 83 v 1 h -1 v 1 h -1 v 1 h -1 v 1 h -1 v 7 h 1 1 18 1 1 v -7 h -1 v -1 h -1 v -1 h -1 v -1 h -1 z" />
  <path
     style="clip-rule:evenodd;fill:#202f3e;fill-rule:evenodd"
     id="path4822"
     d="m 124,149 h -14 v 1 h -1 v 1 h -1 v 1 h -1 v 1 h -1 v 7 h 1 1 18 1 1 v -7 h -1 v -1 h -1 v -1 h -1 v -1 h -1 z" />
  <path
     style="clip-rule:evenodd;fill:#f9a92b;fill-rule:evenodd"
     id="path4824"
     d="M 99,153 H 81 v 1 h -1 v 5 h 20 v -5 h -1 z" />
  <rect
     style="fill:#202f3e"
     id="rect4826"
     height="3"
     width="1"
     y="155"
     x="81" />
  <rect
     style="fill:#202f3e"
     id="rect4828"
     height="4"
     width="1"
     y="154"
     x="83" />
  <rect
     style="fill:#202f3e"
     id="rect4830"
     height="4"
     width="1"
     y="154"
     x="85" />
  <rect
     style="fill:#202f3e"
     id="rect4832"
     height="4"
     width="1"
     y="154"
     x="87" />
  <rect
     style="fill:#202f3e"
     id="rect4834"
     height="4"
     width="1"
     y="154"
     x="89" />
  <rect
     style="fill:#202f3e"
     id="rect4836"
     height="4"
     width="1"
     y="154"
     x="91" />
  <rect
     style="fill:#202f3e"
     id="rect4838"
     height="4"
     width="1"
     y="154"
     x="93" />
  <rect
     style="fill:#202f3e"
     id="rect4840"
     height="4"
     width="1"
     y="154"
     x="95" />
  <rect
     style="fill:#202f3e"
     id="rect4842"
     height="3"
     width="1"
     y="155"
     x="97" />
  <path
     style="clip-rule:evenodd;fill:#f9a92b;fill-rule:evenodd"
     id="path4844"
     d="m 126,153 h -18 v 1 h -1 v 5 h 20 v -5 h -1 z" />
  <rect
     style="fill:#202f3e"
     id="rect4846"
     height="3"
     width="1"
     y="155"
     x="108" />
  <rect
     style="fill:#202f3e"
     id="rect4848"
     height="4"
     width="1"
     y="154"
     x="110" />
  <rect
     style="fill:#202f3e"
     id="rect4850"
     height="4"
     width="1"
     y="154"
     x="112" />
  <rect
     style="fill:#202f3e"
     id="rect4852"
     height="4"
     width="1"
     y="154"
     x="114" />
  <rect
     style="fill:#202f3e"
     id="rect4854"
     height="4"
     width="1"
     y="154"
     x="116" />
  <rect
     style="fill:#202f3e"
     id="rect4856"
     height="4"
     width="1"
     y="154"
     x="118" />
  <rect
     style="fill:#202f3e"
     id="rect4858"
     height="4"
     width="1"
     y="154"
     x="120" />
  <rect
     style="fill:#202f3e"
     id="rect4860"
     height="4"
     width="1"
     y="154"
     x="122" />
  <rect
     style="fill:#202f3e"
     id="rect4862"
     height="3"
     width="1"
     y="155"
     x="124" />
  <rect
     style="fill:#ffffff"
     id="rect4864"
     height="1"
     width="16"
     y="152"
     x="109" />
  <rect
     style="fill:#ffffff"
     id="rect4866"
     height="1"
     width="14"
     y="151"
     x="110" />
  <rect
     style="fill:#ffffff"
     id="rect4868"
     height="1"
     width="12"
     y="150"
     x="111" />
  <rect
     style="fill:#ffffff"
     id="rect4870"
     height="1"
     width="10"
     y="149"
     x="112" />
  <path
     style="clip-rule:evenodd;fill:#f9a92b;fill-rule:evenodd"
     id="path4872"
     d="m 97.2235,1 h 4 v 1 h 1 v 1 h 1 2 1 V 2 h 1 V 1 h 4 v 1 h 1 v 1 h 1 v 4 h -1 v 1 h -1 v 1 h -4 V 8 h -1 v 5 h -4 V 8 h -1 v 1 h -4 V 8 h -1 V 7 h -1 V 3 h 1 V 2 h 1 z m 4,2 h -4 v 4 h 4 z m 6,0 h 4 v 4 h -4 z" />
  <rect
     style="fill:#202f3e"
     id="rect4874"
     height="5"
     width="1"
     y="8"
     x="101.2235" />
  <rect
     style="fill:#202f3e"
     id="rect4876"
     height="5"
     width="1"
     y="8"
     x="106.2235" />
  <rect
     style="fill:#202f3e"
     id="rect4878"
     height="4"
     width="1"
     y="3"
     x="107.2235" />
  <rect
     style="fill:#202f3e"
     id="rect4880"
     height="4"
     width="1"
     y="3"
     x="113.2235" />
  <rect
     style="fill:#202f3e"
     id="rect4882"
     height="4"
     width="1"
     y="3"
     x="100.2235" />
  <rect
     style="fill:#202f3e"
     id="rect4884"
     height="4"
     width="1"
     y="3"
     x="110.2235" />
  <rect
     style="fill:#202f3e"
     id="rect4886"
     height="4"
     width="1"
     y="3"
     x="94.223495" />
  <rect
     style="fill:#202f3e"
     id="rect4888"
     height="1"
     width="1"
     y="7"
     x="95.223495" />
  <rect
     style="fill:#202f3e"
     id="rect4890"
     height="1"
     width="1"
     y="2"
     x="95.223495" />
  <rect
     style="fill:#202f3e"
     id="rect4892"
     height="1"
     width="1"
     y="8"
     x="96.223495" />
  <rect
     style="fill:#202f3e"
     id="rect4894"
     height="1"
     width="1"
     y="1"
     x="96.223495" />
  <rect
     style="fill:#202f3e"
     y="1"
     x="-112.2235"
     id="rect4896"
     transform="scale(-1,1)"
     height="1"
     width="1" />
  <rect
     style="fill:#202f3e"
     y="2"
     x="-113.2235"
     id="rect4898"
     transform="scale(-1,1)"
     height="1"
     width="1" />
  <rect
     style="fill:#202f3e"
     y="7"
     x="-113.2235"
     id="rect4900"
     transform="scale(-1,1)"
     height="1"
     width="1" />
  <rect
     style="fill:#202f3e"
     y="8"
     x="-112.2235"
     id="rect4902"
     transform="scale(-1,1)"
     height="1"
     width="1" />
  <rect
     style="fill:#202f3e"
     id="rect4904"
     height="1"
     width="1"
     y="1"
     x="101.2235" />
  <rect
     style="fill:#202f3e"
     id="rect4906"
     height="1"
     width="1"
     y="1"
     x="106.2235" />
  <rect
     style="fill:#202f3e"
     id="rect4908"
     height="1"
     width="4"
     y="2"
     x="102.2235" />
  <rect
     style="fill:#202f3e"
     id="rect4910"
     height="1"
     width="4"
     y="9"
     x="97.223495" />
  <rect
     style="fill:#202f3e"
     y="0"
     id="rect4912"
     height="1"
     width="4"
     x="97.223495" />
  <rect
     style="fill:#202f3e"
     y="0"
     id="rect4914"
     height="1"
     width="4"
     x="107.2235" />
  <rect
     style="fill:#202f3e"
     id="rect4916"
     height="1"
     width="2"
     y="3"
     x="108.2235" />
  <rect
     style="fill:#202f3e"
     id="rect4918"
     height="1"
     width="2"
     y="3"
     x="98.223495" />
  <rect
     style="fill:#202f3e"
     id="rect4920"
     height="1"
     width="4"
     y="9"
     x="107.2235" />
  <rect
     style="fill:#202f3e"
     id="rect4922"
     height="4"
     width="1"
     y="3"
     x="97.223495" />
  <g
     transform="translate(1,21)"
     id="g5060"
     style="fill:none">
    <path
       style="clip-rule:evenodd;fill:#ffffff;fill-rule:evenodd"
       d="M 15,15 H 9 V 28 C 9,41.8071 20.1929,53 34,53 H 62 V 47 H 35 C 23.9543,47 15,38.0457 15,27 Z"
       id="path4935" />
    <path
       style="fill:#202f3e"
       d="M 9,15 V 14 H 8 v 1 z m 6,0 h 1 v -1 h -1 z m 47,38 v 1 h 1 v -1 z m 0,-6 h 1 V 46 H 62 Z M 9,16 h 6 V 14 H 9 Z m 1,12 V 15 H 8 V 28 Z M 34,52 C 20.7452,52 10,41.2548 10,28 H 8 c 0,14.3594 11.6406,26 26,26 z m 28,0 H 34 v 2 h 28 z m -1,-5 v 6 h 2 v -6 z m 1,-1 H 35 v 2 H 62 Z M 35,46 C 24.5066,46 16,37.4934 16,27 h -2 c 0,11.598 9.402,21 21,21 z M 16,27 V 15 h -2 v 12 z"
       mask="url(#path-1-inside-1)"
       id="path4937" />
    <rect
       style="fill:#202f3e"
       x="9"
       y="18"
       width="5"
       height="1"
       id="rect4939" />
    <rect
       style="fill:#202f3e"
       x="9"
       y="21"
       width="5"
       height="1"
       id="rect4941" />
    <rect
       style="fill:#202f3e"
       x="9"
       y="24"
       width="5"
       height="1"
       id="rect4943" />
    <rect
       style="fill:#202f3e"
       x="9"
       y="27"
       width="6"
       height="1"
       id="rect4945" />
    <rect
       style="fill:#202f3e"
       x="10"
       y="30"
       width="5"
       height="1"
       id="rect4947" />
    <path
       style="fill:#202f3e"
       d="M 10,33.5 15.5,33 16,34 10.5,34.5 Z"
       id="path4949" />
    <path
       style="fill:#202f3e"
       d="m 11,37 5.5,-1 0.5,1 -5.5,1 z"
       id="path4951" />
    <path
       style="fill:#202f3e"
       d="m 12.9993,39.9873 4.8285,-1.2983 0.7425,0.8359 -5.3114,1.4281 z"
       id="path4953" />
    <path
       style="fill:#202f3e"
       d="m 15,43.3103 4.5375,-2.1003 0.8738,0.6975 -4.9912,2.3103 z"
       id="path4955" />
    <path
       style="fill:#202f3e"
       d="m 18,46.4539 4.3497,-3.1399 1.0203,0.4968 -4.7847,3.4539 z"
       id="path4957" />
    <path
       style="fill:#202f3e"
       d="m 22,49.6466 3.3069,-4.2242 1.1181,0.194 -3.6376,4.6466 z"
       id="path4959" />
    <rect
       style="fill:#202f3e"
       x="32"
       y="47"
       width="1"
       height="5"
       id="rect4961" />
    <rect
       style="fill:#202f3e"
       x="36"
       y="47"
       width="1"
       height="5"
       id="rect4963" />
    <rect
       style="fill:#202f3e"
       x="40"
       y="47"
       width="1"
       height="5"
       id="rect4965" />
    <rect
       style="fill:#202f3e"
       x="44"
       y="47"
       width="1"
       height="5"
       id="rect4967" />
    <rect
       style="fill:#202f3e"
       x="48"
       y="47"
       width="1"
       height="5"
       id="rect4969" />
    <rect
       style="fill:#202f3e"
       x="52"
       y="47"
       width="1"
       height="5"
       id="rect4971" />
    <rect
       style="fill:#202f3e"
       x="56"
       y="47"
       width="1"
       height="5"
       id="rect4973" />
    <path
       style="fill:#202f3e"
       d="m 28.9317,46 0.6369,0.8654 -1.7223,4.6673 L 27,51 Z"
       id="path4975" />
    <rect
       style="fill:#202f3e"
       y="0"
       x="0"
       width="1"
       height="9"
       id="rect4977" />
    <rect
       style="fill:#202f3e"
       y="0"
       x="20"
       width="2"
       height="2"
       id="rect4979" />
    <rect
       style="fill:#202f3e"
       y="0"
       x="1"
       width="5"
       height="5"
       id="rect4981" />
    <rect
       style="fill:#202f3e"
       y="0"
       x="18"
       width="2"
       height="5"
       id="rect4983" />
    <rect
       style="fill:#202f3e"
       x="5"
       y="4"
       width="13"
       height="2"
       id="rect4985" />
    <rect
       style="fill:#202f3e"
       y="0"
       x="22"
       width="2"
       height="9"
       id="rect4987" />
    <rect
       style="fill:#202f3e"
       x="3"
       y="11"
       width="18"
       height="2"
       id="rect4989" />
    <rect
       style="fill:#202f3e"
       x="9"
       y="13"
       width="6"
       height="2"
       id="rect4991" />
    <rect
       style="fill:#f9a92b"
       x="1"
       y="1"
       width="4"
       height="7"
       id="rect4993" />
    <rect
       style="fill:#f9a92b"
       x="19"
       y="1"
       width="4"
       height="7"
       id="rect4995" />
    <rect
       style="fill:#f9a92b"
       x="2"
       y="5"
       width="20"
       height="4"
       id="rect4997" />
    <rect
       style="fill:#f9a92b"
       x="2"
       y="9"
       width="20"
       height="1"
       id="rect4999" />
    <rect
       style="fill:#f9a92b"
       x="3"
       y="10"
       width="18"
       height="1"
       id="rect5001" />
    <rect
       style="fill:#f9a92b"
       x="4"
       y="11"
       width="16"
       height="1"
       id="rect5003" />
    <rect
       style="fill:#202f3e"
       x="1"
       y="8"
       width="1"
       height="3"
       id="rect5005" />
    <rect
       style="fill:#202f3e"
       x="2"
       y="10"
       width="1"
       height="2"
       id="rect5007" />
    <rect
       style="fill:#202f3e"
       x="21"
       y="10"
       width="1"
       height="2"
       id="rect5009" />
    <rect
       style="fill:#202f3e"
       x="22"
       y="9"
       width="1"
       height="2"
       id="rect5011" />
  </g>
</svg>
