<svg width="138" height="104" viewBox="0 0 138 104" fill="none" xmlns="http://www.w3.org/2000/svg">
<rect width="3" height="92" transform="matrix(-1 0 0 1 127 12)" fill="#BFD1E1"/>
<path d="M0 48L58 10V8L0 46V48Z" fill="#829BB0"/>
<path d="M0 44L58 6V2L0 40V44Z" fill="#BFD1E1"/>
<rect width="80" height="2" transform="matrix(-1 0 0 1 138 0)" fill="#263746"/>
<rect width="80" height="2" transform="matrix(-1 0 0 1 138 10)" fill="#263746"/>
<rect width="2" height="8" transform="matrix(-1 0 0 1 138 2)" fill="#263746"/>
<rect width="2" height="8" transform="matrix(-1 0 0 1 133 2)" fill="#263746"/>
<rect width="2" height="2" transform="matrix(-1 0 0 1 120 4)" fill="#263746"/>
<rect width="2" height="2" transform="matrix(-1 0 0 1 100 4)" fill="#263746"/>
<rect width="2" height="2" transform="matrix(-1 0 0 1 53 7)" fill="#263746"/>
<rect width="2" height="2" transform="matrix(-1 0 0 1 32 21)" fill="#263746"/>
<rect width="2" height="2" transform="matrix(-1 0 0 1 12 34)" fill="#263746"/>
<rect width="2" height="8" transform="matrix(-1 0 0 1 92 2)" fill="#263746"/>
<rect width="2" height="92" transform="matrix(-1 0 0 1 133 12)" fill="#263746"/>
<rect width="2" height="92" transform="matrix(-1 0 0 1 123 12)" fill="#263746"/>
<rect width="2" height="92" transform="matrix(-1 0 0 1 129 12)" fill="#263746"/>
<rect width="2" height="92" transform="matrix(-1 0 0 1 75 12)" fill="#263746"/>
<rect width="1" height="92" transform="matrix(-1 0 0 1 77 12)" fill="#829BB0"/>
<rect width="1" height="92" transform="matrix(-1 0 0 1 76 12)" fill="#BFD1E1"/>
<rect width="4" height="92" transform="matrix(-1 0 0 1 73 12)" fill="#BFD1E1"/>
<rect width="2" height="2" transform="matrix(-1 0 0 1 126 14)" fill="#263746"/>
<rect width="2" height="2" transform="matrix(-1 0 0 1 126 36)" fill="#263746"/>
<rect width="2" height="2" transform="matrix(-1 0 0 1 126 58)" fill="#263746"/>
<rect width="2" height="2" transform="matrix(-1 0 0 1 126 80)" fill="#263746"/>
<rect width="2" height="92" transform="matrix(-1 0 0 1 69 12)" fill="#263746"/>
<rect width="2" height="92" transform="matrix(-1 0 0 1 79 12)" fill="#263746"/>
<rect width="2" height="8" transform="matrix(-1 0 0 1 125 2)" fill="#263746"/>
<rect width="2" height="10" transform="matrix(-1 0 0 1 60 2)" fill="#263746"/>
<path d="M2 38H0V49L2 48V38Z" fill="#263746"/>
<path d="M0 50L58 12V10L0 48V50Z" fill="#263746"/>
<path d="M0 46L58 8V6L0 44V46Z" fill="#263746"/>
<path d="M0 40L58 2V0L0 38V40Z" fill="#263746"/>
<rect width="1" height="92" transform="matrix(-1 0 0 1 73 12)" fill="white"/>
<rect width="2" height="8" transform="matrix(-1 0 0 1 112 2)" fill="#263746"/>
<rect width="2" height="2" transform="matrix(-1 0 0 1 86 4)" fill="#263746"/>
<rect width="5" height="1" transform="matrix(-1 0 0 1 130 2)" fill="#BFD1E1"/>
<rect width="5" height="2" transform="matrix(-1 0 0 1 130 3)" fill="#BFD1E1"/>
<rect width="12" height="2" transform="matrix(-1 0 0 1 109 2)" fill="#BFD1E1"/>
<rect width="9" height="2" transform="matrix(-1 0 0 1 109 4)" fill="#BFD1E1"/>
<rect width="12" height="4" transform="matrix(-1 0 0 1 109 6)" fill="#BFD1E1"/>
<rect width="29" height="7" transform="matrix(-1 0 0 1 89 2)" fill="#BFD1E1"/>
<rect width="2" height="8" transform="matrix(-1 0 0 1 135 2)" fill="#BFD1E1"/>
<rect width="1" height="8" transform="matrix(-1 0 0 1 136 2)" fill="white"/>
<rect width="1" height="8" transform="matrix(-1 0 0 1 131 2)" fill="white"/>
<rect width="1" height="92" transform="matrix(-1 0 0 1 131 12)" fill="#829BB0"/>
<rect width="1" height="92" transform="matrix(-1 0 0 1 130 12)" fill="#BFD1E1"/>
<rect width="1" height="92" transform="matrix(-1 0 0 1 124 12)" fill="white"/>
<rect width="1" height="8" transform="matrix(-1 0 0 1 123 2)" fill="white"/>
<rect width="1" height="2" transform="matrix(-1 0 0 1 118 4)" fill="white"/>
<rect width="2" height="2" transform="matrix(-1 0 0 1 122 4)" fill="#BFD1E1"/>
<rect width="5" height="2" transform="matrix(-1 0 0 1 117 4)" fill="#BFD1E1"/>
<rect width="10" height="2" transform="matrix(-1 0 0 1 122 2)" fill="#BFD1E1"/>
<rect width="10" height="4" transform="matrix(-1 0 0 1 122 6)" fill="#BFD1E1"/>
<rect width="1" height="2" transform="matrix(-1 0 0 1 98 4)" fill="white"/>
<rect width="1" height="8" transform="matrix(-1 0 0 1 93 2)" fill="#829BB0"/>
<rect width="4" height="8" transform="matrix(-1 0 0 1 97 2)" fill="#BFD1E1"/>
<rect width="1" height="8" transform="matrix(-1 0 0 1 90 2)" fill="white"/>
<rect width="1" height="8" transform="matrix(-1 0 0 1 61 2)" fill="#829BB0"/>
<rect width="17" height="1" transform="matrix(-1 0 0 1 109 9)" fill="#829BB0"/>
<rect width="28" height="1" transform="matrix(-1 0 0 1 89 9)" fill="#829BB0"/>
<rect width="10" height="1" transform="matrix(-1 0 0 1 122 9)" fill="#829BB0"/>
<rect width="5" height="1" transform="matrix(-1 0 0 1 130 2)" fill="#829BB0"/>
<path d="M130 5H125V10H130V5Z" fill="#BFD1E1"/>
<rect width="1" height="8" transform="matrix(-1 0 0 1 110 2)" fill="white"/>
<rect width="1" height="2" transform="matrix(-1 0 0 1 84 4)" fill="white"/>
<rect width="1" height="2" transform="matrix(-1 0 0 1 79 4)" fill="white"/>
<rect width="2" height="2" transform="matrix(-1 0 0 1 86 4)" fill="#263746"/>
<rect width="2" height="2" transform="matrix(-1 0 0 1 81 4)" fill="#263746"/>
</svg>
